G04 #@! TF.GenerationSoftware,KiCad,Pcbnew,9.0.4*
G04 #@! TF.CreationDate,2025-09-08T01:23:02+09:00*
G04 #@! TF.ProjectId,561SmartCard-USB,35363153-6d61-4727-9443-6172642d5553,rev?*
G04 #@! TF.SameCoordinates,Original*
G04 #@! TF.FileFunction,Copper,L4,Bot*
G04 #@! TF.FilePolarity,Positive*
%FSLAX46Y46*%
G04 Gerber Fmt 4.6, Leading zero omitted, Abs format (unit mm)*
G04 Created by KiCad (PCBNEW 9.0.4) date 2025-09-08 01:23:02*
%MOMM*%
%LPD*%
G01*
G04 APERTURE LIST*
G04 Aperture macros list*
%AMRoundRect*
0 Rectangle with rounded corners*
0 $1 Rounding radius*
0 $2 $3 $4 $5 $6 $7 $8 $9 X,Y pos of 4 corners*
0 Add a 4 corners polygon primitive as box body*
4,1,4,$2,$3,$4,$5,$6,$7,$8,$9,$2,$3,0*
0 Add four circle primitives for the rounded corners*
1,1,$1+$1,$2,$3*
1,1,$1+$1,$4,$5*
1,1,$1+$1,$6,$7*
1,1,$1+$1,$8,$9*
0 Add four rect primitives between the rounded corners*
20,1,$1+$1,$2,$3,$4,$5,0*
20,1,$1+$1,$4,$5,$6,$7,0*
20,1,$1+$1,$6,$7,$8,$9,0*
20,1,$1+$1,$8,$9,$2,$3,0*%
G04 Aperture macros list end*
G04 #@! TA.AperFunction,ComponentPad*
%ADD10O,1.100000X2.800000*%
G04 #@! TD*
G04 #@! TA.AperFunction,ComponentPad*
%ADD11O,1.100000X2.400000*%
G04 #@! TD*
G04 #@! TA.AperFunction,ComponentPad*
%ADD12R,1.700000X1.700000*%
G04 #@! TD*
G04 #@! TA.AperFunction,ComponentPad*
%ADD13C,1.700000*%
G04 #@! TD*
G04 #@! TA.AperFunction,SMDPad,CuDef*
%ADD14RoundRect,0.250000X0.450000X-0.262500X0.450000X0.262500X-0.450000X0.262500X-0.450000X-0.262500X0*%
G04 #@! TD*
G04 #@! TA.AperFunction,SMDPad,CuDef*
%ADD15RoundRect,0.135000X-0.185000X0.135000X-0.185000X-0.135000X0.185000X-0.135000X0.185000X0.135000X0*%
G04 #@! TD*
G04 #@! TA.AperFunction,SMDPad,CuDef*
%ADD16RoundRect,0.140000X-0.140000X-0.170000X0.140000X-0.170000X0.140000X0.170000X-0.140000X0.170000X0*%
G04 #@! TD*
G04 #@! TA.AperFunction,SMDPad,CuDef*
%ADD17C,1.000000*%
G04 #@! TD*
G04 #@! TA.AperFunction,SMDPad,CuDef*
%ADD18RoundRect,0.140000X0.140000X0.170000X-0.140000X0.170000X-0.140000X-0.170000X0.140000X-0.170000X0*%
G04 #@! TD*
G04 #@! TA.AperFunction,SMDPad,CuDef*
%ADD19RoundRect,0.135000X0.185000X-0.135000X0.185000X0.135000X-0.185000X0.135000X-0.185000X-0.135000X0*%
G04 #@! TD*
G04 #@! TA.AperFunction,SMDPad,CuDef*
%ADD20RoundRect,0.093750X-0.093750X0.156250X-0.093750X-0.156250X0.093750X-0.156250X0.093750X0.156250X0*%
G04 #@! TD*
G04 #@! TA.AperFunction,SMDPad,CuDef*
%ADD21RoundRect,0.075000X-0.075000X0.250000X-0.075000X-0.250000X0.075000X-0.250000X0.075000X0.250000X0*%
G04 #@! TD*
G04 #@! TA.AperFunction,SMDPad,CuDef*
%ADD22RoundRect,0.140000X-0.170000X0.140000X-0.170000X-0.140000X0.170000X-0.140000X0.170000X0.140000X0*%
G04 #@! TD*
G04 #@! TA.AperFunction,SMDPad,CuDef*
%ADD23RoundRect,0.250000X0.475000X-0.250000X0.475000X0.250000X-0.475000X0.250000X-0.475000X-0.250000X0*%
G04 #@! TD*
G04 #@! TA.AperFunction,SMDPad,CuDef*
%ADD24RoundRect,0.140000X0.170000X-0.140000X0.170000X0.140000X-0.170000X0.140000X-0.170000X-0.140000X0*%
G04 #@! TD*
G04 #@! TA.AperFunction,SMDPad,CuDef*
%ADD25RoundRect,0.218750X-0.218750X-0.256250X0.218750X-0.256250X0.218750X0.256250X-0.218750X0.256250X0*%
G04 #@! TD*
G04 #@! TA.AperFunction,SMDPad,CuDef*
%ADD26RoundRect,0.150000X-0.150000X-0.425000X0.150000X-0.425000X0.150000X0.425000X-0.150000X0.425000X0*%
G04 #@! TD*
G04 #@! TA.AperFunction,SMDPad,CuDef*
%ADD27RoundRect,0.075000X-0.075000X-0.500000X0.075000X-0.500000X0.075000X0.500000X-0.075000X0.500000X0*%
G04 #@! TD*
G04 #@! TA.AperFunction,HeatsinkPad*
%ADD28O,1.000000X1.800000*%
G04 #@! TD*
G04 #@! TA.AperFunction,HeatsinkPad*
%ADD29O,1.000000X2.100000*%
G04 #@! TD*
G04 #@! TA.AperFunction,SMDPad,CuDef*
%ADD30RoundRect,0.087500X0.087500X-0.437500X0.087500X0.437500X-0.087500X0.437500X-0.087500X-0.437500X0*%
G04 #@! TD*
G04 #@! TA.AperFunction,SMDPad,CuDef*
%ADD31RoundRect,0.087500X0.437500X-0.087500X0.437500X0.087500X-0.437500X0.087500X-0.437500X-0.087500X0*%
G04 #@! TD*
G04 #@! TA.AperFunction,HeatsinkPad*
%ADD32R,2.700000X2.700000*%
G04 #@! TD*
G04 #@! TA.AperFunction,SMDPad,CuDef*
%ADD33RoundRect,0.250000X-0.250000X-0.475000X0.250000X-0.475000X0.250000X0.475000X-0.250000X0.475000X0*%
G04 #@! TD*
G04 #@! TA.AperFunction,ViaPad*
%ADD34C,0.600000*%
G04 #@! TD*
G04 #@! TA.AperFunction,ViaPad*
%ADD35C,0.500000*%
G04 #@! TD*
G04 #@! TA.AperFunction,ViaPad*
%ADD36C,1.000000*%
G04 #@! TD*
G04 #@! TA.AperFunction,ViaPad*
%ADD37C,1.500000*%
G04 #@! TD*
G04 #@! TA.AperFunction,Conductor*
%ADD38C,0.300000*%
G04 #@! TD*
G04 #@! TA.AperFunction,Conductor*
%ADD39C,0.500000*%
G04 #@! TD*
G04 #@! TA.AperFunction,Conductor*
%ADD40C,1.000000*%
G04 #@! TD*
G04 #@! TA.AperFunction,Conductor*
%ADD41C,0.165000*%
G04 #@! TD*
G04 APERTURE END LIST*
D10*
X104100000Y-111550000D03*
D11*
X104100000Y-107500000D03*
D10*
X95900000Y-111550000D03*
D11*
X95900000Y-107500000D03*
D12*
X93650000Y-100440000D03*
D13*
X93650000Y-102980000D03*
X93650000Y-105520000D03*
X93650000Y-108060000D03*
D12*
X106350000Y-108060000D03*
D13*
X106350000Y-105520000D03*
X106350000Y-102980000D03*
X106350000Y-100440000D03*
D14*
X90000000Y-79412500D03*
X90000000Y-77587500D03*
D15*
X96000000Y-86490000D03*
X96000000Y-87510000D03*
D16*
X92770000Y-97750000D03*
X93730000Y-97750000D03*
D17*
X107000000Y-92750000D03*
D15*
X105500000Y-94490000D03*
X105500000Y-95510000D03*
D18*
X102730000Y-94500000D03*
X101770000Y-94500000D03*
D19*
X102500000Y-81510000D03*
X102500000Y-80490000D03*
D20*
X99962500Y-80650000D03*
D21*
X100500000Y-80575000D03*
D20*
X101037500Y-80650000D03*
X101037500Y-82350000D03*
D21*
X100500000Y-82425000D03*
D20*
X99962500Y-82350000D03*
D22*
X97250000Y-113000000D03*
X97250000Y-113960000D03*
D19*
X98000000Y-81510000D03*
X98000000Y-80490000D03*
D23*
X92500000Y-79450000D03*
X92500000Y-77550000D03*
D24*
X104500000Y-94155000D03*
X104500000Y-93195000D03*
D17*
X94000000Y-89500000D03*
D18*
X102980000Y-85500000D03*
X102020000Y-85500000D03*
D17*
X107000000Y-90500000D03*
X105250000Y-88250000D03*
D25*
X104712500Y-80000000D03*
X106287500Y-80000000D03*
D26*
X96800000Y-77380000D03*
X97600000Y-77380000D03*
D27*
X98750000Y-77380000D03*
X99750000Y-77380000D03*
X100250000Y-77380000D03*
X101250000Y-77380000D03*
D26*
X102400000Y-77380000D03*
X103200000Y-77380000D03*
X103200000Y-77380000D03*
X102400000Y-77380000D03*
D27*
X101750000Y-77380000D03*
X100750000Y-77380000D03*
X99250000Y-77380000D03*
X98250000Y-77380000D03*
D26*
X97600000Y-77380000D03*
X96800000Y-77380000D03*
D28*
X95680000Y-72625000D03*
D29*
X95680000Y-76805000D03*
D28*
X104320000Y-72625000D03*
D29*
X104320000Y-76805000D03*
D30*
X101700000Y-92325000D03*
X100900000Y-92325000D03*
X100100000Y-92325000D03*
X99300000Y-92325000D03*
D31*
X98175000Y-91200000D03*
X98175000Y-90400000D03*
X98175000Y-89600000D03*
X98175000Y-88800000D03*
D30*
X99300000Y-87675000D03*
X100100000Y-87675000D03*
X100900000Y-87675000D03*
X101700000Y-87675000D03*
D31*
X102825000Y-88800000D03*
X102825000Y-89600000D03*
X102825000Y-90400000D03*
X102825000Y-91200000D03*
D32*
X100500000Y-90000000D03*
D19*
X96250000Y-93760000D03*
X96250000Y-92740000D03*
D33*
X104550000Y-82000000D03*
X106450000Y-82000000D03*
D22*
X96000000Y-88520000D03*
X96000000Y-89480000D03*
D34*
X100000000Y-103000000D03*
D35*
X90500000Y-70500000D03*
X88000000Y-77500000D03*
X109500000Y-70500000D03*
X88000000Y-75500000D03*
X109500000Y-77500000D03*
X100000000Y-74500000D03*
X100000000Y-70500000D03*
X90250000Y-75000000D03*
X102750000Y-93800000D03*
X100000000Y-95000000D03*
X90500000Y-114500000D03*
X111750000Y-94500000D03*
X95000000Y-80500000D03*
X105750000Y-90500000D03*
X114500000Y-100000000D03*
X110000000Y-110000000D03*
X91000000Y-109250000D03*
D34*
X96800000Y-78400000D03*
D35*
X110000000Y-79500000D03*
X97000000Y-95000000D03*
X114500000Y-95000000D03*
X103800000Y-94150000D03*
X85500000Y-95000000D03*
X90000000Y-100000000D03*
X107500000Y-79500000D03*
X114500000Y-82500000D03*
X110000000Y-94500000D03*
X97250000Y-112300000D03*
X95000000Y-104500000D03*
X102200000Y-82200000D03*
X104500000Y-100000000D03*
X97250000Y-81500000D03*
D36*
X103500000Y-82000000D03*
D35*
X91000000Y-105000000D03*
X110000000Y-100000000D03*
X105000000Y-114500000D03*
X103650000Y-85500000D03*
X85500000Y-79500000D03*
X93000000Y-114500000D03*
X85500000Y-109500000D03*
X114500000Y-79500000D03*
X90000000Y-91000000D03*
X99500000Y-79500000D03*
X85500000Y-90000000D03*
X85500000Y-105000000D03*
X85500000Y-85000000D03*
X90000000Y-95000000D03*
X104500000Y-103000000D03*
D37*
X92500000Y-81000000D03*
D35*
X96000000Y-85800000D03*
X95000000Y-85000000D03*
X113000000Y-90000000D03*
X95250000Y-88500000D03*
D37*
X90000000Y-81000000D03*
D35*
X100000000Y-100000000D03*
X114500000Y-105000000D03*
X92100000Y-97750000D03*
X114500000Y-109500000D03*
X100500000Y-80100000D03*
X105000000Y-85000000D03*
X85500000Y-100000000D03*
D34*
X103200000Y-78400000D03*
D35*
X109500000Y-114550000D03*
X110000000Y-105000000D03*
X112000000Y-96500000D03*
X98250000Y-114000000D03*
X113000000Y-91500000D03*
D34*
X97600000Y-78400000D03*
X102400000Y-78400000D03*
D35*
X100500000Y-82900000D03*
X100000000Y-114000000D03*
X100750000Y-114000000D03*
X99250000Y-114000000D03*
D34*
X97750000Y-103500000D03*
D38*
X98420000Y-105520000D02*
X98400000Y-105500000D01*
X98400000Y-105500000D02*
X100650000Y-107750000D01*
X106350000Y-105520000D02*
X98420000Y-105520000D01*
X97000000Y-104100000D02*
X98400000Y-105500000D01*
X100650000Y-113900000D02*
X100650000Y-107750000D01*
X100750000Y-114000000D02*
X100650000Y-113900000D01*
X108600000Y-99400000D02*
X108600000Y-105810000D01*
X108600000Y-105810000D02*
X106350000Y-108060000D01*
X106800000Y-97600000D02*
X108600000Y-99400000D01*
X100900000Y-96100000D02*
X102400000Y-97600000D01*
X102400000Y-97600000D02*
X106800000Y-97600000D01*
X100900000Y-92325000D02*
X100900000Y-96100000D01*
X106350000Y-105520000D02*
X105920000Y-105950000D01*
D39*
X97250000Y-113000000D02*
X97250000Y-112300000D01*
X102980000Y-85500000D02*
X103650000Y-85500000D01*
X102500000Y-81480000D02*
X102500000Y-81900000D01*
X103200000Y-77380000D02*
X103200000Y-78300000D01*
X92770000Y-97750000D02*
X92100000Y-97750000D01*
D38*
X100500000Y-80575000D02*
X100500000Y-80100000D01*
D39*
X102730000Y-93820000D02*
X102750000Y-93800000D01*
X96000000Y-86520000D02*
X96000000Y-85800000D01*
X96800000Y-77380000D02*
X96800000Y-78300000D01*
D40*
X92500000Y-79450000D02*
X92500000Y-81000000D01*
D39*
X103200000Y-78300000D02*
X103200000Y-78400000D01*
X103805000Y-94155000D02*
X103800000Y-94150000D01*
X96000000Y-88520000D02*
X95270000Y-88520000D01*
X95270000Y-88520000D02*
X95250000Y-88500000D01*
X97270000Y-81480000D02*
X97250000Y-81500000D01*
X98000000Y-81480000D02*
X97270000Y-81480000D01*
X102730000Y-94500000D02*
X102730000Y-93820000D01*
X102500000Y-81900000D02*
X102200000Y-82200000D01*
D40*
X104550000Y-82000000D02*
X103500000Y-82000000D01*
D39*
X104500000Y-94155000D02*
X103805000Y-94155000D01*
D40*
X90000000Y-79450000D02*
X90000000Y-81000000D01*
D39*
X96800000Y-78300000D02*
X96800000Y-78400000D01*
X106287500Y-80000000D02*
X106287500Y-81837500D01*
D38*
X101700000Y-94430000D02*
X101770000Y-94500000D01*
D39*
X111000000Y-82000000D02*
X106450000Y-82000000D01*
X102560318Y-95480000D02*
X101770000Y-94689682D01*
D38*
X112250000Y-95500000D02*
X112250000Y-96250000D01*
D39*
X114000000Y-93750000D02*
X114000000Y-85000000D01*
D38*
X112250000Y-96250000D02*
X112000000Y-96500000D01*
D39*
X114000000Y-85000000D02*
X111000000Y-82000000D01*
X101770000Y-94689682D02*
X101770000Y-94500000D01*
X105520000Y-95500000D02*
X105500000Y-95480000D01*
X106287500Y-81837500D02*
X106450000Y-82000000D01*
X112250000Y-95500000D02*
X105520000Y-95500000D01*
D38*
X101700000Y-92325000D02*
X101700000Y-94430000D01*
D39*
X112250000Y-95500000D02*
X114000000Y-93750000D01*
X105500000Y-95480000D02*
X102560318Y-95480000D01*
D38*
X101700000Y-87675000D02*
X101700000Y-85820000D01*
X101700000Y-85820000D02*
X102020000Y-85500000D01*
X105500000Y-93885001D02*
X104809999Y-93195000D01*
X104809999Y-93195000D02*
X104500000Y-93195000D01*
X105500000Y-94520000D02*
X105500000Y-93885001D01*
X104500000Y-93195000D02*
X104500000Y-92000000D01*
X103700000Y-91200000D02*
X102825000Y-91200000D01*
X104500000Y-92000000D02*
X103700000Y-91200000D01*
X93730000Y-97750000D02*
X93730000Y-91750000D01*
X97500000Y-113960000D02*
X94210000Y-113960000D01*
X93730000Y-100360000D02*
X93650000Y-100440000D01*
X97250000Y-113960000D02*
X98210000Y-113960000D01*
X90000000Y-104090000D02*
X93650000Y-100440000D01*
X94210000Y-113960000D02*
X90000000Y-109750000D01*
X98175000Y-89600000D02*
X96120000Y-89600000D01*
X96000000Y-89480000D02*
X93730000Y-91750000D01*
X90000000Y-109750000D02*
X90000000Y-104090000D01*
X96120000Y-89600000D02*
X96000000Y-89480000D01*
X93730000Y-97750000D02*
X93730000Y-100360000D01*
X98210000Y-113960000D02*
X98250000Y-114000000D01*
X108000000Y-91500000D02*
X113000000Y-91500000D01*
X107000000Y-90500000D02*
X106100000Y-89600000D01*
X106100000Y-89600000D02*
X102825000Y-89600000D01*
X107000000Y-90500000D02*
X108000000Y-91500000D01*
D39*
X102400000Y-77380000D02*
X102400000Y-78300000D01*
X102400000Y-78300000D02*
X102400000Y-78800000D01*
X102400000Y-78800000D02*
X103600000Y-80000000D01*
D38*
X100500000Y-82425000D02*
X100500000Y-82900000D01*
D39*
X97600000Y-77380000D02*
X97600000Y-78300000D01*
X97600000Y-78300000D02*
X97600000Y-78400000D01*
X103600000Y-80000000D02*
X104712500Y-80000000D01*
D41*
X99250000Y-77380000D02*
X99250000Y-77964074D01*
X99975574Y-78238500D02*
X100250000Y-77964074D01*
X99966500Y-79879017D02*
X100279017Y-79566500D01*
X100250000Y-77964074D02*
X100250000Y-77380000D01*
X99524426Y-78238500D02*
X99975574Y-78238500D01*
X100279017Y-79566500D02*
X100367500Y-79566500D01*
X100367500Y-79566500D02*
X100367500Y-78360001D01*
X99250000Y-77964074D02*
X99524426Y-78238500D01*
X99962500Y-80650000D02*
X99962500Y-80274999D01*
X99962500Y-80274999D02*
X99966500Y-80270999D01*
X100250000Y-78242501D02*
X100367500Y-78360001D01*
X99966500Y-80270999D02*
X99966500Y-79879017D01*
X100250000Y-77380000D02*
X100250000Y-78242501D01*
X100475574Y-76521500D02*
X100024426Y-76521500D01*
X100750000Y-77380000D02*
X100750000Y-76795926D01*
X101033500Y-80270999D02*
X101033500Y-79879017D01*
X101037500Y-80274999D02*
X101033500Y-80270999D01*
X101037500Y-80650000D02*
X101037500Y-80274999D01*
X100720983Y-79566500D02*
X100632500Y-79566500D01*
X100024426Y-76521500D02*
X99750000Y-76795926D01*
X100750000Y-78242501D02*
X100632500Y-78360001D01*
X99750000Y-76795926D02*
X99750000Y-77380000D01*
X100750000Y-76795926D02*
X100475574Y-76521500D01*
X101033500Y-79879017D02*
X100720983Y-79566500D01*
X100632500Y-79566500D02*
X100632500Y-78360001D01*
X100750000Y-77380000D02*
X100750000Y-78242501D01*
D38*
X98750000Y-79770000D02*
X98750000Y-77380000D01*
X98000000Y-80520000D02*
X98750000Y-79770000D01*
X101750000Y-79770000D02*
X102500000Y-80520000D01*
X101750000Y-77380000D02*
X101750000Y-79770000D01*
X97125000Y-105125000D02*
X97520000Y-105520000D01*
X96250000Y-104250000D02*
X97125000Y-105125000D01*
X94980000Y-105520000D02*
X96250000Y-104250000D01*
X97520000Y-105520000D02*
X100000000Y-108000000D01*
X93650000Y-105520000D02*
X94980000Y-105520000D01*
X96250000Y-93730000D02*
X96250000Y-104250000D01*
X100000000Y-114000000D02*
X100000000Y-108000000D01*
X99300000Y-93700000D02*
X97000000Y-96000000D01*
X97000000Y-96000000D02*
X97000000Y-104100000D01*
X99300000Y-92325000D02*
X99300000Y-93700000D01*
X96500000Y-109500000D02*
X92500000Y-109500000D01*
X91750000Y-108750000D02*
X91750000Y-104880000D01*
X99250000Y-114000000D02*
X99250000Y-112250000D01*
X99250000Y-112250000D02*
X96500000Y-109500000D01*
X91750000Y-104880000D02*
X93650000Y-102980000D01*
X96500000Y-90400000D02*
X98175000Y-90400000D01*
X93650000Y-102980000D02*
X95500000Y-101130000D01*
X95500000Y-101130000D02*
X95500000Y-91400000D01*
X95500000Y-91400000D02*
X96500000Y-90400000D01*
X92500000Y-109500000D02*
X91750000Y-108750000D01*
X97750000Y-96250000D02*
X97750000Y-103500000D01*
X100100000Y-92325000D02*
X100100000Y-93900000D01*
X100100000Y-93900000D02*
X97750000Y-96250000D01*
X95020000Y-87480000D02*
X96000000Y-87480000D01*
X94000000Y-89500000D02*
X94000000Y-88500000D01*
X97320000Y-88800000D02*
X96000000Y-87480000D01*
X94000000Y-88500000D02*
X95020000Y-87480000D01*
X98175000Y-88800000D02*
X97320000Y-88800000D01*
X96250000Y-91750000D02*
X96250000Y-92770000D01*
X96800000Y-91200000D02*
X96250000Y-91750000D01*
X98175000Y-91200000D02*
X96800000Y-91200000D01*
X102825000Y-88800000D02*
X104700000Y-88800000D01*
X104700000Y-88800000D02*
X105250000Y-88250000D01*
X102825000Y-90400000D02*
X104650000Y-90400000D01*
X104650000Y-90400000D02*
X107000000Y-92750000D01*
D41*
X101037500Y-82350000D02*
X101037500Y-82725001D01*
X100720983Y-83433500D02*
X100632500Y-83433500D01*
X101033500Y-82729001D02*
X101033500Y-83120983D01*
X101037500Y-82725001D02*
X101033500Y-82729001D01*
X100632500Y-86619999D02*
X100900000Y-86887499D01*
X100900000Y-86887499D02*
X100900000Y-87675000D01*
X101033500Y-83120983D02*
X100720983Y-83433500D01*
X100632500Y-83433500D02*
X100632500Y-86619999D01*
X100100000Y-87675000D02*
X100100000Y-86887499D01*
X99966500Y-82729001D02*
X99966500Y-83120983D01*
X100367500Y-83433500D02*
X100367500Y-86619999D01*
X99962500Y-82350000D02*
X99962500Y-82725001D01*
X99966500Y-83120983D02*
X100279017Y-83433500D01*
X100279017Y-83433500D02*
X100367500Y-83433500D01*
X100100000Y-86887499D02*
X100367500Y-86619999D01*
X99962500Y-82725001D02*
X99966500Y-82729001D01*
G04 #@! TA.AperFunction,Conductor*
G36*
X109611536Y-70214460D02*
G01*
X109702424Y-70289050D01*
X109710949Y-70297575D01*
X109827626Y-70439747D01*
X109834324Y-70449771D01*
X109921024Y-70611974D01*
X109925638Y-70623113D01*
X109979026Y-70799113D01*
X109981378Y-70810937D01*
X109999704Y-70996994D01*
X110000000Y-71003022D01*
X110000000Y-76996977D01*
X109999704Y-77003005D01*
X109981378Y-77189062D01*
X109979026Y-77200886D01*
X109925638Y-77376886D01*
X109921024Y-77388025D01*
X109834324Y-77550228D01*
X109827626Y-77560252D01*
X109710949Y-77702424D01*
X109702424Y-77710949D01*
X109560252Y-77827626D01*
X109550228Y-77834324D01*
X109388025Y-77921024D01*
X109376886Y-77925638D01*
X109200886Y-77979026D01*
X109189062Y-77981378D01*
X109003005Y-77999704D01*
X108996977Y-78000000D01*
X104856576Y-78000000D01*
X104850548Y-77999704D01*
X104693062Y-77984192D01*
X104681238Y-77981840D01*
X104532708Y-77936784D01*
X104521569Y-77932170D01*
X104384686Y-77859004D01*
X104374662Y-77852306D01*
X104254682Y-77753842D01*
X104246157Y-77745317D01*
X104147693Y-77625337D01*
X104140995Y-77615313D01*
X104067829Y-77478430D01*
X104063215Y-77467291D01*
X104018159Y-77318761D01*
X104015807Y-77306937D01*
X104000296Y-77149452D01*
X104000000Y-77143424D01*
X104000000Y-76250000D01*
X103000000Y-75250000D01*
X102585786Y-75250000D01*
X97414214Y-75250000D01*
X97000000Y-75250000D01*
X96000000Y-76250000D01*
X96000000Y-77143424D01*
X95999704Y-77149452D01*
X95984192Y-77306937D01*
X95981840Y-77318761D01*
X95936784Y-77467291D01*
X95932170Y-77478430D01*
X95859004Y-77615313D01*
X95852306Y-77625337D01*
X95753842Y-77745317D01*
X95745317Y-77753842D01*
X95625337Y-77852306D01*
X95615313Y-77859004D01*
X95478430Y-77932170D01*
X95467291Y-77936784D01*
X95318761Y-77981840D01*
X95306937Y-77984192D01*
X95149452Y-77999704D01*
X95143424Y-78000000D01*
X88503023Y-78000000D01*
X88496995Y-77999704D01*
X88310937Y-77981378D01*
X88299113Y-77979026D01*
X88123113Y-77925638D01*
X88111974Y-77921024D01*
X87949771Y-77834324D01*
X87939747Y-77827626D01*
X87797575Y-77710949D01*
X87789050Y-77702424D01*
X87672373Y-77560252D01*
X87665675Y-77550228D01*
X87578975Y-77388025D01*
X87574362Y-77376890D01*
X87520972Y-77200884D01*
X87518621Y-77189062D01*
X87500296Y-77003005D01*
X87500000Y-76996977D01*
X87500000Y-75940522D01*
X87500296Y-75934494D01*
X87517420Y-75760630D01*
X87519772Y-75748806D01*
X87569607Y-75584522D01*
X87574214Y-75573398D01*
X87655142Y-75421992D01*
X87661840Y-75411970D01*
X87770747Y-75279265D01*
X87779265Y-75270747D01*
X87911971Y-75161839D01*
X87921994Y-75155142D01*
X88073398Y-75074214D01*
X88084522Y-75069607D01*
X88248810Y-75019771D01*
X88260626Y-75017420D01*
X88434495Y-75000296D01*
X88440523Y-75000000D01*
X89375000Y-75000000D01*
X90000000Y-74375000D01*
X90000000Y-71003022D01*
X90000296Y-70996994D01*
X90018621Y-70810937D01*
X90020973Y-70799113D01*
X90074364Y-70623105D01*
X90078971Y-70611981D01*
X90165675Y-70449769D01*
X90172373Y-70439747D01*
X90289053Y-70297571D01*
X90297571Y-70289053D01*
X90388464Y-70214459D01*
X90427479Y-70200500D01*
X109572521Y-70200500D01*
X109611536Y-70214460D01*
G37*
G04 #@! TD.AperFunction*
M02*
