G04 #@! TF.GenerationSoftware,KiCad,Pcbnew,9.0.4*
G04 #@! TF.CreationDate,2025-09-08T01:23:01+09:00*
G04 #@! TF.ProjectId,561SmartCard-USB,35363153-6d61-4727-9443-6172642d5553,rev?*
G04 #@! TF.SameCoordinates,Original*
G04 #@! TF.FileFunction,Copper,L3,Inr*
G04 #@! TF.FilePolarity,Positive*
%FSLAX46Y46*%
G04 Gerber Fmt 4.6, Leading zero omitted, Abs format (unit mm)*
G04 Created by KiCad (PCBNEW 9.0.4) date 2025-09-08 01:23:01*
%MOMM*%
%LPD*%
G01*
G04 APERTURE LIST*
G04 #@! TA.AperFunction,ComponentPad*
%ADD10O,1.100000X2.800000*%
G04 #@! TD*
G04 #@! TA.AperFunction,ComponentPad*
%ADD11O,1.100000X2.400000*%
G04 #@! TD*
G04 #@! TA.AperFunction,ComponentPad*
%ADD12R,1.700000X1.700000*%
G04 #@! TD*
G04 #@! TA.AperFunction,ComponentPad*
%ADD13C,1.700000*%
G04 #@! TD*
G04 #@! TA.AperFunction,HeatsinkPad*
%ADD14O,1.000000X1.800000*%
G04 #@! TD*
G04 #@! TA.AperFunction,HeatsinkPad*
%ADD15O,1.000000X2.100000*%
G04 #@! TD*
G04 #@! TA.AperFunction,HeatsinkPad*
%ADD16R,2.700000X2.700000*%
G04 #@! TD*
G04 #@! TA.AperFunction,ViaPad*
%ADD17C,0.600000*%
G04 #@! TD*
G04 #@! TA.AperFunction,ViaPad*
%ADD18C,0.500000*%
G04 #@! TD*
G04 #@! TA.AperFunction,ViaPad*
%ADD19C,1.000000*%
G04 #@! TD*
G04 #@! TA.AperFunction,ViaPad*
%ADD20C,1.500000*%
G04 #@! TD*
G04 APERTURE END LIST*
D10*
X104100000Y-111550000D03*
D11*
X104100000Y-107500000D03*
D10*
X95900000Y-111550000D03*
D11*
X95900000Y-107500000D03*
D12*
X93650000Y-100440000D03*
D13*
X93650000Y-102980000D03*
X93650000Y-105520000D03*
X93650000Y-108060000D03*
D12*
X106350000Y-108060000D03*
D13*
X106350000Y-105520000D03*
X106350000Y-102980000D03*
X106350000Y-100440000D03*
D14*
X95680000Y-72625000D03*
D15*
X95680000Y-76805000D03*
D14*
X104320000Y-72625000D03*
D15*
X104320000Y-76805000D03*
D16*
X100500000Y-90000000D03*
D17*
X100000000Y-103000000D03*
D18*
X90500000Y-70500000D03*
X88000000Y-77500000D03*
X109500000Y-70500000D03*
X88000000Y-75500000D03*
X109500000Y-77500000D03*
X100000000Y-74500000D03*
X100000000Y-70500000D03*
X90250000Y-75000000D03*
X102750000Y-93800000D03*
X100000000Y-95000000D03*
X90500000Y-114500000D03*
X111750000Y-94500000D03*
X95000000Y-80500000D03*
X105750000Y-90500000D03*
X114500000Y-100000000D03*
X110000000Y-110000000D03*
X91000000Y-109250000D03*
D17*
X96800000Y-78400000D03*
D18*
X110000000Y-79500000D03*
X97000000Y-95000000D03*
X114500000Y-95000000D03*
X103800000Y-94150000D03*
X85500000Y-95000000D03*
X90000000Y-100000000D03*
X107500000Y-79500000D03*
X114500000Y-82500000D03*
X110000000Y-94500000D03*
X97250000Y-112300000D03*
X95000000Y-104500000D03*
X102200000Y-82200000D03*
X104500000Y-100000000D03*
X97250000Y-81500000D03*
D19*
X103500000Y-82000000D03*
D18*
X91000000Y-105000000D03*
X110000000Y-100000000D03*
X105000000Y-114500000D03*
X103650000Y-85500000D03*
X85500000Y-79500000D03*
X93000000Y-114500000D03*
X85500000Y-109500000D03*
X114500000Y-79500000D03*
X90000000Y-91000000D03*
X99500000Y-79500000D03*
X85500000Y-90000000D03*
X85500000Y-105000000D03*
X85500000Y-85000000D03*
X90000000Y-95000000D03*
X104500000Y-103000000D03*
D20*
X92500000Y-81000000D03*
D18*
X96000000Y-85800000D03*
X95000000Y-85000000D03*
X113000000Y-90000000D03*
X95250000Y-88500000D03*
D20*
X90000000Y-81000000D03*
D18*
X100000000Y-100000000D03*
X114500000Y-105000000D03*
X92100000Y-97750000D03*
X114500000Y-109500000D03*
X100500000Y-80100000D03*
X105000000Y-85000000D03*
X85500000Y-100000000D03*
D17*
X103200000Y-78400000D03*
D18*
X109500000Y-114550000D03*
X110000000Y-105000000D03*
X112000000Y-96500000D03*
X98250000Y-114000000D03*
X113000000Y-91500000D03*
D17*
X97600000Y-78400000D03*
X102400000Y-78400000D03*
D18*
X100500000Y-82900000D03*
X100000000Y-114000000D03*
X100750000Y-114000000D03*
X99250000Y-114000000D03*
D17*
X97750000Y-103500000D03*
G04 #@! TA.AperFunction,Conductor*
G36*
X109611536Y-70214460D02*
G01*
X109702424Y-70289050D01*
X109710949Y-70297575D01*
X109827626Y-70439747D01*
X109834324Y-70449771D01*
X109921024Y-70611974D01*
X109925638Y-70623113D01*
X109979026Y-70799113D01*
X109981378Y-70810937D01*
X109999704Y-70996994D01*
X110000000Y-71003022D01*
X110000000Y-76996977D01*
X109999704Y-77003005D01*
X109981378Y-77189062D01*
X109979026Y-77200886D01*
X109925638Y-77376886D01*
X109921024Y-77388025D01*
X109834324Y-77550228D01*
X109827626Y-77560252D01*
X109710949Y-77702424D01*
X109702424Y-77710949D01*
X109560252Y-77827626D01*
X109550228Y-77834324D01*
X109388025Y-77921024D01*
X109376886Y-77925638D01*
X109200886Y-77979026D01*
X109189062Y-77981378D01*
X109003005Y-77999704D01*
X108996977Y-78000000D01*
X104856576Y-78000000D01*
X104850548Y-77999704D01*
X104693062Y-77984192D01*
X104681238Y-77981840D01*
X104532708Y-77936784D01*
X104521569Y-77932170D01*
X104384686Y-77859004D01*
X104374662Y-77852306D01*
X104254682Y-77753842D01*
X104246157Y-77745317D01*
X104147693Y-77625337D01*
X104140995Y-77615313D01*
X104067829Y-77478430D01*
X104063215Y-77467291D01*
X104018159Y-77318761D01*
X104015807Y-77306937D01*
X104000296Y-77149452D01*
X104000000Y-77143424D01*
X104000000Y-76250000D01*
X103000000Y-75250000D01*
X102585786Y-75250000D01*
X97414214Y-75250000D01*
X97000000Y-75250000D01*
X96000000Y-76250000D01*
X96000000Y-77143424D01*
X95999704Y-77149452D01*
X95984192Y-77306937D01*
X95981840Y-77318761D01*
X95936784Y-77467291D01*
X95932170Y-77478430D01*
X95859004Y-77615313D01*
X95852306Y-77625337D01*
X95753842Y-77745317D01*
X95745317Y-77753842D01*
X95625337Y-77852306D01*
X95615313Y-77859004D01*
X95478430Y-77932170D01*
X95467291Y-77936784D01*
X95318761Y-77981840D01*
X95306937Y-77984192D01*
X95149452Y-77999704D01*
X95143424Y-78000000D01*
X88503023Y-78000000D01*
X88496995Y-77999704D01*
X88310937Y-77981378D01*
X88299113Y-77979026D01*
X88123113Y-77925638D01*
X88111974Y-77921024D01*
X87949771Y-77834324D01*
X87939747Y-77827626D01*
X87797575Y-77710949D01*
X87789050Y-77702424D01*
X87672373Y-77560252D01*
X87665675Y-77550228D01*
X87578975Y-77388025D01*
X87574362Y-77376890D01*
X87520972Y-77200884D01*
X87518621Y-77189062D01*
X87500296Y-77003005D01*
X87500000Y-76996977D01*
X87500000Y-75940522D01*
X87500296Y-75934494D01*
X87517420Y-75760630D01*
X87519772Y-75748806D01*
X87569607Y-75584522D01*
X87574214Y-75573398D01*
X87655142Y-75421992D01*
X87661840Y-75411970D01*
X87770747Y-75279265D01*
X87779265Y-75270747D01*
X87911971Y-75161839D01*
X87921994Y-75155142D01*
X88073398Y-75074214D01*
X88084522Y-75069607D01*
X88248810Y-75019771D01*
X88260626Y-75017420D01*
X88434495Y-75000296D01*
X88440523Y-75000000D01*
X89375000Y-75000000D01*
X90000000Y-74375000D01*
X90000000Y-71003022D01*
X90000296Y-70996994D01*
X90018621Y-70810937D01*
X90020973Y-70799113D01*
X90074364Y-70623105D01*
X90078971Y-70611981D01*
X90165675Y-70449769D01*
X90172373Y-70439747D01*
X90289053Y-70297571D01*
X90297571Y-70289053D01*
X90388464Y-70214459D01*
X90427479Y-70200500D01*
X109572521Y-70200500D01*
X109611536Y-70214460D01*
G37*
G04 #@! TD.AperFunction*
G04 #@! TA.AperFunction,Conductor*
G36*
X102338790Y-76250296D02*
G01*
X102349831Y-76251383D01*
X102409028Y-76257213D01*
X102450540Y-76279401D01*
X102464500Y-76318417D01*
X102464500Y-76361020D01*
X102493495Y-76469232D01*
X102493496Y-76469234D01*
X102493497Y-76469237D01*
X102549515Y-76566263D01*
X102628737Y-76645485D01*
X102725763Y-76701503D01*
X102725767Y-76701504D01*
X102833980Y-76730500D01*
X102833982Y-76730500D01*
X102946019Y-76730500D01*
X102982091Y-76720834D01*
X103054237Y-76701503D01*
X103106732Y-76671194D01*
X103122648Y-76669098D01*
X103137481Y-76662955D01*
X103145157Y-76666134D01*
X103153397Y-76665050D01*
X103180968Y-76680968D01*
X103204971Y-76704971D01*
X103209024Y-76709443D01*
X103327626Y-76853960D01*
X103334324Y-76863984D01*
X103421024Y-77026187D01*
X103425638Y-77037326D01*
X103479026Y-77213326D01*
X103481378Y-77225150D01*
X103499704Y-77411208D01*
X103500000Y-77417236D01*
X103500000Y-78000000D01*
X104500000Y-79000000D01*
X113996977Y-79000000D01*
X114003005Y-79000296D01*
X114189064Y-79018621D01*
X114200884Y-79020972D01*
X114376890Y-79074362D01*
X114388022Y-79078973D01*
X114469126Y-79122325D01*
X114550228Y-79165675D01*
X114560252Y-79172373D01*
X114702424Y-79289050D01*
X114710946Y-79297571D01*
X114785541Y-79388465D01*
X114799500Y-79427478D01*
X114799500Y-109572520D01*
X114785540Y-109611535D01*
X114710949Y-109702424D01*
X114702424Y-109710949D01*
X114560252Y-109827626D01*
X114550228Y-109834324D01*
X114388025Y-109921024D01*
X114376886Y-109925638D01*
X114200886Y-109979026D01*
X114189062Y-109981378D01*
X114003005Y-109999704D01*
X113996977Y-110000000D01*
X111250000Y-110000000D01*
X110000000Y-111250000D01*
X110000000Y-113996977D01*
X109999704Y-114003005D01*
X109981378Y-114189062D01*
X109979026Y-114200886D01*
X109925638Y-114376886D01*
X109921024Y-114388025D01*
X109834324Y-114550228D01*
X109827626Y-114560252D01*
X109710949Y-114702424D01*
X109702425Y-114710949D01*
X109672884Y-114735192D01*
X109611535Y-114785540D01*
X109572521Y-114799500D01*
X90427479Y-114799500D01*
X90388464Y-114785540D01*
X90297575Y-114710949D01*
X90289050Y-114702424D01*
X90172373Y-114560252D01*
X90165675Y-114550228D01*
X90078975Y-114388025D01*
X90074362Y-114376890D01*
X90020972Y-114200884D01*
X90018621Y-114189062D01*
X90000296Y-114003005D01*
X90000000Y-113996977D01*
X90000000Y-113934104D01*
X97749500Y-113934104D01*
X97749500Y-114065895D01*
X97783605Y-114193179D01*
X97783607Y-114193183D01*
X97783608Y-114193186D01*
X97849500Y-114307314D01*
X97942686Y-114400500D01*
X98056814Y-114466392D01*
X98056818Y-114466393D01*
X98056820Y-114466394D01*
X98184104Y-114500499D01*
X98184106Y-114500500D01*
X98184108Y-114500500D01*
X98315894Y-114500500D01*
X98315894Y-114500499D01*
X98443186Y-114466392D01*
X98557314Y-114400500D01*
X98650500Y-114307314D01*
X98696739Y-114227224D01*
X98734083Y-114198571D01*
X98780750Y-114204714D01*
X98803259Y-114227223D01*
X98849500Y-114307314D01*
X98942686Y-114400500D01*
X99056814Y-114466392D01*
X99056818Y-114466393D01*
X99056820Y-114466394D01*
X99184104Y-114500499D01*
X99184106Y-114500500D01*
X99184108Y-114500500D01*
X99315894Y-114500500D01*
X99315894Y-114500499D01*
X99443186Y-114466392D01*
X99557314Y-114400500D01*
X99581513Y-114376301D01*
X99625000Y-114358288D01*
X99668487Y-114376301D01*
X99692686Y-114400500D01*
X99806814Y-114466392D01*
X99806818Y-114466393D01*
X99806820Y-114466394D01*
X99934104Y-114500499D01*
X99934106Y-114500500D01*
X99934108Y-114500500D01*
X100065894Y-114500500D01*
X100065894Y-114500499D01*
X100193186Y-114466392D01*
X100307314Y-114400500D01*
X100331513Y-114376301D01*
X100375000Y-114358288D01*
X100418487Y-114376301D01*
X100442686Y-114400500D01*
X100556814Y-114466392D01*
X100556818Y-114466393D01*
X100556820Y-114466394D01*
X100684104Y-114500499D01*
X100684106Y-114500500D01*
X100684108Y-114500500D01*
X100815894Y-114500500D01*
X100815894Y-114500499D01*
X100943186Y-114466392D01*
X101057314Y-114400500D01*
X101150500Y-114307314D01*
X101216392Y-114193186D01*
X101250499Y-114065894D01*
X101250500Y-114065894D01*
X101250500Y-113934105D01*
X101250499Y-113934104D01*
X101216394Y-113806820D01*
X101216393Y-113806818D01*
X101216392Y-113806814D01*
X101150500Y-113692686D01*
X101057314Y-113599500D01*
X100943186Y-113533608D01*
X100943183Y-113533607D01*
X100943179Y-113533605D01*
X100815895Y-113499500D01*
X100815892Y-113499500D01*
X100684108Y-113499500D01*
X100684105Y-113499500D01*
X100556820Y-113533605D01*
X100556814Y-113533608D01*
X100442687Y-113599499D01*
X100442682Y-113599503D01*
X100418487Y-113623699D01*
X100375000Y-113641712D01*
X100331513Y-113623699D01*
X100307317Y-113599503D01*
X100307314Y-113599500D01*
X100193186Y-113533608D01*
X100193183Y-113533607D01*
X100193179Y-113533605D01*
X100065895Y-113499500D01*
X100065892Y-113499500D01*
X99934108Y-113499500D01*
X99934105Y-113499500D01*
X99806820Y-113533605D01*
X99806814Y-113533608D01*
X99692687Y-113599499D01*
X99692682Y-113599503D01*
X99668487Y-113623699D01*
X99625000Y-113641712D01*
X99581513Y-113623699D01*
X99557317Y-113599503D01*
X99557314Y-113599500D01*
X99443186Y-113533608D01*
X99443183Y-113533607D01*
X99443179Y-113533605D01*
X99315895Y-113499500D01*
X99315892Y-113499500D01*
X99184108Y-113499500D01*
X99184105Y-113499500D01*
X99056820Y-113533605D01*
X99056814Y-113533608D01*
X98942687Y-113599499D01*
X98942682Y-113599503D01*
X98849503Y-113692682D01*
X98849495Y-113692692D01*
X98803260Y-113772774D01*
X98765917Y-113801429D01*
X98719250Y-113795284D01*
X98696740Y-113772774D01*
X98650504Y-113692692D01*
X98650502Y-113692689D01*
X98650500Y-113692686D01*
X98557314Y-113599500D01*
X98443186Y-113533608D01*
X98443183Y-113533607D01*
X98443179Y-113533605D01*
X98315895Y-113499500D01*
X98315892Y-113499500D01*
X98184108Y-113499500D01*
X98184105Y-113499500D01*
X98056820Y-113533605D01*
X98056814Y-113533608D01*
X97942687Y-113599499D01*
X97942682Y-113599503D01*
X97849503Y-113692682D01*
X97849499Y-113692687D01*
X97783608Y-113806814D01*
X97783605Y-113806820D01*
X97749500Y-113934104D01*
X90000000Y-113934104D01*
X90000000Y-111250000D01*
X88750000Y-110000000D01*
X88335786Y-110000000D01*
X86003023Y-110000000D01*
X85996995Y-109999704D01*
X85810937Y-109981378D01*
X85799113Y-109979026D01*
X85623113Y-109925638D01*
X85611974Y-109921024D01*
X85449771Y-109834324D01*
X85439747Y-109827626D01*
X85297575Y-109710949D01*
X85289050Y-109702424D01*
X85214460Y-109611535D01*
X85200500Y-109572520D01*
X85200500Y-107973385D01*
X92549500Y-107973385D01*
X92549500Y-108146614D01*
X92576598Y-108317703D01*
X92630127Y-108482446D01*
X92708769Y-108636790D01*
X92810584Y-108776926D01*
X92810585Y-108776927D01*
X92810586Y-108776928D01*
X92933072Y-108899414D01*
X93073212Y-109001232D01*
X93227555Y-109079873D01*
X93392296Y-109133401D01*
X93392299Y-109133402D01*
X93563389Y-109160500D01*
X93563393Y-109160500D01*
X93736607Y-109160500D01*
X93736611Y-109160500D01*
X93907701Y-109133402D01*
X94072445Y-109079873D01*
X94226788Y-109001232D01*
X94366928Y-108899414D01*
X94489414Y-108776928D01*
X94591232Y-108636788D01*
X94669873Y-108482445D01*
X94723402Y-108317701D01*
X94750500Y-108146611D01*
X94750500Y-107973389D01*
X94723402Y-107802299D01*
X94669873Y-107637555D01*
X94591232Y-107483212D01*
X94489414Y-107343072D01*
X94366928Y-107220586D01*
X94366927Y-107220585D01*
X94366926Y-107220584D01*
X94318392Y-107185322D01*
X105249500Y-107185322D01*
X105249500Y-108934677D01*
X105264032Y-109007738D01*
X105291621Y-109049028D01*
X105319399Y-109090601D01*
X105381615Y-109132172D01*
X105402261Y-109145967D01*
X105460473Y-109157545D01*
X105475322Y-109160499D01*
X105475323Y-109160500D01*
X105475326Y-109160500D01*
X107224677Y-109160500D01*
X107224677Y-109160499D01*
X107253980Y-109154670D01*
X107297738Y-109145967D01*
X107297739Y-109145966D01*
X107297740Y-109145966D01*
X107380601Y-109090601D01*
X107435966Y-109007740D01*
X107435966Y-109007739D01*
X107435967Y-109007738D01*
X107450499Y-108934677D01*
X107450500Y-108934677D01*
X107450500Y-107185323D01*
X107450499Y-107185322D01*
X107435967Y-107112261D01*
X107422172Y-107091615D01*
X107380601Y-107029399D01*
X107316544Y-106986598D01*
X107297738Y-106974032D01*
X107224677Y-106959500D01*
X107224674Y-106959500D01*
X105475326Y-106959500D01*
X105475323Y-106959500D01*
X105402261Y-106974032D01*
X105319399Y-107029399D01*
X105264032Y-107112261D01*
X105249500Y-107185322D01*
X94318392Y-107185322D01*
X94226790Y-107118769D01*
X94072446Y-107040127D01*
X93907702Y-106986598D01*
X93907704Y-106986598D01*
X93736614Y-106959500D01*
X93736611Y-106959500D01*
X93563389Y-106959500D01*
X93563385Y-106959500D01*
X93392296Y-106986598D01*
X93227553Y-107040127D01*
X93073209Y-107118769D01*
X92933073Y-107220584D01*
X92933073Y-107220585D01*
X92933072Y-107220586D01*
X92810586Y-107343072D01*
X92810585Y-107343073D01*
X92810584Y-107343073D01*
X92708769Y-107483209D01*
X92630127Y-107637553D01*
X92576598Y-107802296D01*
X92549500Y-107973385D01*
X85200500Y-107973385D01*
X85200500Y-105433385D01*
X92549500Y-105433385D01*
X92549500Y-105606614D01*
X92576598Y-105777703D01*
X92630127Y-105942446D01*
X92708769Y-106096790D01*
X92810584Y-106236926D01*
X92810585Y-106236927D01*
X92810586Y-106236928D01*
X92933072Y-106359414D01*
X93073212Y-106461232D01*
X93227555Y-106539873D01*
X93392296Y-106593401D01*
X93392299Y-106593402D01*
X93563389Y-106620500D01*
X93563393Y-106620500D01*
X93736607Y-106620500D01*
X93736611Y-106620500D01*
X93907701Y-106593402D01*
X94072445Y-106539873D01*
X94226788Y-106461232D01*
X94366928Y-106359414D01*
X94489414Y-106236928D01*
X94591232Y-106096788D01*
X94669873Y-105942445D01*
X94723402Y-105777701D01*
X94750500Y-105606611D01*
X94750500Y-105433389D01*
X94750499Y-105433385D01*
X105249500Y-105433385D01*
X105249500Y-105606614D01*
X105276598Y-105777703D01*
X105330127Y-105942446D01*
X105408769Y-106096790D01*
X105510584Y-106236926D01*
X105510585Y-106236927D01*
X105510586Y-106236928D01*
X105633072Y-106359414D01*
X105773212Y-106461232D01*
X105927555Y-106539873D01*
X106092296Y-106593401D01*
X106092299Y-106593402D01*
X106263389Y-106620500D01*
X106263393Y-106620500D01*
X106436607Y-106620500D01*
X106436611Y-106620500D01*
X106607701Y-106593402D01*
X106772445Y-106539873D01*
X106926788Y-106461232D01*
X107066928Y-106359414D01*
X107189414Y-106236928D01*
X107291232Y-106096788D01*
X107369873Y-105942445D01*
X107423402Y-105777701D01*
X107450500Y-105606611D01*
X107450500Y-105433389D01*
X107423402Y-105262299D01*
X107369873Y-105097555D01*
X107291232Y-104943212D01*
X107189414Y-104803072D01*
X107066928Y-104680586D01*
X107066927Y-104680585D01*
X107066926Y-104680584D01*
X106926790Y-104578769D01*
X106772446Y-104500127D01*
X106607702Y-104446598D01*
X106607704Y-104446598D01*
X106436614Y-104419500D01*
X106436611Y-104419500D01*
X106263389Y-104419500D01*
X106263385Y-104419500D01*
X106092296Y-104446598D01*
X105927553Y-104500127D01*
X105773209Y-104578769D01*
X105633073Y-104680584D01*
X105633073Y-104680585D01*
X105633072Y-104680586D01*
X105510586Y-104803072D01*
X105510585Y-104803073D01*
X105510584Y-104803073D01*
X105408769Y-104943209D01*
X105330127Y-105097553D01*
X105276598Y-105262296D01*
X105249500Y-105433385D01*
X94750499Y-105433385D01*
X94723402Y-105262299D01*
X94669873Y-105097555D01*
X94591232Y-104943212D01*
X94489414Y-104803072D01*
X94366928Y-104680586D01*
X94366927Y-104680585D01*
X94366926Y-104680584D01*
X94226790Y-104578769D01*
X94072446Y-104500127D01*
X93907702Y-104446598D01*
X93907704Y-104446598D01*
X93736614Y-104419500D01*
X93736611Y-104419500D01*
X93563389Y-104419500D01*
X93563385Y-104419500D01*
X93392296Y-104446598D01*
X93227553Y-104500127D01*
X93073209Y-104578769D01*
X92933073Y-104680584D01*
X92933073Y-104680585D01*
X92933072Y-104680586D01*
X92810586Y-104803072D01*
X92810585Y-104803073D01*
X92810584Y-104803073D01*
X92708769Y-104943209D01*
X92630127Y-105097553D01*
X92576598Y-105262296D01*
X92549500Y-105433385D01*
X85200500Y-105433385D01*
X85200500Y-102893385D01*
X92549500Y-102893385D01*
X92549500Y-103066614D01*
X92576598Y-103237703D01*
X92630127Y-103402446D01*
X92708769Y-103556790D01*
X92810584Y-103696926D01*
X92810585Y-103696927D01*
X92810586Y-103696928D01*
X92933072Y-103819414D01*
X93073212Y-103921232D01*
X93227555Y-103999873D01*
X93392296Y-104053401D01*
X93392299Y-104053402D01*
X93563389Y-104080500D01*
X93563393Y-104080500D01*
X93736607Y-104080500D01*
X93736611Y-104080500D01*
X93907701Y-104053402D01*
X94072445Y-103999873D01*
X94226788Y-103921232D01*
X94366928Y-103819414D01*
X94489414Y-103696928D01*
X94591232Y-103556788D01*
X94657096Y-103427522D01*
X97199500Y-103427522D01*
X97199500Y-103572477D01*
X97237014Y-103712480D01*
X97237015Y-103712482D01*
X97237016Y-103712485D01*
X97309491Y-103838015D01*
X97411985Y-103940509D01*
X97537515Y-104012984D01*
X97537519Y-104012985D01*
X97677523Y-104050500D01*
X97677525Y-104050500D01*
X97822476Y-104050500D01*
X97884206Y-104033958D01*
X97962485Y-104012984D01*
X98088015Y-103940509D01*
X98190509Y-103838015D01*
X98262984Y-103712485D01*
X98277540Y-103658158D01*
X98300500Y-103572477D01*
X98300500Y-103427522D01*
X98262985Y-103287519D01*
X98262984Y-103287515D01*
X98190509Y-103161985D01*
X98088015Y-103059491D01*
X97962485Y-102987016D01*
X97962482Y-102987015D01*
X97962480Y-102987014D01*
X97825750Y-102950377D01*
X97822477Y-102949500D01*
X97822475Y-102949500D01*
X97677525Y-102949500D01*
X97677523Y-102949500D01*
X97537519Y-102987014D01*
X97537515Y-102987016D01*
X97411986Y-103059490D01*
X97411981Y-103059494D01*
X97309494Y-103161981D01*
X97309490Y-103161986D01*
X97237016Y-103287515D01*
X97237014Y-103287519D01*
X97199500Y-103427522D01*
X94657096Y-103427522D01*
X94669873Y-103402445D01*
X94723402Y-103237701D01*
X94750500Y-103066611D01*
X94750500Y-102893389D01*
X94750499Y-102893385D01*
X105249500Y-102893385D01*
X105249500Y-103066614D01*
X105276598Y-103237703D01*
X105330127Y-103402446D01*
X105408769Y-103556790D01*
X105510584Y-103696926D01*
X105510585Y-103696927D01*
X105510586Y-103696928D01*
X105633072Y-103819414D01*
X105773212Y-103921232D01*
X105927555Y-103999873D01*
X106092296Y-104053401D01*
X106092299Y-104053402D01*
X106263389Y-104080500D01*
X106263393Y-104080500D01*
X106436607Y-104080500D01*
X106436611Y-104080500D01*
X106607701Y-104053402D01*
X106772445Y-103999873D01*
X106926788Y-103921232D01*
X107066928Y-103819414D01*
X107189414Y-103696928D01*
X107291232Y-103556788D01*
X107369873Y-103402445D01*
X107423402Y-103237701D01*
X107450500Y-103066611D01*
X107450500Y-102893389D01*
X107423402Y-102722299D01*
X107369873Y-102557555D01*
X107291232Y-102403212D01*
X107189414Y-102263072D01*
X107066928Y-102140586D01*
X107066927Y-102140585D01*
X107066926Y-102140584D01*
X106926790Y-102038769D01*
X106772446Y-101960127D01*
X106607702Y-101906598D01*
X106607704Y-101906598D01*
X106436614Y-101879500D01*
X106436611Y-101879500D01*
X106263389Y-101879500D01*
X106263385Y-101879500D01*
X106092296Y-101906598D01*
X105927553Y-101960127D01*
X105773209Y-102038769D01*
X105633073Y-102140584D01*
X105633073Y-102140585D01*
X105633072Y-102140586D01*
X105510586Y-102263072D01*
X105510585Y-102263073D01*
X105510584Y-102263073D01*
X105408769Y-102403209D01*
X105330127Y-102557553D01*
X105276598Y-102722296D01*
X105249500Y-102893385D01*
X94750499Y-102893385D01*
X94723402Y-102722299D01*
X94669873Y-102557555D01*
X94591232Y-102403212D01*
X94489414Y-102263072D01*
X94366928Y-102140586D01*
X94366927Y-102140585D01*
X94366926Y-102140584D01*
X94226790Y-102038769D01*
X94072446Y-101960127D01*
X93907702Y-101906598D01*
X93907704Y-101906598D01*
X93736614Y-101879500D01*
X93736611Y-101879500D01*
X93563389Y-101879500D01*
X93563385Y-101879500D01*
X93392296Y-101906598D01*
X93227553Y-101960127D01*
X93073209Y-102038769D01*
X92933073Y-102140584D01*
X92933073Y-102140585D01*
X92933072Y-102140586D01*
X92810586Y-102263072D01*
X92810585Y-102263073D01*
X92810584Y-102263073D01*
X92708769Y-102403209D01*
X92630127Y-102557553D01*
X92576598Y-102722296D01*
X92549500Y-102893385D01*
X85200500Y-102893385D01*
X85200500Y-99565322D01*
X92549500Y-99565322D01*
X92549500Y-101314677D01*
X92564032Y-101387738D01*
X92591621Y-101429028D01*
X92619399Y-101470601D01*
X92681615Y-101512172D01*
X92702261Y-101525967D01*
X92760473Y-101537545D01*
X92775322Y-101540499D01*
X92775323Y-101540500D01*
X92775326Y-101540500D01*
X94524677Y-101540500D01*
X94524677Y-101540499D01*
X94553980Y-101534670D01*
X94597738Y-101525967D01*
X94597739Y-101525966D01*
X94597740Y-101525966D01*
X94680601Y-101470601D01*
X94735966Y-101387740D01*
X94735966Y-101387739D01*
X94735967Y-101387738D01*
X94750499Y-101314677D01*
X94750500Y-101314677D01*
X94750500Y-99565323D01*
X94750499Y-99565322D01*
X94735967Y-99492261D01*
X94722172Y-99471615D01*
X94680601Y-99409399D01*
X94639028Y-99381621D01*
X94597738Y-99354032D01*
X94524677Y-99339500D01*
X94524674Y-99339500D01*
X92775326Y-99339500D01*
X92775323Y-99339500D01*
X92702261Y-99354032D01*
X92619399Y-99409399D01*
X92564032Y-99492261D01*
X92549500Y-99565322D01*
X85200500Y-99565322D01*
X85200500Y-96434104D01*
X111499500Y-96434104D01*
X111499500Y-96565895D01*
X111533605Y-96693179D01*
X111533607Y-96693183D01*
X111533608Y-96693186D01*
X111599500Y-96807314D01*
X111692686Y-96900500D01*
X111806814Y-96966392D01*
X111806818Y-96966393D01*
X111806820Y-96966394D01*
X111934104Y-97000499D01*
X111934106Y-97000500D01*
X111934108Y-97000500D01*
X112065894Y-97000500D01*
X112065894Y-97000499D01*
X112193186Y-96966392D01*
X112307314Y-96900500D01*
X112400500Y-96807314D01*
X112466392Y-96693186D01*
X112500499Y-96565894D01*
X112500500Y-96565894D01*
X112500500Y-96434105D01*
X112500499Y-96434104D01*
X112466394Y-96306820D01*
X112466393Y-96306818D01*
X112466392Y-96306814D01*
X112400500Y-96192686D01*
X112307314Y-96099500D01*
X112193186Y-96033608D01*
X112193183Y-96033607D01*
X112193179Y-96033605D01*
X112065895Y-95999500D01*
X112065892Y-95999500D01*
X111934108Y-95999500D01*
X111934105Y-95999500D01*
X111806820Y-96033605D01*
X111806814Y-96033608D01*
X111692687Y-96099499D01*
X111692682Y-96099503D01*
X111599503Y-96192682D01*
X111599499Y-96192687D01*
X111533608Y-96306814D01*
X111533605Y-96306820D01*
X111499500Y-96434104D01*
X85200500Y-96434104D01*
X85200500Y-91434104D01*
X112499500Y-91434104D01*
X112499500Y-91565895D01*
X112533605Y-91693179D01*
X112533607Y-91693183D01*
X112533608Y-91693186D01*
X112599500Y-91807314D01*
X112692686Y-91900500D01*
X112806814Y-91966392D01*
X112806818Y-91966393D01*
X112806820Y-91966394D01*
X112934104Y-92000499D01*
X112934106Y-92000500D01*
X112934108Y-92000500D01*
X113065894Y-92000500D01*
X113065894Y-92000499D01*
X113193186Y-91966392D01*
X113307314Y-91900500D01*
X113400500Y-91807314D01*
X113466392Y-91693186D01*
X113500499Y-91565894D01*
X113500500Y-91565894D01*
X113500500Y-91434105D01*
X113500499Y-91434104D01*
X113466394Y-91306820D01*
X113466393Y-91306818D01*
X113466392Y-91306814D01*
X113400500Y-91192686D01*
X113307314Y-91099500D01*
X113193186Y-91033608D01*
X113193183Y-91033607D01*
X113193179Y-91033605D01*
X113065895Y-90999500D01*
X113065892Y-90999500D01*
X112934108Y-90999500D01*
X112934105Y-90999500D01*
X112806820Y-91033605D01*
X112806814Y-91033608D01*
X112692687Y-91099499D01*
X112692682Y-91099503D01*
X112599503Y-91192682D01*
X112599499Y-91192687D01*
X112533608Y-91306814D01*
X112533605Y-91306820D01*
X112499500Y-91434104D01*
X85200500Y-91434104D01*
X85200500Y-86888537D01*
X88299500Y-86888537D01*
X88299500Y-87111462D01*
X88328597Y-87332470D01*
X88386288Y-87547775D01*
X88386290Y-87547781D01*
X88471595Y-87753726D01*
X88583052Y-87946774D01*
X88718753Y-88123624D01*
X88876376Y-88281247D01*
X89053226Y-88416948D01*
X89246274Y-88528405D01*
X89452219Y-88613710D01*
X89603567Y-88654263D01*
X89667529Y-88671402D01*
X89667530Y-88671402D01*
X89667537Y-88671404D01*
X89888543Y-88700500D01*
X89888546Y-88700500D01*
X90111454Y-88700500D01*
X90111457Y-88700500D01*
X90332463Y-88671404D01*
X90547781Y-88613710D01*
X90753726Y-88528405D01*
X90946774Y-88416948D01*
X91123624Y-88281247D01*
X91281247Y-88123624D01*
X91416948Y-87946774D01*
X91528405Y-87753726D01*
X91613710Y-87547781D01*
X91671404Y-87332463D01*
X91700500Y-87111457D01*
X91700500Y-86888543D01*
X91700499Y-86888537D01*
X108299500Y-86888537D01*
X108299500Y-87111462D01*
X108328597Y-87332470D01*
X108386288Y-87547775D01*
X108386290Y-87547781D01*
X108471595Y-87753726D01*
X108583052Y-87946774D01*
X108718753Y-88123624D01*
X108876376Y-88281247D01*
X109053226Y-88416948D01*
X109246274Y-88528405D01*
X109452219Y-88613710D01*
X109603567Y-88654263D01*
X109667529Y-88671402D01*
X109667530Y-88671402D01*
X109667537Y-88671404D01*
X109888543Y-88700500D01*
X109888546Y-88700500D01*
X110111454Y-88700500D01*
X110111457Y-88700500D01*
X110332463Y-88671404D01*
X110547781Y-88613710D01*
X110753726Y-88528405D01*
X110946774Y-88416948D01*
X111123624Y-88281247D01*
X111281247Y-88123624D01*
X111416948Y-87946774D01*
X111528405Y-87753726D01*
X111613710Y-87547781D01*
X111671404Y-87332463D01*
X111700500Y-87111457D01*
X111700500Y-86888543D01*
X111671404Y-86667537D01*
X111613710Y-86452219D01*
X111528405Y-86246274D01*
X111416948Y-86053226D01*
X111281247Y-85876376D01*
X111123624Y-85718753D01*
X111123622Y-85718751D01*
X110946773Y-85583051D01*
X110850250Y-85527323D01*
X110753726Y-85471595D01*
X110547781Y-85386290D01*
X110547775Y-85386288D01*
X110332470Y-85328597D01*
X110332463Y-85328596D01*
X110308940Y-85325499D01*
X110111462Y-85299500D01*
X110111457Y-85299500D01*
X109888543Y-85299500D01*
X109888537Y-85299500D01*
X109667529Y-85328597D01*
X109452224Y-85386288D01*
X109452218Y-85386290D01*
X109246272Y-85471596D01*
X109053226Y-85583051D01*
X108876377Y-85718751D01*
X108718751Y-85876377D01*
X108583051Y-86053226D01*
X108471596Y-86246272D01*
X108386290Y-86452218D01*
X108386288Y-86452224D01*
X108328597Y-86667529D01*
X108299500Y-86888537D01*
X91700499Y-86888537D01*
X91671404Y-86667537D01*
X91613710Y-86452219D01*
X91528405Y-86246274D01*
X91416948Y-86053226D01*
X91281247Y-85876376D01*
X91123624Y-85718753D01*
X91123622Y-85718751D01*
X90946773Y-85583051D01*
X90850250Y-85527323D01*
X90753726Y-85471595D01*
X90547781Y-85386290D01*
X90547775Y-85386288D01*
X90332470Y-85328597D01*
X90332463Y-85328596D01*
X90308940Y-85325499D01*
X90111462Y-85299500D01*
X90111457Y-85299500D01*
X89888543Y-85299500D01*
X89888537Y-85299500D01*
X89667529Y-85328597D01*
X89452224Y-85386288D01*
X89452218Y-85386290D01*
X89246272Y-85471596D01*
X89053226Y-85583051D01*
X88876377Y-85718751D01*
X88718751Y-85876377D01*
X88583051Y-86053226D01*
X88471596Y-86246272D01*
X88386290Y-86452218D01*
X88386288Y-86452224D01*
X88328597Y-86667529D01*
X88299500Y-86888537D01*
X85200500Y-86888537D01*
X85200500Y-82834104D01*
X99999500Y-82834104D01*
X99999500Y-82965895D01*
X100033605Y-83093179D01*
X100033607Y-83093183D01*
X100033608Y-83093186D01*
X100099500Y-83207314D01*
X100192686Y-83300500D01*
X100306814Y-83366392D01*
X100306818Y-83366393D01*
X100306820Y-83366394D01*
X100434104Y-83400499D01*
X100434106Y-83400500D01*
X100434108Y-83400500D01*
X100565894Y-83400500D01*
X100565894Y-83400499D01*
X100693186Y-83366392D01*
X100807314Y-83300500D01*
X100900500Y-83207314D01*
X100966392Y-83093186D01*
X101000499Y-82965894D01*
X101000500Y-82965894D01*
X101000500Y-82834105D01*
X101000499Y-82834104D01*
X100966394Y-82706820D01*
X100966393Y-82706818D01*
X100966392Y-82706814D01*
X100900500Y-82592686D01*
X100807314Y-82499500D01*
X100693186Y-82433608D01*
X100693183Y-82433607D01*
X100693179Y-82433605D01*
X100565895Y-82399500D01*
X100565892Y-82399500D01*
X100434108Y-82399500D01*
X100434105Y-82399500D01*
X100306820Y-82433605D01*
X100306814Y-82433608D01*
X100192687Y-82499499D01*
X100192682Y-82499503D01*
X100099503Y-82592682D01*
X100099499Y-82592687D01*
X100033608Y-82706814D01*
X100033605Y-82706820D01*
X99999500Y-82834104D01*
X85200500Y-82834104D01*
X85200500Y-79427478D01*
X85214459Y-79388464D01*
X85289053Y-79297571D01*
X85297571Y-79289053D01*
X85439748Y-79172371D01*
X85449771Y-79165675D01*
X85611981Y-79078971D01*
X85623105Y-79074364D01*
X85799117Y-79020972D01*
X85810933Y-79018621D01*
X85996995Y-79000296D01*
X86003023Y-79000000D01*
X95500000Y-79000000D01*
X96172478Y-78327522D01*
X97049500Y-78327522D01*
X97049500Y-78472477D01*
X97087014Y-78612480D01*
X97087015Y-78612482D01*
X97087016Y-78612485D01*
X97159491Y-78738015D01*
X97261985Y-78840509D01*
X97387515Y-78912984D01*
X97387519Y-78912985D01*
X97527523Y-78950500D01*
X97527525Y-78950500D01*
X97672476Y-78950500D01*
X97734206Y-78933958D01*
X97812485Y-78912984D01*
X97938015Y-78840509D01*
X98040509Y-78738015D01*
X98112984Y-78612485D01*
X98127540Y-78558158D01*
X98150500Y-78472477D01*
X98150500Y-78327522D01*
X101849500Y-78327522D01*
X101849500Y-78472477D01*
X101887014Y-78612480D01*
X101887015Y-78612482D01*
X101887016Y-78612485D01*
X101959491Y-78738015D01*
X102061985Y-78840509D01*
X102187515Y-78912984D01*
X102187519Y-78912985D01*
X102327523Y-78950500D01*
X102327525Y-78950500D01*
X102472476Y-78950500D01*
X102534206Y-78933958D01*
X102612485Y-78912984D01*
X102738015Y-78840509D01*
X102840509Y-78738015D01*
X102912984Y-78612485D01*
X102927540Y-78558158D01*
X102950500Y-78472477D01*
X102950500Y-78327522D01*
X102912985Y-78187519D01*
X102912984Y-78187515D01*
X102840509Y-78061985D01*
X102738015Y-77959491D01*
X102612485Y-77887016D01*
X102612482Y-77887015D01*
X102612480Y-77887014D01*
X102472477Y-77849500D01*
X102472475Y-77849500D01*
X102327525Y-77849500D01*
X102327523Y-77849500D01*
X102187519Y-77887014D01*
X102187515Y-77887016D01*
X102061986Y-77959490D01*
X102061981Y-77959494D01*
X101959494Y-78061981D01*
X101959490Y-78061986D01*
X101887016Y-78187515D01*
X101887014Y-78187519D01*
X101849500Y-78327522D01*
X98150500Y-78327522D01*
X98112985Y-78187519D01*
X98112984Y-78187515D01*
X98040509Y-78061985D01*
X97938015Y-77959491D01*
X97812485Y-77887016D01*
X97812482Y-77887015D01*
X97812480Y-77887014D01*
X97672477Y-77849500D01*
X97672475Y-77849500D01*
X97527525Y-77849500D01*
X97527523Y-77849500D01*
X97387519Y-77887014D01*
X97387515Y-77887016D01*
X97261986Y-77959490D01*
X97261981Y-77959494D01*
X97159494Y-78061981D01*
X97159490Y-78061986D01*
X97087016Y-78187515D01*
X97087014Y-78187519D01*
X97049500Y-78327522D01*
X96172478Y-78327522D01*
X96500000Y-78000000D01*
X96500000Y-77417236D01*
X96500296Y-77411208D01*
X96518621Y-77225150D01*
X96520973Y-77213326D01*
X96574364Y-77037318D01*
X96578971Y-77026194D01*
X96665675Y-76863982D01*
X96672373Y-76853960D01*
X96790984Y-76709432D01*
X96795018Y-76704981D01*
X96819032Y-76680967D01*
X96862518Y-76662955D01*
X96893268Y-76671195D01*
X96945757Y-76701500D01*
X96945759Y-76701501D01*
X96945763Y-76701503D01*
X96945767Y-76701504D01*
X97053980Y-76730500D01*
X97053982Y-76730500D01*
X97166019Y-76730500D01*
X97244645Y-76709432D01*
X97274237Y-76701503D01*
X97371263Y-76645485D01*
X97450485Y-76566263D01*
X97506503Y-76469237D01*
X97517754Y-76427246D01*
X97535500Y-76361020D01*
X97535500Y-76318417D01*
X97543437Y-76299255D01*
X97549460Y-76279401D01*
X97552286Y-76277890D01*
X97553513Y-76274930D01*
X97590971Y-76257213D01*
X97650168Y-76251383D01*
X97661210Y-76250296D01*
X97667237Y-76250000D01*
X102332763Y-76250000D01*
X102338790Y-76250296D01*
G37*
G04 #@! TD.AperFunction*
M02*
