G04 #@! TF.GenerationSoftware,KiCad,Pcbnew,9.0.4*
G04 #@! TF.CreationDate,2025-09-08T01:23:02+09:00*
G04 #@! TF.ProjectId,561SmartCard-USB,35363153-6d61-4727-9443-6172642d5553,rev?*
G04 #@! TF.SameCoordinates,Original*
G04 #@! TF.FileFunction,Paste,Bot*
G04 #@! TF.FilePolarity,Positive*
%FSLAX46Y46*%
G04 Gerber Fmt 4.6, Leading zero omitted, Abs format (unit mm)*
G04 Created by KiCad (PCBNEW 9.0.4) date 2025-09-08 01:23:02*
%MOMM*%
%LPD*%
G01*
G04 APERTURE LIST*
G04 Aperture macros list*
%AMRoundRect*
0 Rectangle with rounded corners*
0 $1 Rounding radius*
0 $2 $3 $4 $5 $6 $7 $8 $9 X,Y pos of 4 corners*
0 Add a 4 corners polygon primitive as box body*
4,1,4,$2,$3,$4,$5,$6,$7,$8,$9,$2,$3,0*
0 Add four circle primitives for the rounded corners*
1,1,$1+$1,$2,$3*
1,1,$1+$1,$4,$5*
1,1,$1+$1,$6,$7*
1,1,$1+$1,$8,$9*
0 Add four rect primitives between the rounded corners*
20,1,$1+$1,$2,$3,$4,$5,0*
20,1,$1+$1,$4,$5,$6,$7,0*
20,1,$1+$1,$6,$7,$8,$9,0*
20,1,$1+$1,$8,$9,$2,$3,0*%
G04 Aperture macros list end*
%ADD10RoundRect,0.250000X0.450000X-0.262500X0.450000X0.262500X-0.450000X0.262500X-0.450000X-0.262500X0*%
%ADD11RoundRect,0.135000X-0.185000X0.135000X-0.185000X-0.135000X0.185000X-0.135000X0.185000X0.135000X0*%
%ADD12RoundRect,0.140000X-0.140000X-0.170000X0.140000X-0.170000X0.140000X0.170000X-0.140000X0.170000X0*%
%ADD13RoundRect,0.140000X0.140000X0.170000X-0.140000X0.170000X-0.140000X-0.170000X0.140000X-0.170000X0*%
%ADD14RoundRect,0.135000X0.185000X-0.135000X0.185000X0.135000X-0.185000X0.135000X-0.185000X-0.135000X0*%
%ADD15RoundRect,0.093750X-0.093750X0.156250X-0.093750X-0.156250X0.093750X-0.156250X0.093750X0.156250X0*%
%ADD16RoundRect,0.075000X-0.075000X0.250000X-0.075000X-0.250000X0.075000X-0.250000X0.075000X0.250000X0*%
%ADD17RoundRect,0.140000X-0.170000X0.140000X-0.170000X-0.140000X0.170000X-0.140000X0.170000X0.140000X0*%
%ADD18RoundRect,0.250000X0.475000X-0.250000X0.475000X0.250000X-0.475000X0.250000X-0.475000X-0.250000X0*%
%ADD19RoundRect,0.140000X0.170000X-0.140000X0.170000X0.140000X-0.170000X0.140000X-0.170000X-0.140000X0*%
%ADD20RoundRect,0.218750X-0.218750X-0.256250X0.218750X-0.256250X0.218750X0.256250X-0.218750X0.256250X0*%
%ADD21RoundRect,0.150000X-0.150000X-0.425000X0.150000X-0.425000X0.150000X0.425000X-0.150000X0.425000X0*%
%ADD22RoundRect,0.075000X-0.075000X-0.500000X0.075000X-0.500000X0.075000X0.500000X-0.075000X0.500000X0*%
%ADD23O,1.000000X1.800000*%
%ADD24O,1.000000X2.100000*%
%ADD25RoundRect,0.087500X0.087500X-0.437500X0.087500X0.437500X-0.087500X0.437500X-0.087500X-0.437500X0*%
%ADD26RoundRect,0.087500X0.437500X-0.087500X0.437500X0.087500X-0.437500X0.087500X-0.437500X-0.087500X0*%
%ADD27R,2.700000X2.700000*%
%ADD28RoundRect,0.250000X-0.250000X-0.475000X0.250000X-0.475000X0.250000X0.475000X-0.250000X0.475000X0*%
G04 APERTURE END LIST*
D10*
X90000000Y-79412500D03*
X90000000Y-77587500D03*
D11*
X96000000Y-86490000D03*
X96000000Y-87510000D03*
D12*
X92770000Y-97750000D03*
X93730000Y-97750000D03*
D11*
X105500000Y-94490000D03*
X105500000Y-95510000D03*
D13*
X102730000Y-94500000D03*
X101770000Y-94500000D03*
D14*
X102500000Y-81510000D03*
X102500000Y-80490000D03*
D15*
X99962500Y-80650000D03*
D16*
X100500000Y-80575000D03*
D15*
X101037500Y-80650000D03*
X101037500Y-82350000D03*
D16*
X100500000Y-82425000D03*
D15*
X99962500Y-82350000D03*
D17*
X97250000Y-113000000D03*
X97250000Y-113960000D03*
D14*
X98000000Y-81510000D03*
X98000000Y-80490000D03*
D18*
X92500000Y-79450000D03*
X92500000Y-77550000D03*
D19*
X104500000Y-94155000D03*
X104500000Y-93195000D03*
D13*
X102980000Y-85500000D03*
X102020000Y-85500000D03*
D20*
X104712500Y-80000000D03*
X106287500Y-80000000D03*
D21*
X96800000Y-77380000D03*
X97600000Y-77380000D03*
D22*
X98750000Y-77380000D03*
X99750000Y-77380000D03*
X100250000Y-77380000D03*
X101250000Y-77380000D03*
D21*
X102400000Y-77380000D03*
X103200000Y-77380000D03*
X103200000Y-77380000D03*
X102400000Y-77380000D03*
D22*
X101750000Y-77380000D03*
X100750000Y-77380000D03*
X99250000Y-77380000D03*
X98250000Y-77380000D03*
D21*
X97600000Y-77380000D03*
X96800000Y-77380000D03*
D23*
X95680000Y-72625000D03*
D24*
X95680000Y-76805000D03*
D23*
X104320000Y-72625000D03*
D24*
X104320000Y-76805000D03*
D25*
X101700000Y-92325000D03*
X100900000Y-92325000D03*
X100100000Y-92325000D03*
X99300000Y-92325000D03*
D26*
X98175000Y-91200000D03*
X98175000Y-90400000D03*
X98175000Y-89600000D03*
X98175000Y-88800000D03*
D25*
X99300000Y-87675000D03*
X100100000Y-87675000D03*
X100900000Y-87675000D03*
X101700000Y-87675000D03*
D26*
X102825000Y-88800000D03*
X102825000Y-89600000D03*
X102825000Y-90400000D03*
X102825000Y-91200000D03*
D27*
X100500000Y-90000000D03*
D14*
X96250000Y-93760000D03*
X96250000Y-92740000D03*
D28*
X104550000Y-82000000D03*
X106450000Y-82000000D03*
D17*
X96000000Y-88520000D03*
X96000000Y-89480000D03*
M02*
