G04 #@! TF.GenerationSoftware,KiCad,Pcbnew,9.0.4*
G04 #@! TF.CreationDate,2025-09-08T01:23:02+09:00*
G04 #@! TF.ProjectId,561SmartCard-USB,35363153-6d61-4727-9443-6172642d5553,rev?*
G04 #@! TF.SameCoordinates,Original*
G04 #@! TF.FileFunction,Soldermask,Top*
G04 #@! TF.FilePolarity,Negative*
%FSLAX46Y46*%
G04 Gerber Fmt 4.6, Leading zero omitted, Abs format (unit mm)*
G04 Created by KiCad (PCBNEW 9.0.4) date 2025-09-08 01:23:02*
%MOMM*%
%LPD*%
G01*
G04 APERTURE LIST*
G04 Aperture macros list*
%AMRoundRect*
0 Rectangle with rounded corners*
0 $1 Rounding radius*
0 $2 $3 $4 $5 $6 $7 $8 $9 X,Y pos of 4 corners*
0 Add a 4 corners polygon primitive as box body*
4,1,4,$2,$3,$4,$5,$6,$7,$8,$9,$2,$3,0*
0 Add four circle primitives for the rounded corners*
1,1,$1+$1,$2,$3*
1,1,$1+$1,$4,$5*
1,1,$1+$1,$6,$7*
1,1,$1+$1,$8,$9*
0 Add four rect primitives between the rounded corners*
20,1,$1+$1,$2,$3,$4,$5,0*
20,1,$1+$1,$4,$5,$6,$7,0*
20,1,$1+$1,$6,$7,$8,$9,0*
20,1,$1+$1,$8,$9,$2,$3,0*%
G04 Aperture macros list end*
%ADD10C,2.200000*%
%ADD11C,3.200000*%
%ADD12R,0.350000X3.250000*%
%ADD13O,1.100000X2.800000*%
%ADD14O,1.100000X2.400000*%
%ADD15RoundRect,0.135000X-0.185000X0.135000X-0.185000X-0.135000X0.185000X-0.135000X0.185000X0.135000X0*%
%ADD16R,1.700000X1.700000*%
%ADD17C,1.700000*%
%ADD18RoundRect,0.218750X-0.256250X0.218750X-0.256250X-0.218750X0.256250X-0.218750X0.256250X0.218750X0*%
%ADD19C,0.650000*%
%ADD20O,1.000000X1.800000*%
%ADD21O,1.000000X2.100000*%
%ADD22R,2.700000X2.700000*%
G04 APERTURE END LIST*
D10*
X112500000Y-112500000D03*
X87500000Y-72500000D03*
D11*
X110000000Y-87000000D03*
D10*
X87500000Y-112500000D03*
D12*
X98700000Y-112055000D03*
X99350000Y-112055000D03*
X100000000Y-112055000D03*
X100650000Y-112055000D03*
X101300000Y-112055000D03*
D13*
X104100000Y-111550000D03*
D14*
X104100000Y-107500000D03*
D13*
X95900000Y-111550000D03*
D14*
X95900000Y-107500000D03*
D10*
X112500000Y-72500000D03*
D11*
X90000000Y-87000000D03*
D15*
X113000000Y-95990000D03*
X113000000Y-97010000D03*
D16*
X93650000Y-100440000D03*
D17*
X93650000Y-102980000D03*
X93650000Y-105520000D03*
X93650000Y-108060000D03*
D16*
X106350000Y-108060000D03*
D17*
X106350000Y-105520000D03*
X106350000Y-102980000D03*
X106350000Y-100440000D03*
D18*
X113000000Y-92712500D03*
X113000000Y-94287500D03*
D19*
X97110000Y-76305000D03*
X102890000Y-76305000D03*
D20*
X95680000Y-72625000D03*
D21*
X95680000Y-76805000D03*
D20*
X104320000Y-72625000D03*
D21*
X104320000Y-76805000D03*
D22*
X100500000Y-90000000D03*
G36*
X102055942Y-88251182D02*
G01*
X102114538Y-88262837D01*
X102136708Y-88272020D01*
X102181250Y-88301782D01*
X102198217Y-88318749D01*
X102227979Y-88363291D01*
X102237162Y-88385460D01*
X102248818Y-88444056D01*
X102250000Y-88456055D01*
X102250000Y-91543944D01*
X102248818Y-91555943D01*
X102237162Y-91614539D01*
X102227979Y-91636708D01*
X102198217Y-91681250D01*
X102181250Y-91698217D01*
X102136708Y-91727979D01*
X102114539Y-91737162D01*
X102055943Y-91748818D01*
X102043944Y-91750000D01*
X98956056Y-91750000D01*
X98944058Y-91748818D01*
X98885461Y-91737162D01*
X98863291Y-91727979D01*
X98818749Y-91698217D01*
X98801782Y-91681250D01*
X98772020Y-91636708D01*
X98762837Y-91614538D01*
X98751182Y-91555942D01*
X98750000Y-91543944D01*
X98750000Y-88456055D01*
X98751182Y-88444057D01*
X98762837Y-88385461D01*
X98772020Y-88363291D01*
X98801782Y-88318749D01*
X98818749Y-88301782D01*
X98863291Y-88272020D01*
X98885462Y-88262837D01*
X98944059Y-88251182D01*
X98956056Y-88250000D01*
X102043944Y-88250000D01*
X102055942Y-88251182D01*
G37*
M02*
