%TF.GenerationSoftware,KiCad,Pcbnew,9.0.4*%
%TF.CreationDate,2025-09-08T01:23:05+09:00*%
%TF.ProjectId,561SmartCard-USB,35363153-6d61-4727-9443-6172642d5553,rev?*%
%TF.SameCoordinates,Original*%
%TF.FileFunction,Drillmap*%
%TF.FilePolarity,Positive*%
%FSLAX45Y45*%
G04 Gerber Fmt 4.5, Leading zero omitted, Abs format (unit mm)*
G04 Created by KiCad (PCBNEW 9.0.4) date 2025-09-08 01:23:05*
%MOMM*%
%LPD*%
G01*
G04 APERTURE LIST*
%ADD10C,0.050000*%
%ADD11C,0.200000*%
%ADD12C,0.100000*%
%ADD13C,0.180000*%
G04 APERTURE END LIST*
D10*
X8500000Y-7000000D02*
X11500000Y-7000000D01*
X11500000Y-11500000D01*
X8500000Y-11500000D01*
X8500000Y-7000000D01*
D11*
D12*
X8535000Y-7935000D02*
X8565000Y-7965000D01*
X8565000Y-7935000D02*
X8535000Y-7965000D01*
X8535000Y-8485000D02*
X8565000Y-8515000D01*
X8565000Y-8485000D02*
X8535000Y-8515000D01*
X8535000Y-8985000D02*
X8565000Y-9015000D01*
X8565000Y-8985000D02*
X8535000Y-9015000D01*
X8535000Y-9485000D02*
X8565000Y-9515000D01*
X8565000Y-9485000D02*
X8535000Y-9515000D01*
X8535000Y-9985000D02*
X8565000Y-10015000D01*
X8565000Y-9985000D02*
X8535000Y-10015000D01*
X8535000Y-10485000D02*
X8565000Y-10515000D01*
X8565000Y-10485000D02*
X8535000Y-10515000D01*
X8535000Y-10935000D02*
X8565000Y-10965000D01*
X8565000Y-10935000D02*
X8535000Y-10965000D01*
X8785000Y-7535000D02*
X8815000Y-7565000D01*
X8815000Y-7535000D02*
X8785000Y-7565000D01*
X8785000Y-7735000D02*
X8815000Y-7765000D01*
X8815000Y-7735000D02*
X8785000Y-7765000D01*
X8985000Y-9085000D02*
X9015000Y-9115000D01*
X9015000Y-9085000D02*
X8985000Y-9115000D01*
X8985000Y-9485000D02*
X9015000Y-9515000D01*
X9015000Y-9485000D02*
X8985000Y-9515000D01*
X8985000Y-9985000D02*
X9015000Y-10015000D01*
X9015000Y-9985000D02*
X8985000Y-10015000D01*
X9010000Y-7485000D02*
X9040000Y-7515000D01*
X9040000Y-7485000D02*
X9010000Y-7515000D01*
X9035000Y-7035000D02*
X9065000Y-7065000D01*
X9065000Y-7035000D02*
X9035000Y-7065000D01*
X9035000Y-11435000D02*
X9065000Y-11465000D01*
X9065000Y-11435000D02*
X9035000Y-11465000D01*
X9085000Y-10485000D02*
X9115000Y-10515000D01*
X9115000Y-10485000D02*
X9085000Y-10515000D01*
X9085000Y-10910000D02*
X9115000Y-10940000D01*
X9115000Y-10910000D02*
X9085000Y-10940000D01*
X9195000Y-9760000D02*
X9225000Y-9790000D01*
X9225000Y-9760000D02*
X9195000Y-9790000D01*
X9285000Y-11435000D02*
X9315000Y-11465000D01*
X9315000Y-11435000D02*
X9285000Y-11465000D01*
X9485000Y-8035000D02*
X9515000Y-8065000D01*
X9515000Y-8035000D02*
X9485000Y-8065000D01*
X9485000Y-8485000D02*
X9515000Y-8515000D01*
X9515000Y-8485000D02*
X9485000Y-8515000D01*
X9485000Y-10435000D02*
X9515000Y-10465000D01*
X9515000Y-10435000D02*
X9485000Y-10465000D01*
X9510000Y-8835000D02*
X9540000Y-8865000D01*
X9540000Y-8835000D02*
X9510000Y-8865000D01*
X9585000Y-8565000D02*
X9615000Y-8595000D01*
X9615000Y-8565000D02*
X9585000Y-8595000D01*
X9665000Y-7825000D02*
X9695000Y-7855000D01*
X9695000Y-7825000D02*
X9665000Y-7855000D01*
X9685000Y-9485000D02*
X9715000Y-9515000D01*
X9715000Y-9485000D02*
X9685000Y-9515000D01*
X9710000Y-8135000D02*
X9740000Y-8165000D01*
X9740000Y-8135000D02*
X9710000Y-8165000D01*
X9710000Y-11215000D02*
X9740000Y-11245000D01*
X9740000Y-11215000D02*
X9710000Y-11245000D01*
X9745000Y-7825000D02*
X9775000Y-7855000D01*
X9775000Y-7825000D02*
X9745000Y-7855000D01*
X9760000Y-10335000D02*
X9790000Y-10365000D01*
X9790000Y-10335000D02*
X9760000Y-10365000D01*
X9810000Y-11385000D02*
X9840000Y-11415000D01*
X9840000Y-11385000D02*
X9810000Y-11415000D01*
X9910000Y-11385000D02*
X9940000Y-11415000D01*
X9940000Y-11385000D02*
X9910000Y-11415000D01*
X9935000Y-7935000D02*
X9965000Y-7965000D01*
X9965000Y-7935000D02*
X9935000Y-7965000D01*
X9985000Y-7035000D02*
X10015000Y-7065000D01*
X10015000Y-7035000D02*
X9985000Y-7065000D01*
X9985000Y-7435000D02*
X10015000Y-7465000D01*
X10015000Y-7435000D02*
X9985000Y-7465000D01*
X9985000Y-9485000D02*
X10015000Y-9515000D01*
X10015000Y-9485000D02*
X9985000Y-9515000D01*
X9985000Y-9985000D02*
X10015000Y-10015000D01*
X10015000Y-9985000D02*
X9985000Y-10015000D01*
X9985000Y-10285000D02*
X10015000Y-10315000D01*
X10015000Y-10285000D02*
X9985000Y-10315000D01*
X9985000Y-11385000D02*
X10015000Y-11415000D01*
X10015000Y-11385000D02*
X9985000Y-11415000D01*
X10035000Y-7995000D02*
X10065000Y-8025000D01*
X10065000Y-7995000D02*
X10035000Y-8025000D01*
X10035000Y-8275000D02*
X10065000Y-8305000D01*
X10065000Y-8275000D02*
X10035000Y-8305000D01*
X10060000Y-11385000D02*
X10090000Y-11415000D01*
X10090000Y-11385000D02*
X10060000Y-11415000D01*
X10205000Y-8205000D02*
X10235000Y-8235000D01*
X10235000Y-8205000D02*
X10205000Y-8235000D01*
X10225000Y-7825000D02*
X10255000Y-7855000D01*
X10255000Y-7825000D02*
X10225000Y-7855000D01*
X10260000Y-9365000D02*
X10290000Y-9395000D01*
X10290000Y-9365000D02*
X10260000Y-9395000D01*
X10305000Y-7825000D02*
X10335000Y-7855000D01*
X10335000Y-7825000D02*
X10305000Y-7855000D01*
X10350000Y-8535000D02*
X10380000Y-8565000D01*
X10380000Y-8535000D02*
X10350000Y-8565000D01*
X10365000Y-9400000D02*
X10395000Y-9430000D01*
X10395000Y-9400000D02*
X10365000Y-9430000D01*
X10435000Y-9985000D02*
X10465000Y-10015000D01*
X10465000Y-9985000D02*
X10435000Y-10015000D01*
X10435000Y-10285000D02*
X10465000Y-10315000D01*
X10465000Y-10285000D02*
X10435000Y-10315000D01*
X10485000Y-8485000D02*
X10515000Y-8515000D01*
X10515000Y-8485000D02*
X10485000Y-8515000D01*
X10485000Y-11435000D02*
X10515000Y-11465000D01*
X10515000Y-11435000D02*
X10485000Y-11465000D01*
X10560000Y-9035000D02*
X10590000Y-9065000D01*
X10590000Y-9035000D02*
X10560000Y-9065000D01*
X10735000Y-7935000D02*
X10765000Y-7965000D01*
X10765000Y-7935000D02*
X10735000Y-7965000D01*
X10935000Y-7035000D02*
X10965000Y-7065000D01*
X10965000Y-7035000D02*
X10935000Y-7065000D01*
X10935000Y-7735000D02*
X10965000Y-7765000D01*
X10965000Y-7735000D02*
X10935000Y-7765000D01*
X10935000Y-11440000D02*
X10965000Y-11470000D01*
X10965000Y-11440000D02*
X10935000Y-11470000D01*
X10985000Y-7935000D02*
X11015000Y-7965000D01*
X11015000Y-7935000D02*
X10985000Y-7965000D01*
X10985000Y-9435000D02*
X11015000Y-9465000D01*
X11015000Y-9435000D02*
X10985000Y-9465000D01*
X10985000Y-9985000D02*
X11015000Y-10015000D01*
X11015000Y-9985000D02*
X10985000Y-10015000D01*
X10985000Y-10485000D02*
X11015000Y-10515000D01*
X11015000Y-10485000D02*
X10985000Y-10515000D01*
X10985000Y-10985000D02*
X11015000Y-11015000D01*
X11015000Y-10985000D02*
X10985000Y-11015000D01*
X11160000Y-9435000D02*
X11190000Y-9465000D01*
X11190000Y-9435000D02*
X11160000Y-9465000D01*
X11185000Y-9635000D02*
X11215000Y-9665000D01*
X11215000Y-9635000D02*
X11185000Y-9665000D01*
X11285000Y-8985000D02*
X11315000Y-9015000D01*
X11315000Y-8985000D02*
X11285000Y-9015000D01*
X11285000Y-9135000D02*
X11315000Y-9165000D01*
X11315000Y-9135000D02*
X11285000Y-9165000D01*
X11435000Y-7935000D02*
X11465000Y-7965000D01*
X11465000Y-7935000D02*
X11435000Y-7965000D01*
X11435000Y-8235000D02*
X11465000Y-8265000D01*
X11465000Y-8235000D02*
X11435000Y-8265000D01*
X11435000Y-9485000D02*
X11465000Y-9515000D01*
X11465000Y-9485000D02*
X11435000Y-9515000D01*
X11435000Y-9985000D02*
X11465000Y-10015000D01*
X11465000Y-9985000D02*
X11435000Y-10015000D01*
X11435000Y-10485000D02*
X11465000Y-10515000D01*
X11465000Y-10485000D02*
X11435000Y-10515000D01*
X11435000Y-10935000D02*
X11465000Y-10965000D01*
X11465000Y-10935000D02*
X11435000Y-10965000D01*
X9615000Y-10750000D02*
G75*
G02*
X9565000Y-10750000I-25000J0D01*
G01*
X9565000Y-10750000D02*
G75*
G02*
X9615000Y-10750000I25000J0D01*
G01*
X9615000Y-10815000D02*
X9615000Y-10685000D01*
X9565000Y-10685000D02*
G75*
G02*
X9615000Y-10685000I25000J0D01*
G01*
X9565000Y-10685000D02*
X9565000Y-10815000D01*
X9565000Y-10815000D02*
G75*
G03*
X9615000Y-10815000I25000J0D01*
G01*
X9615000Y-11155000D02*
G75*
G02*
X9565000Y-11155000I-25000J0D01*
G01*
X9565000Y-11155000D02*
G75*
G02*
X9615000Y-11155000I25000J0D01*
G01*
X9615000Y-11240000D02*
X9615000Y-11070000D01*
X9565000Y-11070000D02*
G75*
G02*
X9615000Y-11070000I25000J0D01*
G01*
X9565000Y-11070000D02*
X9565000Y-11240000D01*
X9565000Y-11240000D02*
G75*
G03*
X9615000Y-11240000I25000J0D01*
G01*
X10435000Y-10750000D02*
G75*
G02*
X10385000Y-10750000I-25000J0D01*
G01*
X10385000Y-10750000D02*
G75*
G02*
X10435000Y-10750000I25000J0D01*
G01*
X10435000Y-10815000D02*
X10435000Y-10685000D01*
X10385000Y-10685000D02*
G75*
G02*
X10435000Y-10685000I25000J0D01*
G01*
X10385000Y-10685000D02*
X10385000Y-10815000D01*
X10385000Y-10815000D02*
G75*
G03*
X10435000Y-10815000I25000J0D01*
G01*
X10435000Y-11155000D02*
G75*
G02*
X10385000Y-11155000I-25000J0D01*
G01*
X10385000Y-11155000D02*
G75*
G02*
X10435000Y-11155000I25000J0D01*
G01*
X10435000Y-11240000D02*
X10435000Y-11070000D01*
X10385000Y-11070000D02*
G75*
G02*
X10435000Y-11070000I25000J0D01*
G01*
X10385000Y-11070000D02*
X10385000Y-11240000D01*
X10385000Y-11240000D02*
G75*
G03*
X10435000Y-11240000I25000J0D01*
G01*
X10350000Y-8170000D02*
X10350000Y-8230000D01*
X10320000Y-8200000D02*
X10380000Y-8200000D01*
X9589213Y-7283713D02*
X9589213Y-7241287D01*
X9546787Y-7241287D01*
X9546787Y-7283713D01*
X9589213Y-7283713D01*
X9538000Y-7222500D02*
X9538000Y-7302500D01*
X9598000Y-7302500D02*
G75*
G02*
X9538000Y-7302500I-30000J0D01*
G01*
X9598000Y-7302500D02*
X9598000Y-7222500D01*
X9598000Y-7222500D02*
G75*
G03*
X9538000Y-7222500I-30000J0D01*
G01*
X9589213Y-7701713D02*
X9589213Y-7659287D01*
X9546787Y-7659287D01*
X9546787Y-7701713D01*
X9589213Y-7701713D01*
X9538000Y-7625500D02*
X9538000Y-7735500D01*
X9598000Y-7735500D02*
G75*
G02*
X9538000Y-7735500I-30000J0D01*
G01*
X9598000Y-7735500D02*
X9598000Y-7625500D01*
X9598000Y-7625500D02*
G75*
G03*
X9538000Y-7625500I-30000J0D01*
G01*
X10453213Y-7283713D02*
X10453213Y-7241287D01*
X10410787Y-7241287D01*
X10410787Y-7283713D01*
X10453213Y-7283713D01*
X10402000Y-7222500D02*
X10402000Y-7302500D01*
X10462000Y-7302500D02*
G75*
G02*
X10402000Y-7302500I-30000J0D01*
G01*
X10462000Y-7302500D02*
X10462000Y-7222500D01*
X10462000Y-7222500D02*
G75*
G03*
X10402000Y-7222500I-30000J0D01*
G01*
X10453213Y-7701713D02*
X10453213Y-7659287D01*
X10410787Y-7659287D01*
X10410787Y-7701713D01*
X10453213Y-7701713D01*
X10402000Y-7625500D02*
X10402000Y-7735500D01*
X10462000Y-7735500D02*
G75*
G02*
X10402000Y-7735500I-30000J0D01*
G01*
X10462000Y-7735500D02*
X10462000Y-7625500D01*
X10462000Y-7625500D02*
G75*
G03*
X10402000Y-7625500I-30000J0D01*
G01*
X9000000Y-8150000D02*
X9050000Y-8100000D01*
X9000000Y-8050000D01*
X8950000Y-8100000D01*
X9000000Y-8150000D01*
X9250000Y-8150000D02*
X9300000Y-8100000D01*
X9250000Y-8050000D01*
X9200000Y-8100000D01*
X9250000Y-8150000D01*
X9315000Y-9994000D02*
X9415000Y-10094000D01*
X9415000Y-9994000D02*
X9315000Y-10094000D01*
X9415000Y-10044000D02*
G75*
G02*
X9315000Y-10044000I-50000J0D01*
G01*
X9315000Y-10044000D02*
G75*
G02*
X9415000Y-10044000I50000J0D01*
G01*
X9315000Y-10248000D02*
X9415000Y-10348000D01*
X9415000Y-10248000D02*
X9315000Y-10348000D01*
X9415000Y-10298000D02*
G75*
G02*
X9315000Y-10298000I-50000J0D01*
G01*
X9315000Y-10298000D02*
G75*
G02*
X9415000Y-10298000I50000J0D01*
G01*
X9315000Y-10502000D02*
X9415000Y-10602000D01*
X9415000Y-10502000D02*
X9315000Y-10602000D01*
X9415000Y-10552000D02*
G75*
G02*
X9315000Y-10552000I-50000J0D01*
G01*
X9315000Y-10552000D02*
G75*
G02*
X9415000Y-10552000I50000J0D01*
G01*
X9315000Y-10756000D02*
X9415000Y-10856000D01*
X9415000Y-10756000D02*
X9315000Y-10856000D01*
X9415000Y-10806000D02*
G75*
G02*
X9315000Y-10806000I-50000J0D01*
G01*
X9315000Y-10806000D02*
G75*
G02*
X9415000Y-10806000I50000J0D01*
G01*
X10585000Y-9994000D02*
X10685000Y-10094000D01*
X10685000Y-9994000D02*
X10585000Y-10094000D01*
X10685000Y-10044000D02*
G75*
G02*
X10585000Y-10044000I-50000J0D01*
G01*
X10585000Y-10044000D02*
G75*
G02*
X10685000Y-10044000I50000J0D01*
G01*
X10585000Y-10248000D02*
X10685000Y-10348000D01*
X10685000Y-10248000D02*
X10585000Y-10348000D01*
X10685000Y-10298000D02*
G75*
G02*
X10585000Y-10298000I-50000J0D01*
G01*
X10585000Y-10298000D02*
G75*
G02*
X10685000Y-10298000I50000J0D01*
G01*
X10585000Y-10502000D02*
X10685000Y-10602000D01*
X10685000Y-10502000D02*
X10585000Y-10602000D01*
X10685000Y-10552000D02*
G75*
G02*
X10585000Y-10552000I-50000J0D01*
G01*
X10585000Y-10552000D02*
G75*
G02*
X10685000Y-10552000I50000J0D01*
G01*
X10585000Y-10756000D02*
X10685000Y-10856000D01*
X10685000Y-10756000D02*
X10585000Y-10856000D01*
X10685000Y-10806000D02*
G75*
G02*
X10585000Y-10806000I-50000J0D01*
G01*
X10585000Y-10806000D02*
G75*
G02*
X10685000Y-10806000I50000J0D01*
G01*
D13*
X9960000Y-8910000D02*
X10140000Y-9090000D01*
X10140000Y-8910000D02*
X9960000Y-9090000D01*
X10050000Y-8910000D02*
X10050000Y-9090000D01*
X9960000Y-9000000D02*
X10140000Y-9000000D01*
D11*
X8758277Y-11813984D02*
X8758277Y-11613984D01*
X8758277Y-11613984D02*
X8805896Y-11613984D01*
X8805896Y-11613984D02*
X8834467Y-11623508D01*
X8834467Y-11623508D02*
X8853515Y-11642555D01*
X8853515Y-11642555D02*
X8863039Y-11661603D01*
X8863039Y-11661603D02*
X8872563Y-11699698D01*
X8872563Y-11699698D02*
X8872563Y-11728269D01*
X8872563Y-11728269D02*
X8863039Y-11766365D01*
X8863039Y-11766365D02*
X8853515Y-11785412D01*
X8853515Y-11785412D02*
X8834467Y-11804460D01*
X8834467Y-11804460D02*
X8805896Y-11813984D01*
X8805896Y-11813984D02*
X8758277Y-11813984D01*
X8958277Y-11813984D02*
X8958277Y-11680650D01*
X8958277Y-11718746D02*
X8967801Y-11699698D01*
X8967801Y-11699698D02*
X8977324Y-11690174D01*
X8977324Y-11690174D02*
X8996372Y-11680650D01*
X8996372Y-11680650D02*
X9015420Y-11680650D01*
X9082086Y-11813984D02*
X9082086Y-11680650D01*
X9082086Y-11613984D02*
X9072563Y-11623508D01*
X9072563Y-11623508D02*
X9082086Y-11633031D01*
X9082086Y-11633031D02*
X9091610Y-11623508D01*
X9091610Y-11623508D02*
X9082086Y-11613984D01*
X9082086Y-11613984D02*
X9082086Y-11633031D01*
X9205896Y-11813984D02*
X9186848Y-11804460D01*
X9186848Y-11804460D02*
X9177324Y-11785412D01*
X9177324Y-11785412D02*
X9177324Y-11613984D01*
X9310658Y-11813984D02*
X9291610Y-11804460D01*
X9291610Y-11804460D02*
X9282086Y-11785412D01*
X9282086Y-11785412D02*
X9282086Y-11613984D01*
X9539229Y-11813984D02*
X9539229Y-11613984D01*
X9539229Y-11613984D02*
X9605896Y-11756841D01*
X9605896Y-11756841D02*
X9672563Y-11613984D01*
X9672563Y-11613984D02*
X9672563Y-11813984D01*
X9853515Y-11813984D02*
X9853515Y-11709222D01*
X9853515Y-11709222D02*
X9843991Y-11690174D01*
X9843991Y-11690174D02*
X9824944Y-11680650D01*
X9824944Y-11680650D02*
X9786848Y-11680650D01*
X9786848Y-11680650D02*
X9767801Y-11690174D01*
X9853515Y-11804460D02*
X9834467Y-11813984D01*
X9834467Y-11813984D02*
X9786848Y-11813984D01*
X9786848Y-11813984D02*
X9767801Y-11804460D01*
X9767801Y-11804460D02*
X9758277Y-11785412D01*
X9758277Y-11785412D02*
X9758277Y-11766365D01*
X9758277Y-11766365D02*
X9767801Y-11747317D01*
X9767801Y-11747317D02*
X9786848Y-11737793D01*
X9786848Y-11737793D02*
X9834467Y-11737793D01*
X9834467Y-11737793D02*
X9853515Y-11728269D01*
X9948753Y-11680650D02*
X9948753Y-11880650D01*
X9948753Y-11690174D02*
X9967801Y-11680650D01*
X9967801Y-11680650D02*
X10005896Y-11680650D01*
X10005896Y-11680650D02*
X10024944Y-11690174D01*
X10024944Y-11690174D02*
X10034467Y-11699698D01*
X10034467Y-11699698D02*
X10043991Y-11718746D01*
X10043991Y-11718746D02*
X10043991Y-11775888D01*
X10043991Y-11775888D02*
X10034467Y-11794936D01*
X10034467Y-11794936D02*
X10024944Y-11804460D01*
X10024944Y-11804460D02*
X10005896Y-11813984D01*
X10005896Y-11813984D02*
X9967801Y-11813984D01*
X9967801Y-11813984D02*
X9948753Y-11804460D01*
X10129705Y-11794936D02*
X10139229Y-11804460D01*
X10139229Y-11804460D02*
X10129705Y-11813984D01*
X10129705Y-11813984D02*
X10120182Y-11804460D01*
X10120182Y-11804460D02*
X10129705Y-11794936D01*
X10129705Y-11794936D02*
X10129705Y-11813984D01*
X10129705Y-11690174D02*
X10139229Y-11699698D01*
X10139229Y-11699698D02*
X10129705Y-11709222D01*
X10129705Y-11709222D02*
X10120182Y-11699698D01*
X10120182Y-11699698D02*
X10129705Y-11690174D01*
X10129705Y-11690174D02*
X10129705Y-11709222D01*
D12*
X8467500Y-12127500D02*
X8497500Y-12157500D01*
X8497500Y-12127500D02*
X8467500Y-12157500D01*
D11*
X8796372Y-12033984D02*
X8815420Y-12033984D01*
X8815420Y-12033984D02*
X8834467Y-12043508D01*
X8834467Y-12043508D02*
X8843991Y-12053031D01*
X8843991Y-12053031D02*
X8853515Y-12072079D01*
X8853515Y-12072079D02*
X8863039Y-12110174D01*
X8863039Y-12110174D02*
X8863039Y-12157793D01*
X8863039Y-12157793D02*
X8853515Y-12195888D01*
X8853515Y-12195888D02*
X8843991Y-12214936D01*
X8843991Y-12214936D02*
X8834467Y-12224460D01*
X8834467Y-12224460D02*
X8815420Y-12233984D01*
X8815420Y-12233984D02*
X8796372Y-12233984D01*
X8796372Y-12233984D02*
X8777324Y-12224460D01*
X8777324Y-12224460D02*
X8767801Y-12214936D01*
X8767801Y-12214936D02*
X8758277Y-12195888D01*
X8758277Y-12195888D02*
X8748753Y-12157793D01*
X8748753Y-12157793D02*
X8748753Y-12110174D01*
X8748753Y-12110174D02*
X8758277Y-12072079D01*
X8758277Y-12072079D02*
X8767801Y-12053031D01*
X8767801Y-12053031D02*
X8777324Y-12043508D01*
X8777324Y-12043508D02*
X8796372Y-12033984D01*
X8948753Y-12214936D02*
X8958277Y-12224460D01*
X8958277Y-12224460D02*
X8948753Y-12233984D01*
X8948753Y-12233984D02*
X8939229Y-12224460D01*
X8939229Y-12224460D02*
X8948753Y-12214936D01*
X8948753Y-12214936D02*
X8948753Y-12233984D01*
X9024944Y-12033984D02*
X9148753Y-12033984D01*
X9148753Y-12033984D02*
X9082086Y-12110174D01*
X9082086Y-12110174D02*
X9110658Y-12110174D01*
X9110658Y-12110174D02*
X9129705Y-12119698D01*
X9129705Y-12119698D02*
X9139229Y-12129222D01*
X9139229Y-12129222D02*
X9148753Y-12148269D01*
X9148753Y-12148269D02*
X9148753Y-12195888D01*
X9148753Y-12195888D02*
X9139229Y-12214936D01*
X9139229Y-12214936D02*
X9129705Y-12224460D01*
X9129705Y-12224460D02*
X9110658Y-12233984D01*
X9110658Y-12233984D02*
X9053515Y-12233984D01*
X9053515Y-12233984D02*
X9034467Y-12224460D01*
X9034467Y-12224460D02*
X9024944Y-12214936D01*
X9272563Y-12033984D02*
X9291610Y-12033984D01*
X9291610Y-12033984D02*
X9310658Y-12043508D01*
X9310658Y-12043508D02*
X9320182Y-12053031D01*
X9320182Y-12053031D02*
X9329705Y-12072079D01*
X9329705Y-12072079D02*
X9339229Y-12110174D01*
X9339229Y-12110174D02*
X9339229Y-12157793D01*
X9339229Y-12157793D02*
X9329705Y-12195888D01*
X9329705Y-12195888D02*
X9320182Y-12214936D01*
X9320182Y-12214936D02*
X9310658Y-12224460D01*
X9310658Y-12224460D02*
X9291610Y-12233984D01*
X9291610Y-12233984D02*
X9272563Y-12233984D01*
X9272563Y-12233984D02*
X9253515Y-12224460D01*
X9253515Y-12224460D02*
X9243991Y-12214936D01*
X9243991Y-12214936D02*
X9234467Y-12195888D01*
X9234467Y-12195888D02*
X9224944Y-12157793D01*
X9224944Y-12157793D02*
X9224944Y-12110174D01*
X9224944Y-12110174D02*
X9234467Y-12072079D01*
X9234467Y-12072079D02*
X9243991Y-12053031D01*
X9243991Y-12053031D02*
X9253515Y-12043508D01*
X9253515Y-12043508D02*
X9272563Y-12033984D01*
X9463039Y-12033984D02*
X9482086Y-12033984D01*
X9482086Y-12033984D02*
X9501134Y-12043508D01*
X9501134Y-12043508D02*
X9510658Y-12053031D01*
X9510658Y-12053031D02*
X9520182Y-12072079D01*
X9520182Y-12072079D02*
X9529705Y-12110174D01*
X9529705Y-12110174D02*
X9529705Y-12157793D01*
X9529705Y-12157793D02*
X9520182Y-12195888D01*
X9520182Y-12195888D02*
X9510658Y-12214936D01*
X9510658Y-12214936D02*
X9501134Y-12224460D01*
X9501134Y-12224460D02*
X9482086Y-12233984D01*
X9482086Y-12233984D02*
X9463039Y-12233984D01*
X9463039Y-12233984D02*
X9443991Y-12224460D01*
X9443991Y-12224460D02*
X9434467Y-12214936D01*
X9434467Y-12214936D02*
X9424944Y-12195888D01*
X9424944Y-12195888D02*
X9415420Y-12157793D01*
X9415420Y-12157793D02*
X9415420Y-12110174D01*
X9415420Y-12110174D02*
X9424944Y-12072079D01*
X9424944Y-12072079D02*
X9434467Y-12053031D01*
X9434467Y-12053031D02*
X9443991Y-12043508D01*
X9443991Y-12043508D02*
X9463039Y-12033984D01*
X9615420Y-12233984D02*
X9615420Y-12100650D01*
X9615420Y-12119698D02*
X9624944Y-12110174D01*
X9624944Y-12110174D02*
X9643991Y-12100650D01*
X9643991Y-12100650D02*
X9672563Y-12100650D01*
X9672563Y-12100650D02*
X9691610Y-12110174D01*
X9691610Y-12110174D02*
X9701134Y-12129222D01*
X9701134Y-12129222D02*
X9701134Y-12233984D01*
X9701134Y-12129222D02*
X9710658Y-12110174D01*
X9710658Y-12110174D02*
X9729705Y-12100650D01*
X9729705Y-12100650D02*
X9758277Y-12100650D01*
X9758277Y-12100650D02*
X9777325Y-12110174D01*
X9777325Y-12110174D02*
X9786848Y-12129222D01*
X9786848Y-12129222D02*
X9786848Y-12233984D01*
X9882086Y-12233984D02*
X9882086Y-12100650D01*
X9882086Y-12119698D02*
X9891610Y-12110174D01*
X9891610Y-12110174D02*
X9910658Y-12100650D01*
X9910658Y-12100650D02*
X9939229Y-12100650D01*
X9939229Y-12100650D02*
X9958277Y-12110174D01*
X9958277Y-12110174D02*
X9967801Y-12129222D01*
X9967801Y-12129222D02*
X9967801Y-12233984D01*
X9967801Y-12129222D02*
X9977325Y-12110174D01*
X9977325Y-12110174D02*
X9996372Y-12100650D01*
X9996372Y-12100650D02*
X10024944Y-12100650D01*
X10024944Y-12100650D02*
X10043991Y-12110174D01*
X10043991Y-12110174D02*
X10053515Y-12129222D01*
X10053515Y-12129222D02*
X10053515Y-12233984D01*
X10443991Y-12024460D02*
X10272563Y-12281603D01*
X10701134Y-12033984D02*
X10720182Y-12033984D01*
X10720182Y-12033984D02*
X10739229Y-12043508D01*
X10739229Y-12043508D02*
X10748753Y-12053031D01*
X10748753Y-12053031D02*
X10758277Y-12072079D01*
X10758277Y-12072079D02*
X10767801Y-12110174D01*
X10767801Y-12110174D02*
X10767801Y-12157793D01*
X10767801Y-12157793D02*
X10758277Y-12195888D01*
X10758277Y-12195888D02*
X10748753Y-12214936D01*
X10748753Y-12214936D02*
X10739229Y-12224460D01*
X10739229Y-12224460D02*
X10720182Y-12233984D01*
X10720182Y-12233984D02*
X10701134Y-12233984D01*
X10701134Y-12233984D02*
X10682087Y-12224460D01*
X10682087Y-12224460D02*
X10672563Y-12214936D01*
X10672563Y-12214936D02*
X10663039Y-12195888D01*
X10663039Y-12195888D02*
X10653515Y-12157793D01*
X10653515Y-12157793D02*
X10653515Y-12110174D01*
X10653515Y-12110174D02*
X10663039Y-12072079D01*
X10663039Y-12072079D02*
X10672563Y-12053031D01*
X10672563Y-12053031D02*
X10682087Y-12043508D01*
X10682087Y-12043508D02*
X10701134Y-12033984D01*
X10853515Y-12214936D02*
X10863039Y-12224460D01*
X10863039Y-12224460D02*
X10853515Y-12233984D01*
X10853515Y-12233984D02*
X10843991Y-12224460D01*
X10843991Y-12224460D02*
X10853515Y-12214936D01*
X10853515Y-12214936D02*
X10853515Y-12233984D01*
X10986848Y-12033984D02*
X11005896Y-12033984D01*
X11005896Y-12033984D02*
X11024944Y-12043508D01*
X11024944Y-12043508D02*
X11034468Y-12053031D01*
X11034468Y-12053031D02*
X11043991Y-12072079D01*
X11043991Y-12072079D02*
X11053515Y-12110174D01*
X11053515Y-12110174D02*
X11053515Y-12157793D01*
X11053515Y-12157793D02*
X11043991Y-12195888D01*
X11043991Y-12195888D02*
X11034468Y-12214936D01*
X11034468Y-12214936D02*
X11024944Y-12224460D01*
X11024944Y-12224460D02*
X11005896Y-12233984D01*
X11005896Y-12233984D02*
X10986848Y-12233984D01*
X10986848Y-12233984D02*
X10967801Y-12224460D01*
X10967801Y-12224460D02*
X10958277Y-12214936D01*
X10958277Y-12214936D02*
X10948753Y-12195888D01*
X10948753Y-12195888D02*
X10939229Y-12157793D01*
X10939229Y-12157793D02*
X10939229Y-12110174D01*
X10939229Y-12110174D02*
X10948753Y-12072079D01*
X10948753Y-12072079D02*
X10958277Y-12053031D01*
X10958277Y-12053031D02*
X10967801Y-12043508D01*
X10967801Y-12043508D02*
X10986848Y-12033984D01*
X11243991Y-12233984D02*
X11129706Y-12233984D01*
X11186848Y-12233984D02*
X11186848Y-12033984D01*
X11186848Y-12033984D02*
X11167801Y-12062555D01*
X11167801Y-12062555D02*
X11148753Y-12081603D01*
X11148753Y-12081603D02*
X11129706Y-12091127D01*
X11434467Y-12233984D02*
X11320182Y-12233984D01*
X11377325Y-12233984D02*
X11377325Y-12033984D01*
X11377325Y-12033984D02*
X11358277Y-12062555D01*
X11358277Y-12062555D02*
X11339229Y-12081603D01*
X11339229Y-12081603D02*
X11320182Y-12091127D01*
X11548753Y-12119698D02*
X11529706Y-12110174D01*
X11529706Y-12110174D02*
X11520182Y-12100650D01*
X11520182Y-12100650D02*
X11510658Y-12081603D01*
X11510658Y-12081603D02*
X11510658Y-12072079D01*
X11510658Y-12072079D02*
X11520182Y-12053031D01*
X11520182Y-12053031D02*
X11529706Y-12043508D01*
X11529706Y-12043508D02*
X11548753Y-12033984D01*
X11548753Y-12033984D02*
X11586848Y-12033984D01*
X11586848Y-12033984D02*
X11605896Y-12043508D01*
X11605896Y-12043508D02*
X11615420Y-12053031D01*
X11615420Y-12053031D02*
X11624944Y-12072079D01*
X11624944Y-12072079D02*
X11624944Y-12081603D01*
X11624944Y-12081603D02*
X11615420Y-12100650D01*
X11615420Y-12100650D02*
X11605896Y-12110174D01*
X11605896Y-12110174D02*
X11586848Y-12119698D01*
X11586848Y-12119698D02*
X11548753Y-12119698D01*
X11548753Y-12119698D02*
X11529706Y-12129222D01*
X11529706Y-12129222D02*
X11520182Y-12138746D01*
X11520182Y-12138746D02*
X11510658Y-12157793D01*
X11510658Y-12157793D02*
X11510658Y-12195888D01*
X11510658Y-12195888D02*
X11520182Y-12214936D01*
X11520182Y-12214936D02*
X11529706Y-12224460D01*
X11529706Y-12224460D02*
X11548753Y-12233984D01*
X11548753Y-12233984D02*
X11586848Y-12233984D01*
X11586848Y-12233984D02*
X11605896Y-12224460D01*
X11605896Y-12224460D02*
X11615420Y-12214936D01*
X11615420Y-12214936D02*
X11624944Y-12195888D01*
X11624944Y-12195888D02*
X11624944Y-12157793D01*
X11624944Y-12157793D02*
X11615420Y-12138746D01*
X11615420Y-12138746D02*
X11605896Y-12129222D01*
X11605896Y-12129222D02*
X11586848Y-12119698D01*
X11701134Y-12033984D02*
X11701134Y-12072079D01*
X11777325Y-12033984D02*
X11777325Y-12072079D01*
X12072563Y-12310174D02*
X12063039Y-12300650D01*
X12063039Y-12300650D02*
X12043991Y-12272079D01*
X12043991Y-12272079D02*
X12034468Y-12253031D01*
X12034468Y-12253031D02*
X12024944Y-12224460D01*
X12024944Y-12224460D02*
X12015420Y-12176841D01*
X12015420Y-12176841D02*
X12015420Y-12138746D01*
X12015420Y-12138746D02*
X12024944Y-12091127D01*
X12024944Y-12091127D02*
X12034468Y-12062555D01*
X12034468Y-12062555D02*
X12043991Y-12043508D01*
X12043991Y-12043508D02*
X12063039Y-12014936D01*
X12063039Y-12014936D02*
X12072563Y-12005412D01*
X12129706Y-12033984D02*
X12263039Y-12033984D01*
X12263039Y-12033984D02*
X12177325Y-12233984D01*
X12329706Y-12053031D02*
X12339229Y-12043508D01*
X12339229Y-12043508D02*
X12358277Y-12033984D01*
X12358277Y-12033984D02*
X12405896Y-12033984D01*
X12405896Y-12033984D02*
X12424944Y-12043508D01*
X12424944Y-12043508D02*
X12434468Y-12053031D01*
X12434468Y-12053031D02*
X12443991Y-12072079D01*
X12443991Y-12072079D02*
X12443991Y-12091127D01*
X12443991Y-12091127D02*
X12434468Y-12119698D01*
X12434468Y-12119698D02*
X12320182Y-12233984D01*
X12320182Y-12233984D02*
X12443991Y-12233984D01*
X12682087Y-12233984D02*
X12682087Y-12033984D01*
X12767801Y-12233984D02*
X12767801Y-12129222D01*
X12767801Y-12129222D02*
X12758277Y-12110174D01*
X12758277Y-12110174D02*
X12739230Y-12100650D01*
X12739230Y-12100650D02*
X12710658Y-12100650D01*
X12710658Y-12100650D02*
X12691610Y-12110174D01*
X12691610Y-12110174D02*
X12682087Y-12119698D01*
X12891610Y-12233984D02*
X12872563Y-12224460D01*
X12872563Y-12224460D02*
X12863039Y-12214936D01*
X12863039Y-12214936D02*
X12853515Y-12195888D01*
X12853515Y-12195888D02*
X12853515Y-12138746D01*
X12853515Y-12138746D02*
X12863039Y-12119698D01*
X12863039Y-12119698D02*
X12872563Y-12110174D01*
X12872563Y-12110174D02*
X12891610Y-12100650D01*
X12891610Y-12100650D02*
X12920182Y-12100650D01*
X12920182Y-12100650D02*
X12939230Y-12110174D01*
X12939230Y-12110174D02*
X12948753Y-12119698D01*
X12948753Y-12119698D02*
X12958277Y-12138746D01*
X12958277Y-12138746D02*
X12958277Y-12195888D01*
X12958277Y-12195888D02*
X12948753Y-12214936D01*
X12948753Y-12214936D02*
X12939230Y-12224460D01*
X12939230Y-12224460D02*
X12920182Y-12233984D01*
X12920182Y-12233984D02*
X12891610Y-12233984D01*
X13072563Y-12233984D02*
X13053515Y-12224460D01*
X13053515Y-12224460D02*
X13043991Y-12205412D01*
X13043991Y-12205412D02*
X13043991Y-12033984D01*
X13224944Y-12224460D02*
X13205896Y-12233984D01*
X13205896Y-12233984D02*
X13167801Y-12233984D01*
X13167801Y-12233984D02*
X13148753Y-12224460D01*
X13148753Y-12224460D02*
X13139230Y-12205412D01*
X13139230Y-12205412D02*
X13139230Y-12129222D01*
X13139230Y-12129222D02*
X13148753Y-12110174D01*
X13148753Y-12110174D02*
X13167801Y-12100650D01*
X13167801Y-12100650D02*
X13205896Y-12100650D01*
X13205896Y-12100650D02*
X13224944Y-12110174D01*
X13224944Y-12110174D02*
X13234468Y-12129222D01*
X13234468Y-12129222D02*
X13234468Y-12148269D01*
X13234468Y-12148269D02*
X13139230Y-12167317D01*
X13310658Y-12224460D02*
X13329706Y-12233984D01*
X13329706Y-12233984D02*
X13367801Y-12233984D01*
X13367801Y-12233984D02*
X13386849Y-12224460D01*
X13386849Y-12224460D02*
X13396372Y-12205412D01*
X13396372Y-12205412D02*
X13396372Y-12195888D01*
X13396372Y-12195888D02*
X13386849Y-12176841D01*
X13386849Y-12176841D02*
X13367801Y-12167317D01*
X13367801Y-12167317D02*
X13339230Y-12167317D01*
X13339230Y-12167317D02*
X13320182Y-12157793D01*
X13320182Y-12157793D02*
X13310658Y-12138746D01*
X13310658Y-12138746D02*
X13310658Y-12129222D01*
X13310658Y-12129222D02*
X13320182Y-12110174D01*
X13320182Y-12110174D02*
X13339230Y-12100650D01*
X13339230Y-12100650D02*
X13367801Y-12100650D01*
X13367801Y-12100650D02*
X13386849Y-12110174D01*
X13463039Y-12310174D02*
X13472563Y-12300650D01*
X13472563Y-12300650D02*
X13491611Y-12272079D01*
X13491611Y-12272079D02*
X13501134Y-12253031D01*
X13501134Y-12253031D02*
X13510658Y-12224460D01*
X13510658Y-12224460D02*
X13520182Y-12176841D01*
X13520182Y-12176841D02*
X13520182Y-12138746D01*
X13520182Y-12138746D02*
X13510658Y-12091127D01*
X13510658Y-12091127D02*
X13501134Y-12062555D01*
X13501134Y-12062555D02*
X13491611Y-12043508D01*
X13491611Y-12043508D02*
X13472563Y-12014936D01*
X13472563Y-12014936D02*
X13463039Y-12005412D01*
D12*
X8497500Y-12406500D02*
G75*
G02*
X8447500Y-12406500I-25000J0D01*
G01*
X8447500Y-12406500D02*
G75*
G02*
X8497500Y-12406500I25000J0D01*
G01*
D11*
X8796372Y-12297984D02*
X8815420Y-12297984D01*
X8815420Y-12297984D02*
X8834467Y-12307508D01*
X8834467Y-12307508D02*
X8843991Y-12317031D01*
X8843991Y-12317031D02*
X8853515Y-12336079D01*
X8853515Y-12336079D02*
X8863039Y-12374174D01*
X8863039Y-12374174D02*
X8863039Y-12421793D01*
X8863039Y-12421793D02*
X8853515Y-12459888D01*
X8853515Y-12459888D02*
X8843991Y-12478936D01*
X8843991Y-12478936D02*
X8834467Y-12488460D01*
X8834467Y-12488460D02*
X8815420Y-12497984D01*
X8815420Y-12497984D02*
X8796372Y-12497984D01*
X8796372Y-12497984D02*
X8777324Y-12488460D01*
X8777324Y-12488460D02*
X8767801Y-12478936D01*
X8767801Y-12478936D02*
X8758277Y-12459888D01*
X8758277Y-12459888D02*
X8748753Y-12421793D01*
X8748753Y-12421793D02*
X8748753Y-12374174D01*
X8748753Y-12374174D02*
X8758277Y-12336079D01*
X8758277Y-12336079D02*
X8767801Y-12317031D01*
X8767801Y-12317031D02*
X8777324Y-12307508D01*
X8777324Y-12307508D02*
X8796372Y-12297984D01*
X8948753Y-12478936D02*
X8958277Y-12488460D01*
X8958277Y-12488460D02*
X8948753Y-12497984D01*
X8948753Y-12497984D02*
X8939229Y-12488460D01*
X8939229Y-12488460D02*
X8948753Y-12478936D01*
X8948753Y-12478936D02*
X8948753Y-12497984D01*
X9139229Y-12297984D02*
X9043991Y-12297984D01*
X9043991Y-12297984D02*
X9034467Y-12393222D01*
X9034467Y-12393222D02*
X9043991Y-12383698D01*
X9043991Y-12383698D02*
X9063039Y-12374174D01*
X9063039Y-12374174D02*
X9110658Y-12374174D01*
X9110658Y-12374174D02*
X9129705Y-12383698D01*
X9129705Y-12383698D02*
X9139229Y-12393222D01*
X9139229Y-12393222D02*
X9148753Y-12412269D01*
X9148753Y-12412269D02*
X9148753Y-12459888D01*
X9148753Y-12459888D02*
X9139229Y-12478936D01*
X9139229Y-12478936D02*
X9129705Y-12488460D01*
X9129705Y-12488460D02*
X9110658Y-12497984D01*
X9110658Y-12497984D02*
X9063039Y-12497984D01*
X9063039Y-12497984D02*
X9043991Y-12488460D01*
X9043991Y-12488460D02*
X9034467Y-12478936D01*
X9272563Y-12297984D02*
X9291610Y-12297984D01*
X9291610Y-12297984D02*
X9310658Y-12307508D01*
X9310658Y-12307508D02*
X9320182Y-12317031D01*
X9320182Y-12317031D02*
X9329705Y-12336079D01*
X9329705Y-12336079D02*
X9339229Y-12374174D01*
X9339229Y-12374174D02*
X9339229Y-12421793D01*
X9339229Y-12421793D02*
X9329705Y-12459888D01*
X9329705Y-12459888D02*
X9320182Y-12478936D01*
X9320182Y-12478936D02*
X9310658Y-12488460D01*
X9310658Y-12488460D02*
X9291610Y-12497984D01*
X9291610Y-12497984D02*
X9272563Y-12497984D01*
X9272563Y-12497984D02*
X9253515Y-12488460D01*
X9253515Y-12488460D02*
X9243991Y-12478936D01*
X9243991Y-12478936D02*
X9234467Y-12459888D01*
X9234467Y-12459888D02*
X9224944Y-12421793D01*
X9224944Y-12421793D02*
X9224944Y-12374174D01*
X9224944Y-12374174D02*
X9234467Y-12336079D01*
X9234467Y-12336079D02*
X9243991Y-12317031D01*
X9243991Y-12317031D02*
X9253515Y-12307508D01*
X9253515Y-12307508D02*
X9272563Y-12297984D01*
X9463039Y-12297984D02*
X9482086Y-12297984D01*
X9482086Y-12297984D02*
X9501134Y-12307508D01*
X9501134Y-12307508D02*
X9510658Y-12317031D01*
X9510658Y-12317031D02*
X9520182Y-12336079D01*
X9520182Y-12336079D02*
X9529705Y-12374174D01*
X9529705Y-12374174D02*
X9529705Y-12421793D01*
X9529705Y-12421793D02*
X9520182Y-12459888D01*
X9520182Y-12459888D02*
X9510658Y-12478936D01*
X9510658Y-12478936D02*
X9501134Y-12488460D01*
X9501134Y-12488460D02*
X9482086Y-12497984D01*
X9482086Y-12497984D02*
X9463039Y-12497984D01*
X9463039Y-12497984D02*
X9443991Y-12488460D01*
X9443991Y-12488460D02*
X9434467Y-12478936D01*
X9434467Y-12478936D02*
X9424944Y-12459888D01*
X9424944Y-12459888D02*
X9415420Y-12421793D01*
X9415420Y-12421793D02*
X9415420Y-12374174D01*
X9415420Y-12374174D02*
X9424944Y-12336079D01*
X9424944Y-12336079D02*
X9434467Y-12317031D01*
X9434467Y-12317031D02*
X9443991Y-12307508D01*
X9443991Y-12307508D02*
X9463039Y-12297984D01*
X9615420Y-12497984D02*
X9615420Y-12364650D01*
X9615420Y-12383698D02*
X9624944Y-12374174D01*
X9624944Y-12374174D02*
X9643991Y-12364650D01*
X9643991Y-12364650D02*
X9672563Y-12364650D01*
X9672563Y-12364650D02*
X9691610Y-12374174D01*
X9691610Y-12374174D02*
X9701134Y-12393222D01*
X9701134Y-12393222D02*
X9701134Y-12497984D01*
X9701134Y-12393222D02*
X9710658Y-12374174D01*
X9710658Y-12374174D02*
X9729705Y-12364650D01*
X9729705Y-12364650D02*
X9758277Y-12364650D01*
X9758277Y-12364650D02*
X9777325Y-12374174D01*
X9777325Y-12374174D02*
X9786848Y-12393222D01*
X9786848Y-12393222D02*
X9786848Y-12497984D01*
X9882086Y-12497984D02*
X9882086Y-12364650D01*
X9882086Y-12383698D02*
X9891610Y-12374174D01*
X9891610Y-12374174D02*
X9910658Y-12364650D01*
X9910658Y-12364650D02*
X9939229Y-12364650D01*
X9939229Y-12364650D02*
X9958277Y-12374174D01*
X9958277Y-12374174D02*
X9967801Y-12393222D01*
X9967801Y-12393222D02*
X9967801Y-12497984D01*
X9967801Y-12393222D02*
X9977325Y-12374174D01*
X9977325Y-12374174D02*
X9996372Y-12364650D01*
X9996372Y-12364650D02*
X10024944Y-12364650D01*
X10024944Y-12364650D02*
X10043991Y-12374174D01*
X10043991Y-12374174D02*
X10053515Y-12393222D01*
X10053515Y-12393222D02*
X10053515Y-12497984D01*
X10443991Y-12288460D02*
X10272563Y-12545603D01*
X10701134Y-12297984D02*
X10720182Y-12297984D01*
X10720182Y-12297984D02*
X10739229Y-12307508D01*
X10739229Y-12307508D02*
X10748753Y-12317031D01*
X10748753Y-12317031D02*
X10758277Y-12336079D01*
X10758277Y-12336079D02*
X10767801Y-12374174D01*
X10767801Y-12374174D02*
X10767801Y-12421793D01*
X10767801Y-12421793D02*
X10758277Y-12459888D01*
X10758277Y-12459888D02*
X10748753Y-12478936D01*
X10748753Y-12478936D02*
X10739229Y-12488460D01*
X10739229Y-12488460D02*
X10720182Y-12497984D01*
X10720182Y-12497984D02*
X10701134Y-12497984D01*
X10701134Y-12497984D02*
X10682087Y-12488460D01*
X10682087Y-12488460D02*
X10672563Y-12478936D01*
X10672563Y-12478936D02*
X10663039Y-12459888D01*
X10663039Y-12459888D02*
X10653515Y-12421793D01*
X10653515Y-12421793D02*
X10653515Y-12374174D01*
X10653515Y-12374174D02*
X10663039Y-12336079D01*
X10663039Y-12336079D02*
X10672563Y-12317031D01*
X10672563Y-12317031D02*
X10682087Y-12307508D01*
X10682087Y-12307508D02*
X10701134Y-12297984D01*
X10853515Y-12478936D02*
X10863039Y-12488460D01*
X10863039Y-12488460D02*
X10853515Y-12497984D01*
X10853515Y-12497984D02*
X10843991Y-12488460D01*
X10843991Y-12488460D02*
X10853515Y-12478936D01*
X10853515Y-12478936D02*
X10853515Y-12497984D01*
X10986848Y-12297984D02*
X11005896Y-12297984D01*
X11005896Y-12297984D02*
X11024944Y-12307508D01*
X11024944Y-12307508D02*
X11034468Y-12317031D01*
X11034468Y-12317031D02*
X11043991Y-12336079D01*
X11043991Y-12336079D02*
X11053515Y-12374174D01*
X11053515Y-12374174D02*
X11053515Y-12421793D01*
X11053515Y-12421793D02*
X11043991Y-12459888D01*
X11043991Y-12459888D02*
X11034468Y-12478936D01*
X11034468Y-12478936D02*
X11024944Y-12488460D01*
X11024944Y-12488460D02*
X11005896Y-12497984D01*
X11005896Y-12497984D02*
X10986848Y-12497984D01*
X10986848Y-12497984D02*
X10967801Y-12488460D01*
X10967801Y-12488460D02*
X10958277Y-12478936D01*
X10958277Y-12478936D02*
X10948753Y-12459888D01*
X10948753Y-12459888D02*
X10939229Y-12421793D01*
X10939229Y-12421793D02*
X10939229Y-12374174D01*
X10939229Y-12374174D02*
X10948753Y-12336079D01*
X10948753Y-12336079D02*
X10958277Y-12317031D01*
X10958277Y-12317031D02*
X10967801Y-12307508D01*
X10967801Y-12307508D02*
X10986848Y-12297984D01*
X11243991Y-12497984D02*
X11129706Y-12497984D01*
X11186848Y-12497984D02*
X11186848Y-12297984D01*
X11186848Y-12297984D02*
X11167801Y-12326555D01*
X11167801Y-12326555D02*
X11148753Y-12345603D01*
X11148753Y-12345603D02*
X11129706Y-12355127D01*
X11339229Y-12497984D02*
X11377325Y-12497984D01*
X11377325Y-12497984D02*
X11396372Y-12488460D01*
X11396372Y-12488460D02*
X11405896Y-12478936D01*
X11405896Y-12478936D02*
X11424944Y-12450365D01*
X11424944Y-12450365D02*
X11434467Y-12412269D01*
X11434467Y-12412269D02*
X11434467Y-12336079D01*
X11434467Y-12336079D02*
X11424944Y-12317031D01*
X11424944Y-12317031D02*
X11415420Y-12307508D01*
X11415420Y-12307508D02*
X11396372Y-12297984D01*
X11396372Y-12297984D02*
X11358277Y-12297984D01*
X11358277Y-12297984D02*
X11339229Y-12307508D01*
X11339229Y-12307508D02*
X11329706Y-12317031D01*
X11329706Y-12317031D02*
X11320182Y-12336079D01*
X11320182Y-12336079D02*
X11320182Y-12383698D01*
X11320182Y-12383698D02*
X11329706Y-12402746D01*
X11329706Y-12402746D02*
X11339229Y-12412269D01*
X11339229Y-12412269D02*
X11358277Y-12421793D01*
X11358277Y-12421793D02*
X11396372Y-12421793D01*
X11396372Y-12421793D02*
X11415420Y-12412269D01*
X11415420Y-12412269D02*
X11424944Y-12402746D01*
X11424944Y-12402746D02*
X11434467Y-12383698D01*
X11501134Y-12297984D02*
X11634467Y-12297984D01*
X11634467Y-12297984D02*
X11548753Y-12497984D01*
X11701134Y-12297984D02*
X11701134Y-12336079D01*
X11777325Y-12297984D02*
X11777325Y-12336079D01*
X12072563Y-12574174D02*
X12063039Y-12564650D01*
X12063039Y-12564650D02*
X12043991Y-12536079D01*
X12043991Y-12536079D02*
X12034468Y-12517031D01*
X12034468Y-12517031D02*
X12024944Y-12488460D01*
X12024944Y-12488460D02*
X12015420Y-12440841D01*
X12015420Y-12440841D02*
X12015420Y-12402746D01*
X12015420Y-12402746D02*
X12024944Y-12355127D01*
X12024944Y-12355127D02*
X12034468Y-12326555D01*
X12034468Y-12326555D02*
X12043991Y-12307508D01*
X12043991Y-12307508D02*
X12063039Y-12278936D01*
X12063039Y-12278936D02*
X12072563Y-12269412D01*
X12186848Y-12297984D02*
X12205896Y-12297984D01*
X12205896Y-12297984D02*
X12224944Y-12307508D01*
X12224944Y-12307508D02*
X12234468Y-12317031D01*
X12234468Y-12317031D02*
X12243991Y-12336079D01*
X12243991Y-12336079D02*
X12253515Y-12374174D01*
X12253515Y-12374174D02*
X12253515Y-12421793D01*
X12253515Y-12421793D02*
X12243991Y-12459888D01*
X12243991Y-12459888D02*
X12234468Y-12478936D01*
X12234468Y-12478936D02*
X12224944Y-12488460D01*
X12224944Y-12488460D02*
X12205896Y-12497984D01*
X12205896Y-12497984D02*
X12186848Y-12497984D01*
X12186848Y-12497984D02*
X12167801Y-12488460D01*
X12167801Y-12488460D02*
X12158277Y-12478936D01*
X12158277Y-12478936D02*
X12148753Y-12459888D01*
X12148753Y-12459888D02*
X12139229Y-12421793D01*
X12139229Y-12421793D02*
X12139229Y-12374174D01*
X12139229Y-12374174D02*
X12148753Y-12336079D01*
X12148753Y-12336079D02*
X12158277Y-12317031D01*
X12158277Y-12317031D02*
X12167801Y-12307508D01*
X12167801Y-12307508D02*
X12186848Y-12297984D01*
X12491610Y-12497984D02*
X12491610Y-12297984D01*
X12577325Y-12497984D02*
X12577325Y-12393222D01*
X12577325Y-12393222D02*
X12567801Y-12374174D01*
X12567801Y-12374174D02*
X12548753Y-12364650D01*
X12548753Y-12364650D02*
X12520182Y-12364650D01*
X12520182Y-12364650D02*
X12501134Y-12374174D01*
X12501134Y-12374174D02*
X12491610Y-12383698D01*
X12701134Y-12497984D02*
X12682087Y-12488460D01*
X12682087Y-12488460D02*
X12672563Y-12478936D01*
X12672563Y-12478936D02*
X12663039Y-12459888D01*
X12663039Y-12459888D02*
X12663039Y-12402746D01*
X12663039Y-12402746D02*
X12672563Y-12383698D01*
X12672563Y-12383698D02*
X12682087Y-12374174D01*
X12682087Y-12374174D02*
X12701134Y-12364650D01*
X12701134Y-12364650D02*
X12729706Y-12364650D01*
X12729706Y-12364650D02*
X12748753Y-12374174D01*
X12748753Y-12374174D02*
X12758277Y-12383698D01*
X12758277Y-12383698D02*
X12767801Y-12402746D01*
X12767801Y-12402746D02*
X12767801Y-12459888D01*
X12767801Y-12459888D02*
X12758277Y-12478936D01*
X12758277Y-12478936D02*
X12748753Y-12488460D01*
X12748753Y-12488460D02*
X12729706Y-12497984D01*
X12729706Y-12497984D02*
X12701134Y-12497984D01*
X12882087Y-12497984D02*
X12863039Y-12488460D01*
X12863039Y-12488460D02*
X12853515Y-12469412D01*
X12853515Y-12469412D02*
X12853515Y-12297984D01*
X13034468Y-12488460D02*
X13015420Y-12497984D01*
X13015420Y-12497984D02*
X12977325Y-12497984D01*
X12977325Y-12497984D02*
X12958277Y-12488460D01*
X12958277Y-12488460D02*
X12948753Y-12469412D01*
X12948753Y-12469412D02*
X12948753Y-12393222D01*
X12948753Y-12393222D02*
X12958277Y-12374174D01*
X12958277Y-12374174D02*
X12977325Y-12364650D01*
X12977325Y-12364650D02*
X13015420Y-12364650D01*
X13015420Y-12364650D02*
X13034468Y-12374174D01*
X13034468Y-12374174D02*
X13043991Y-12393222D01*
X13043991Y-12393222D02*
X13043991Y-12412269D01*
X13043991Y-12412269D02*
X12948753Y-12431317D01*
X13120182Y-12488460D02*
X13139230Y-12497984D01*
X13139230Y-12497984D02*
X13177325Y-12497984D01*
X13177325Y-12497984D02*
X13196372Y-12488460D01*
X13196372Y-12488460D02*
X13205896Y-12469412D01*
X13205896Y-12469412D02*
X13205896Y-12459888D01*
X13205896Y-12459888D02*
X13196372Y-12440841D01*
X13196372Y-12440841D02*
X13177325Y-12431317D01*
X13177325Y-12431317D02*
X13148753Y-12431317D01*
X13148753Y-12431317D02*
X13129706Y-12421793D01*
X13129706Y-12421793D02*
X13120182Y-12402746D01*
X13120182Y-12402746D02*
X13120182Y-12393222D01*
X13120182Y-12393222D02*
X13129706Y-12374174D01*
X13129706Y-12374174D02*
X13148753Y-12364650D01*
X13148753Y-12364650D02*
X13177325Y-12364650D01*
X13177325Y-12364650D02*
X13196372Y-12374174D01*
X13443992Y-12421793D02*
X13596373Y-12421793D01*
X13520182Y-12497984D02*
X13520182Y-12345603D01*
X13929706Y-12364650D02*
X13929706Y-12497984D01*
X13882087Y-12288460D02*
X13834468Y-12431317D01*
X13834468Y-12431317D02*
X13958277Y-12431317D01*
X14177325Y-12488460D02*
X14196373Y-12497984D01*
X14196373Y-12497984D02*
X14234468Y-12497984D01*
X14234468Y-12497984D02*
X14253515Y-12488460D01*
X14253515Y-12488460D02*
X14263039Y-12469412D01*
X14263039Y-12469412D02*
X14263039Y-12459888D01*
X14263039Y-12459888D02*
X14253515Y-12440841D01*
X14253515Y-12440841D02*
X14234468Y-12431317D01*
X14234468Y-12431317D02*
X14205896Y-12431317D01*
X14205896Y-12431317D02*
X14186849Y-12421793D01*
X14186849Y-12421793D02*
X14177325Y-12402746D01*
X14177325Y-12402746D02*
X14177325Y-12393222D01*
X14177325Y-12393222D02*
X14186849Y-12374174D01*
X14186849Y-12374174D02*
X14205896Y-12364650D01*
X14205896Y-12364650D02*
X14234468Y-12364650D01*
X14234468Y-12364650D02*
X14253515Y-12374174D01*
X14377325Y-12497984D02*
X14358277Y-12488460D01*
X14358277Y-12488460D02*
X14348754Y-12469412D01*
X14348754Y-12469412D02*
X14348754Y-12297984D01*
X14482087Y-12497984D02*
X14463039Y-12488460D01*
X14463039Y-12488460D02*
X14453515Y-12478936D01*
X14453515Y-12478936D02*
X14443992Y-12459888D01*
X14443992Y-12459888D02*
X14443992Y-12402746D01*
X14443992Y-12402746D02*
X14453515Y-12383698D01*
X14453515Y-12383698D02*
X14463039Y-12374174D01*
X14463039Y-12374174D02*
X14482087Y-12364650D01*
X14482087Y-12364650D02*
X14510658Y-12364650D01*
X14510658Y-12364650D02*
X14529706Y-12374174D01*
X14529706Y-12374174D02*
X14539230Y-12383698D01*
X14539230Y-12383698D02*
X14548754Y-12402746D01*
X14548754Y-12402746D02*
X14548754Y-12459888D01*
X14548754Y-12459888D02*
X14539230Y-12478936D01*
X14539230Y-12478936D02*
X14529706Y-12488460D01*
X14529706Y-12488460D02*
X14510658Y-12497984D01*
X14510658Y-12497984D02*
X14482087Y-12497984D01*
X14605896Y-12364650D02*
X14682087Y-12364650D01*
X14634468Y-12297984D02*
X14634468Y-12469412D01*
X14634468Y-12469412D02*
X14643992Y-12488460D01*
X14643992Y-12488460D02*
X14663039Y-12497984D01*
X14663039Y-12497984D02*
X14682087Y-12497984D01*
X14739230Y-12488460D02*
X14758277Y-12497984D01*
X14758277Y-12497984D02*
X14796373Y-12497984D01*
X14796373Y-12497984D02*
X14815420Y-12488460D01*
X14815420Y-12488460D02*
X14824944Y-12469412D01*
X14824944Y-12469412D02*
X14824944Y-12459888D01*
X14824944Y-12459888D02*
X14815420Y-12440841D01*
X14815420Y-12440841D02*
X14796373Y-12431317D01*
X14796373Y-12431317D02*
X14767801Y-12431317D01*
X14767801Y-12431317D02*
X14748754Y-12421793D01*
X14748754Y-12421793D02*
X14739230Y-12402746D01*
X14739230Y-12402746D02*
X14739230Y-12393222D01*
X14739230Y-12393222D02*
X14748754Y-12374174D01*
X14748754Y-12374174D02*
X14767801Y-12364650D01*
X14767801Y-12364650D02*
X14796373Y-12364650D01*
X14796373Y-12364650D02*
X14815420Y-12374174D01*
X14891611Y-12574174D02*
X14901135Y-12564650D01*
X14901135Y-12564650D02*
X14920182Y-12536079D01*
X14920182Y-12536079D02*
X14929706Y-12517031D01*
X14929706Y-12517031D02*
X14939230Y-12488460D01*
X14939230Y-12488460D02*
X14948754Y-12440841D01*
X14948754Y-12440841D02*
X14948754Y-12402746D01*
X14948754Y-12402746D02*
X14939230Y-12355127D01*
X14939230Y-12355127D02*
X14929706Y-12326555D01*
X14929706Y-12326555D02*
X14920182Y-12307508D01*
X14920182Y-12307508D02*
X14901135Y-12278936D01*
X14901135Y-12278936D02*
X14891611Y-12269412D01*
D12*
X8467500Y-12640500D02*
X8467500Y-12700500D01*
X8437500Y-12670500D02*
X8497500Y-12670500D01*
D11*
X8796372Y-12561984D02*
X8815420Y-12561984D01*
X8815420Y-12561984D02*
X8834467Y-12571508D01*
X8834467Y-12571508D02*
X8843991Y-12581031D01*
X8843991Y-12581031D02*
X8853515Y-12600079D01*
X8853515Y-12600079D02*
X8863039Y-12638174D01*
X8863039Y-12638174D02*
X8863039Y-12685793D01*
X8863039Y-12685793D02*
X8853515Y-12723888D01*
X8853515Y-12723888D02*
X8843991Y-12742936D01*
X8843991Y-12742936D02*
X8834467Y-12752460D01*
X8834467Y-12752460D02*
X8815420Y-12761984D01*
X8815420Y-12761984D02*
X8796372Y-12761984D01*
X8796372Y-12761984D02*
X8777324Y-12752460D01*
X8777324Y-12752460D02*
X8767801Y-12742936D01*
X8767801Y-12742936D02*
X8758277Y-12723888D01*
X8758277Y-12723888D02*
X8748753Y-12685793D01*
X8748753Y-12685793D02*
X8748753Y-12638174D01*
X8748753Y-12638174D02*
X8758277Y-12600079D01*
X8758277Y-12600079D02*
X8767801Y-12581031D01*
X8767801Y-12581031D02*
X8777324Y-12571508D01*
X8777324Y-12571508D02*
X8796372Y-12561984D01*
X8948753Y-12742936D02*
X8958277Y-12752460D01*
X8958277Y-12752460D02*
X8948753Y-12761984D01*
X8948753Y-12761984D02*
X8939229Y-12752460D01*
X8939229Y-12752460D02*
X8948753Y-12742936D01*
X8948753Y-12742936D02*
X8948753Y-12761984D01*
X9129705Y-12561984D02*
X9091610Y-12561984D01*
X9091610Y-12561984D02*
X9072563Y-12571508D01*
X9072563Y-12571508D02*
X9063039Y-12581031D01*
X9063039Y-12581031D02*
X9043991Y-12609603D01*
X9043991Y-12609603D02*
X9034467Y-12647698D01*
X9034467Y-12647698D02*
X9034467Y-12723888D01*
X9034467Y-12723888D02*
X9043991Y-12742936D01*
X9043991Y-12742936D02*
X9053515Y-12752460D01*
X9053515Y-12752460D02*
X9072563Y-12761984D01*
X9072563Y-12761984D02*
X9110658Y-12761984D01*
X9110658Y-12761984D02*
X9129705Y-12752460D01*
X9129705Y-12752460D02*
X9139229Y-12742936D01*
X9139229Y-12742936D02*
X9148753Y-12723888D01*
X9148753Y-12723888D02*
X9148753Y-12676269D01*
X9148753Y-12676269D02*
X9139229Y-12657222D01*
X9139229Y-12657222D02*
X9129705Y-12647698D01*
X9129705Y-12647698D02*
X9110658Y-12638174D01*
X9110658Y-12638174D02*
X9072563Y-12638174D01*
X9072563Y-12638174D02*
X9053515Y-12647698D01*
X9053515Y-12647698D02*
X9043991Y-12657222D01*
X9043991Y-12657222D02*
X9034467Y-12676269D01*
X9272563Y-12561984D02*
X9291610Y-12561984D01*
X9291610Y-12561984D02*
X9310658Y-12571508D01*
X9310658Y-12571508D02*
X9320182Y-12581031D01*
X9320182Y-12581031D02*
X9329705Y-12600079D01*
X9329705Y-12600079D02*
X9339229Y-12638174D01*
X9339229Y-12638174D02*
X9339229Y-12685793D01*
X9339229Y-12685793D02*
X9329705Y-12723888D01*
X9329705Y-12723888D02*
X9320182Y-12742936D01*
X9320182Y-12742936D02*
X9310658Y-12752460D01*
X9310658Y-12752460D02*
X9291610Y-12761984D01*
X9291610Y-12761984D02*
X9272563Y-12761984D01*
X9272563Y-12761984D02*
X9253515Y-12752460D01*
X9253515Y-12752460D02*
X9243991Y-12742936D01*
X9243991Y-12742936D02*
X9234467Y-12723888D01*
X9234467Y-12723888D02*
X9224944Y-12685793D01*
X9224944Y-12685793D02*
X9224944Y-12638174D01*
X9224944Y-12638174D02*
X9234467Y-12600079D01*
X9234467Y-12600079D02*
X9243991Y-12581031D01*
X9243991Y-12581031D02*
X9253515Y-12571508D01*
X9253515Y-12571508D02*
X9272563Y-12561984D01*
X9463039Y-12561984D02*
X9482086Y-12561984D01*
X9482086Y-12561984D02*
X9501134Y-12571508D01*
X9501134Y-12571508D02*
X9510658Y-12581031D01*
X9510658Y-12581031D02*
X9520182Y-12600079D01*
X9520182Y-12600079D02*
X9529705Y-12638174D01*
X9529705Y-12638174D02*
X9529705Y-12685793D01*
X9529705Y-12685793D02*
X9520182Y-12723888D01*
X9520182Y-12723888D02*
X9510658Y-12742936D01*
X9510658Y-12742936D02*
X9501134Y-12752460D01*
X9501134Y-12752460D02*
X9482086Y-12761984D01*
X9482086Y-12761984D02*
X9463039Y-12761984D01*
X9463039Y-12761984D02*
X9443991Y-12752460D01*
X9443991Y-12752460D02*
X9434467Y-12742936D01*
X9434467Y-12742936D02*
X9424944Y-12723888D01*
X9424944Y-12723888D02*
X9415420Y-12685793D01*
X9415420Y-12685793D02*
X9415420Y-12638174D01*
X9415420Y-12638174D02*
X9424944Y-12600079D01*
X9424944Y-12600079D02*
X9434467Y-12581031D01*
X9434467Y-12581031D02*
X9443991Y-12571508D01*
X9443991Y-12571508D02*
X9463039Y-12561984D01*
X9615420Y-12761984D02*
X9615420Y-12628650D01*
X9615420Y-12647698D02*
X9624944Y-12638174D01*
X9624944Y-12638174D02*
X9643991Y-12628650D01*
X9643991Y-12628650D02*
X9672563Y-12628650D01*
X9672563Y-12628650D02*
X9691610Y-12638174D01*
X9691610Y-12638174D02*
X9701134Y-12657222D01*
X9701134Y-12657222D02*
X9701134Y-12761984D01*
X9701134Y-12657222D02*
X9710658Y-12638174D01*
X9710658Y-12638174D02*
X9729705Y-12628650D01*
X9729705Y-12628650D02*
X9758277Y-12628650D01*
X9758277Y-12628650D02*
X9777325Y-12638174D01*
X9777325Y-12638174D02*
X9786848Y-12657222D01*
X9786848Y-12657222D02*
X9786848Y-12761984D01*
X9882086Y-12761984D02*
X9882086Y-12628650D01*
X9882086Y-12647698D02*
X9891610Y-12638174D01*
X9891610Y-12638174D02*
X9910658Y-12628650D01*
X9910658Y-12628650D02*
X9939229Y-12628650D01*
X9939229Y-12628650D02*
X9958277Y-12638174D01*
X9958277Y-12638174D02*
X9967801Y-12657222D01*
X9967801Y-12657222D02*
X9967801Y-12761984D01*
X9967801Y-12657222D02*
X9977325Y-12638174D01*
X9977325Y-12638174D02*
X9996372Y-12628650D01*
X9996372Y-12628650D02*
X10024944Y-12628650D01*
X10024944Y-12628650D02*
X10043991Y-12638174D01*
X10043991Y-12638174D02*
X10053515Y-12657222D01*
X10053515Y-12657222D02*
X10053515Y-12761984D01*
X10443991Y-12552460D02*
X10272563Y-12809603D01*
X10701134Y-12561984D02*
X10720182Y-12561984D01*
X10720182Y-12561984D02*
X10739229Y-12571508D01*
X10739229Y-12571508D02*
X10748753Y-12581031D01*
X10748753Y-12581031D02*
X10758277Y-12600079D01*
X10758277Y-12600079D02*
X10767801Y-12638174D01*
X10767801Y-12638174D02*
X10767801Y-12685793D01*
X10767801Y-12685793D02*
X10758277Y-12723888D01*
X10758277Y-12723888D02*
X10748753Y-12742936D01*
X10748753Y-12742936D02*
X10739229Y-12752460D01*
X10739229Y-12752460D02*
X10720182Y-12761984D01*
X10720182Y-12761984D02*
X10701134Y-12761984D01*
X10701134Y-12761984D02*
X10682087Y-12752460D01*
X10682087Y-12752460D02*
X10672563Y-12742936D01*
X10672563Y-12742936D02*
X10663039Y-12723888D01*
X10663039Y-12723888D02*
X10653515Y-12685793D01*
X10653515Y-12685793D02*
X10653515Y-12638174D01*
X10653515Y-12638174D02*
X10663039Y-12600079D01*
X10663039Y-12600079D02*
X10672563Y-12581031D01*
X10672563Y-12581031D02*
X10682087Y-12571508D01*
X10682087Y-12571508D02*
X10701134Y-12561984D01*
X10853515Y-12742936D02*
X10863039Y-12752460D01*
X10863039Y-12752460D02*
X10853515Y-12761984D01*
X10853515Y-12761984D02*
X10843991Y-12752460D01*
X10843991Y-12752460D02*
X10853515Y-12742936D01*
X10853515Y-12742936D02*
X10853515Y-12761984D01*
X10986848Y-12561984D02*
X11005896Y-12561984D01*
X11005896Y-12561984D02*
X11024944Y-12571508D01*
X11024944Y-12571508D02*
X11034468Y-12581031D01*
X11034468Y-12581031D02*
X11043991Y-12600079D01*
X11043991Y-12600079D02*
X11053515Y-12638174D01*
X11053515Y-12638174D02*
X11053515Y-12685793D01*
X11053515Y-12685793D02*
X11043991Y-12723888D01*
X11043991Y-12723888D02*
X11034468Y-12742936D01*
X11034468Y-12742936D02*
X11024944Y-12752460D01*
X11024944Y-12752460D02*
X11005896Y-12761984D01*
X11005896Y-12761984D02*
X10986848Y-12761984D01*
X10986848Y-12761984D02*
X10967801Y-12752460D01*
X10967801Y-12752460D02*
X10958277Y-12742936D01*
X10958277Y-12742936D02*
X10948753Y-12723888D01*
X10948753Y-12723888D02*
X10939229Y-12685793D01*
X10939229Y-12685793D02*
X10939229Y-12638174D01*
X10939229Y-12638174D02*
X10948753Y-12600079D01*
X10948753Y-12600079D02*
X10958277Y-12581031D01*
X10958277Y-12581031D02*
X10967801Y-12571508D01*
X10967801Y-12571508D02*
X10986848Y-12561984D01*
X11129706Y-12581031D02*
X11139229Y-12571508D01*
X11139229Y-12571508D02*
X11158277Y-12561984D01*
X11158277Y-12561984D02*
X11205896Y-12561984D01*
X11205896Y-12561984D02*
X11224944Y-12571508D01*
X11224944Y-12571508D02*
X11234467Y-12581031D01*
X11234467Y-12581031D02*
X11243991Y-12600079D01*
X11243991Y-12600079D02*
X11243991Y-12619127D01*
X11243991Y-12619127D02*
X11234467Y-12647698D01*
X11234467Y-12647698D02*
X11120182Y-12761984D01*
X11120182Y-12761984D02*
X11243991Y-12761984D01*
X11310658Y-12561984D02*
X11434467Y-12561984D01*
X11434467Y-12561984D02*
X11367801Y-12638174D01*
X11367801Y-12638174D02*
X11396372Y-12638174D01*
X11396372Y-12638174D02*
X11415420Y-12647698D01*
X11415420Y-12647698D02*
X11424944Y-12657222D01*
X11424944Y-12657222D02*
X11434467Y-12676269D01*
X11434467Y-12676269D02*
X11434467Y-12723888D01*
X11434467Y-12723888D02*
X11424944Y-12742936D01*
X11424944Y-12742936D02*
X11415420Y-12752460D01*
X11415420Y-12752460D02*
X11396372Y-12761984D01*
X11396372Y-12761984D02*
X11339229Y-12761984D01*
X11339229Y-12761984D02*
X11320182Y-12752460D01*
X11320182Y-12752460D02*
X11310658Y-12742936D01*
X11605896Y-12561984D02*
X11567801Y-12561984D01*
X11567801Y-12561984D02*
X11548753Y-12571508D01*
X11548753Y-12571508D02*
X11539229Y-12581031D01*
X11539229Y-12581031D02*
X11520182Y-12609603D01*
X11520182Y-12609603D02*
X11510658Y-12647698D01*
X11510658Y-12647698D02*
X11510658Y-12723888D01*
X11510658Y-12723888D02*
X11520182Y-12742936D01*
X11520182Y-12742936D02*
X11529706Y-12752460D01*
X11529706Y-12752460D02*
X11548753Y-12761984D01*
X11548753Y-12761984D02*
X11586848Y-12761984D01*
X11586848Y-12761984D02*
X11605896Y-12752460D01*
X11605896Y-12752460D02*
X11615420Y-12742936D01*
X11615420Y-12742936D02*
X11624944Y-12723888D01*
X11624944Y-12723888D02*
X11624944Y-12676269D01*
X11624944Y-12676269D02*
X11615420Y-12657222D01*
X11615420Y-12657222D02*
X11605896Y-12647698D01*
X11605896Y-12647698D02*
X11586848Y-12638174D01*
X11586848Y-12638174D02*
X11548753Y-12638174D01*
X11548753Y-12638174D02*
X11529706Y-12647698D01*
X11529706Y-12647698D02*
X11520182Y-12657222D01*
X11520182Y-12657222D02*
X11510658Y-12676269D01*
X11701134Y-12561984D02*
X11701134Y-12600079D01*
X11777325Y-12561984D02*
X11777325Y-12600079D01*
X12072563Y-12838174D02*
X12063039Y-12828650D01*
X12063039Y-12828650D02*
X12043991Y-12800079D01*
X12043991Y-12800079D02*
X12034468Y-12781031D01*
X12034468Y-12781031D02*
X12024944Y-12752460D01*
X12024944Y-12752460D02*
X12015420Y-12704841D01*
X12015420Y-12704841D02*
X12015420Y-12666746D01*
X12015420Y-12666746D02*
X12024944Y-12619127D01*
X12024944Y-12619127D02*
X12034468Y-12590555D01*
X12034468Y-12590555D02*
X12043991Y-12571508D01*
X12043991Y-12571508D02*
X12063039Y-12542936D01*
X12063039Y-12542936D02*
X12072563Y-12533412D01*
X12253515Y-12761984D02*
X12139229Y-12761984D01*
X12196372Y-12761984D02*
X12196372Y-12561984D01*
X12196372Y-12561984D02*
X12177325Y-12590555D01*
X12177325Y-12590555D02*
X12158277Y-12609603D01*
X12158277Y-12609603D02*
X12139229Y-12619127D01*
X12491610Y-12761984D02*
X12491610Y-12561984D01*
X12577325Y-12761984D02*
X12577325Y-12657222D01*
X12577325Y-12657222D02*
X12567801Y-12638174D01*
X12567801Y-12638174D02*
X12548753Y-12628650D01*
X12548753Y-12628650D02*
X12520182Y-12628650D01*
X12520182Y-12628650D02*
X12501134Y-12638174D01*
X12501134Y-12638174D02*
X12491610Y-12647698D01*
X12701134Y-12761984D02*
X12682087Y-12752460D01*
X12682087Y-12752460D02*
X12672563Y-12742936D01*
X12672563Y-12742936D02*
X12663039Y-12723888D01*
X12663039Y-12723888D02*
X12663039Y-12666746D01*
X12663039Y-12666746D02*
X12672563Y-12647698D01*
X12672563Y-12647698D02*
X12682087Y-12638174D01*
X12682087Y-12638174D02*
X12701134Y-12628650D01*
X12701134Y-12628650D02*
X12729706Y-12628650D01*
X12729706Y-12628650D02*
X12748753Y-12638174D01*
X12748753Y-12638174D02*
X12758277Y-12647698D01*
X12758277Y-12647698D02*
X12767801Y-12666746D01*
X12767801Y-12666746D02*
X12767801Y-12723888D01*
X12767801Y-12723888D02*
X12758277Y-12742936D01*
X12758277Y-12742936D02*
X12748753Y-12752460D01*
X12748753Y-12752460D02*
X12729706Y-12761984D01*
X12729706Y-12761984D02*
X12701134Y-12761984D01*
X12882087Y-12761984D02*
X12863039Y-12752460D01*
X12863039Y-12752460D02*
X12853515Y-12733412D01*
X12853515Y-12733412D02*
X12853515Y-12561984D01*
X13034468Y-12752460D02*
X13015420Y-12761984D01*
X13015420Y-12761984D02*
X12977325Y-12761984D01*
X12977325Y-12761984D02*
X12958277Y-12752460D01*
X12958277Y-12752460D02*
X12948753Y-12733412D01*
X12948753Y-12733412D02*
X12948753Y-12657222D01*
X12948753Y-12657222D02*
X12958277Y-12638174D01*
X12958277Y-12638174D02*
X12977325Y-12628650D01*
X12977325Y-12628650D02*
X13015420Y-12628650D01*
X13015420Y-12628650D02*
X13034468Y-12638174D01*
X13034468Y-12638174D02*
X13043991Y-12657222D01*
X13043991Y-12657222D02*
X13043991Y-12676269D01*
X13043991Y-12676269D02*
X12948753Y-12695317D01*
X13110658Y-12838174D02*
X13120182Y-12828650D01*
X13120182Y-12828650D02*
X13139230Y-12800079D01*
X13139230Y-12800079D02*
X13148753Y-12781031D01*
X13148753Y-12781031D02*
X13158277Y-12752460D01*
X13158277Y-12752460D02*
X13167801Y-12704841D01*
X13167801Y-12704841D02*
X13167801Y-12666746D01*
X13167801Y-12666746D02*
X13158277Y-12619127D01*
X13158277Y-12619127D02*
X13148753Y-12590555D01*
X13148753Y-12590555D02*
X13139230Y-12571508D01*
X13139230Y-12571508D02*
X13120182Y-12542936D01*
X13120182Y-12542936D02*
X13110658Y-12533412D01*
D12*
X8488713Y-12955713D02*
X8488713Y-12913287D01*
X8446287Y-12913287D01*
X8446287Y-12955713D01*
X8488713Y-12955713D01*
D11*
X8796372Y-12825984D02*
X8815420Y-12825984D01*
X8815420Y-12825984D02*
X8834467Y-12835508D01*
X8834467Y-12835508D02*
X8843991Y-12845031D01*
X8843991Y-12845031D02*
X8853515Y-12864079D01*
X8853515Y-12864079D02*
X8863039Y-12902174D01*
X8863039Y-12902174D02*
X8863039Y-12949793D01*
X8863039Y-12949793D02*
X8853515Y-12987888D01*
X8853515Y-12987888D02*
X8843991Y-13006936D01*
X8843991Y-13006936D02*
X8834467Y-13016460D01*
X8834467Y-13016460D02*
X8815420Y-13025984D01*
X8815420Y-13025984D02*
X8796372Y-13025984D01*
X8796372Y-13025984D02*
X8777324Y-13016460D01*
X8777324Y-13016460D02*
X8767801Y-13006936D01*
X8767801Y-13006936D02*
X8758277Y-12987888D01*
X8758277Y-12987888D02*
X8748753Y-12949793D01*
X8748753Y-12949793D02*
X8748753Y-12902174D01*
X8748753Y-12902174D02*
X8758277Y-12864079D01*
X8758277Y-12864079D02*
X8767801Y-12845031D01*
X8767801Y-12845031D02*
X8777324Y-12835508D01*
X8777324Y-12835508D02*
X8796372Y-12825984D01*
X8948753Y-13006936D02*
X8958277Y-13016460D01*
X8958277Y-13016460D02*
X8948753Y-13025984D01*
X8948753Y-13025984D02*
X8939229Y-13016460D01*
X8939229Y-13016460D02*
X8948753Y-13006936D01*
X8948753Y-13006936D02*
X8948753Y-13025984D01*
X9129705Y-12825984D02*
X9091610Y-12825984D01*
X9091610Y-12825984D02*
X9072563Y-12835508D01*
X9072563Y-12835508D02*
X9063039Y-12845031D01*
X9063039Y-12845031D02*
X9043991Y-12873603D01*
X9043991Y-12873603D02*
X9034467Y-12911698D01*
X9034467Y-12911698D02*
X9034467Y-12987888D01*
X9034467Y-12987888D02*
X9043991Y-13006936D01*
X9043991Y-13006936D02*
X9053515Y-13016460D01*
X9053515Y-13016460D02*
X9072563Y-13025984D01*
X9072563Y-13025984D02*
X9110658Y-13025984D01*
X9110658Y-13025984D02*
X9129705Y-13016460D01*
X9129705Y-13016460D02*
X9139229Y-13006936D01*
X9139229Y-13006936D02*
X9148753Y-12987888D01*
X9148753Y-12987888D02*
X9148753Y-12940269D01*
X9148753Y-12940269D02*
X9139229Y-12921222D01*
X9139229Y-12921222D02*
X9129705Y-12911698D01*
X9129705Y-12911698D02*
X9110658Y-12902174D01*
X9110658Y-12902174D02*
X9072563Y-12902174D01*
X9072563Y-12902174D02*
X9053515Y-12911698D01*
X9053515Y-12911698D02*
X9043991Y-12921222D01*
X9043991Y-12921222D02*
X9034467Y-12940269D01*
X9272563Y-12825984D02*
X9291610Y-12825984D01*
X9291610Y-12825984D02*
X9310658Y-12835508D01*
X9310658Y-12835508D02*
X9320182Y-12845031D01*
X9320182Y-12845031D02*
X9329705Y-12864079D01*
X9329705Y-12864079D02*
X9339229Y-12902174D01*
X9339229Y-12902174D02*
X9339229Y-12949793D01*
X9339229Y-12949793D02*
X9329705Y-12987888D01*
X9329705Y-12987888D02*
X9320182Y-13006936D01*
X9320182Y-13006936D02*
X9310658Y-13016460D01*
X9310658Y-13016460D02*
X9291610Y-13025984D01*
X9291610Y-13025984D02*
X9272563Y-13025984D01*
X9272563Y-13025984D02*
X9253515Y-13016460D01*
X9253515Y-13016460D02*
X9243991Y-13006936D01*
X9243991Y-13006936D02*
X9234467Y-12987888D01*
X9234467Y-12987888D02*
X9224944Y-12949793D01*
X9224944Y-12949793D02*
X9224944Y-12902174D01*
X9224944Y-12902174D02*
X9234467Y-12864079D01*
X9234467Y-12864079D02*
X9243991Y-12845031D01*
X9243991Y-12845031D02*
X9253515Y-12835508D01*
X9253515Y-12835508D02*
X9272563Y-12825984D01*
X9463039Y-12825984D02*
X9482086Y-12825984D01*
X9482086Y-12825984D02*
X9501134Y-12835508D01*
X9501134Y-12835508D02*
X9510658Y-12845031D01*
X9510658Y-12845031D02*
X9520182Y-12864079D01*
X9520182Y-12864079D02*
X9529705Y-12902174D01*
X9529705Y-12902174D02*
X9529705Y-12949793D01*
X9529705Y-12949793D02*
X9520182Y-12987888D01*
X9520182Y-12987888D02*
X9510658Y-13006936D01*
X9510658Y-13006936D02*
X9501134Y-13016460D01*
X9501134Y-13016460D02*
X9482086Y-13025984D01*
X9482086Y-13025984D02*
X9463039Y-13025984D01*
X9463039Y-13025984D02*
X9443991Y-13016460D01*
X9443991Y-13016460D02*
X9434467Y-13006936D01*
X9434467Y-13006936D02*
X9424944Y-12987888D01*
X9424944Y-12987888D02*
X9415420Y-12949793D01*
X9415420Y-12949793D02*
X9415420Y-12902174D01*
X9415420Y-12902174D02*
X9424944Y-12864079D01*
X9424944Y-12864079D02*
X9434467Y-12845031D01*
X9434467Y-12845031D02*
X9443991Y-12835508D01*
X9443991Y-12835508D02*
X9463039Y-12825984D01*
X9615420Y-13025984D02*
X9615420Y-12892650D01*
X9615420Y-12911698D02*
X9624944Y-12902174D01*
X9624944Y-12902174D02*
X9643991Y-12892650D01*
X9643991Y-12892650D02*
X9672563Y-12892650D01*
X9672563Y-12892650D02*
X9691610Y-12902174D01*
X9691610Y-12902174D02*
X9701134Y-12921222D01*
X9701134Y-12921222D02*
X9701134Y-13025984D01*
X9701134Y-12921222D02*
X9710658Y-12902174D01*
X9710658Y-12902174D02*
X9729705Y-12892650D01*
X9729705Y-12892650D02*
X9758277Y-12892650D01*
X9758277Y-12892650D02*
X9777325Y-12902174D01*
X9777325Y-12902174D02*
X9786848Y-12921222D01*
X9786848Y-12921222D02*
X9786848Y-13025984D01*
X9882086Y-13025984D02*
X9882086Y-12892650D01*
X9882086Y-12911698D02*
X9891610Y-12902174D01*
X9891610Y-12902174D02*
X9910658Y-12892650D01*
X9910658Y-12892650D02*
X9939229Y-12892650D01*
X9939229Y-12892650D02*
X9958277Y-12902174D01*
X9958277Y-12902174D02*
X9967801Y-12921222D01*
X9967801Y-12921222D02*
X9967801Y-13025984D01*
X9967801Y-12921222D02*
X9977325Y-12902174D01*
X9977325Y-12902174D02*
X9996372Y-12892650D01*
X9996372Y-12892650D02*
X10024944Y-12892650D01*
X10024944Y-12892650D02*
X10043991Y-12902174D01*
X10043991Y-12902174D02*
X10053515Y-12921222D01*
X10053515Y-12921222D02*
X10053515Y-13025984D01*
X10443991Y-12816460D02*
X10272563Y-13073603D01*
X10701134Y-12825984D02*
X10720182Y-12825984D01*
X10720182Y-12825984D02*
X10739229Y-12835508D01*
X10739229Y-12835508D02*
X10748753Y-12845031D01*
X10748753Y-12845031D02*
X10758277Y-12864079D01*
X10758277Y-12864079D02*
X10767801Y-12902174D01*
X10767801Y-12902174D02*
X10767801Y-12949793D01*
X10767801Y-12949793D02*
X10758277Y-12987888D01*
X10758277Y-12987888D02*
X10748753Y-13006936D01*
X10748753Y-13006936D02*
X10739229Y-13016460D01*
X10739229Y-13016460D02*
X10720182Y-13025984D01*
X10720182Y-13025984D02*
X10701134Y-13025984D01*
X10701134Y-13025984D02*
X10682087Y-13016460D01*
X10682087Y-13016460D02*
X10672563Y-13006936D01*
X10672563Y-13006936D02*
X10663039Y-12987888D01*
X10663039Y-12987888D02*
X10653515Y-12949793D01*
X10653515Y-12949793D02*
X10653515Y-12902174D01*
X10653515Y-12902174D02*
X10663039Y-12864079D01*
X10663039Y-12864079D02*
X10672563Y-12845031D01*
X10672563Y-12845031D02*
X10682087Y-12835508D01*
X10682087Y-12835508D02*
X10701134Y-12825984D01*
X10853515Y-13006936D02*
X10863039Y-13016460D01*
X10863039Y-13016460D02*
X10853515Y-13025984D01*
X10853515Y-13025984D02*
X10843991Y-13016460D01*
X10843991Y-13016460D02*
X10853515Y-13006936D01*
X10853515Y-13006936D02*
X10853515Y-13025984D01*
X10986848Y-12825984D02*
X11005896Y-12825984D01*
X11005896Y-12825984D02*
X11024944Y-12835508D01*
X11024944Y-12835508D02*
X11034468Y-12845031D01*
X11034468Y-12845031D02*
X11043991Y-12864079D01*
X11043991Y-12864079D02*
X11053515Y-12902174D01*
X11053515Y-12902174D02*
X11053515Y-12949793D01*
X11053515Y-12949793D02*
X11043991Y-12987888D01*
X11043991Y-12987888D02*
X11034468Y-13006936D01*
X11034468Y-13006936D02*
X11024944Y-13016460D01*
X11024944Y-13016460D02*
X11005896Y-13025984D01*
X11005896Y-13025984D02*
X10986848Y-13025984D01*
X10986848Y-13025984D02*
X10967801Y-13016460D01*
X10967801Y-13016460D02*
X10958277Y-13006936D01*
X10958277Y-13006936D02*
X10948753Y-12987888D01*
X10948753Y-12987888D02*
X10939229Y-12949793D01*
X10939229Y-12949793D02*
X10939229Y-12902174D01*
X10939229Y-12902174D02*
X10948753Y-12864079D01*
X10948753Y-12864079D02*
X10958277Y-12845031D01*
X10958277Y-12845031D02*
X10967801Y-12835508D01*
X10967801Y-12835508D02*
X10986848Y-12825984D01*
X11129706Y-12845031D02*
X11139229Y-12835508D01*
X11139229Y-12835508D02*
X11158277Y-12825984D01*
X11158277Y-12825984D02*
X11205896Y-12825984D01*
X11205896Y-12825984D02*
X11224944Y-12835508D01*
X11224944Y-12835508D02*
X11234467Y-12845031D01*
X11234467Y-12845031D02*
X11243991Y-12864079D01*
X11243991Y-12864079D02*
X11243991Y-12883127D01*
X11243991Y-12883127D02*
X11234467Y-12911698D01*
X11234467Y-12911698D02*
X11120182Y-13025984D01*
X11120182Y-13025984D02*
X11243991Y-13025984D01*
X11310658Y-12825984D02*
X11434467Y-12825984D01*
X11434467Y-12825984D02*
X11367801Y-12902174D01*
X11367801Y-12902174D02*
X11396372Y-12902174D01*
X11396372Y-12902174D02*
X11415420Y-12911698D01*
X11415420Y-12911698D02*
X11424944Y-12921222D01*
X11424944Y-12921222D02*
X11434467Y-12940269D01*
X11434467Y-12940269D02*
X11434467Y-12987888D01*
X11434467Y-12987888D02*
X11424944Y-13006936D01*
X11424944Y-13006936D02*
X11415420Y-13016460D01*
X11415420Y-13016460D02*
X11396372Y-13025984D01*
X11396372Y-13025984D02*
X11339229Y-13025984D01*
X11339229Y-13025984D02*
X11320182Y-13016460D01*
X11320182Y-13016460D02*
X11310658Y-13006936D01*
X11605896Y-12825984D02*
X11567801Y-12825984D01*
X11567801Y-12825984D02*
X11548753Y-12835508D01*
X11548753Y-12835508D02*
X11539229Y-12845031D01*
X11539229Y-12845031D02*
X11520182Y-12873603D01*
X11520182Y-12873603D02*
X11510658Y-12911698D01*
X11510658Y-12911698D02*
X11510658Y-12987888D01*
X11510658Y-12987888D02*
X11520182Y-13006936D01*
X11520182Y-13006936D02*
X11529706Y-13016460D01*
X11529706Y-13016460D02*
X11548753Y-13025984D01*
X11548753Y-13025984D02*
X11586848Y-13025984D01*
X11586848Y-13025984D02*
X11605896Y-13016460D01*
X11605896Y-13016460D02*
X11615420Y-13006936D01*
X11615420Y-13006936D02*
X11624944Y-12987888D01*
X11624944Y-12987888D02*
X11624944Y-12940269D01*
X11624944Y-12940269D02*
X11615420Y-12921222D01*
X11615420Y-12921222D02*
X11605896Y-12911698D01*
X11605896Y-12911698D02*
X11586848Y-12902174D01*
X11586848Y-12902174D02*
X11548753Y-12902174D01*
X11548753Y-12902174D02*
X11529706Y-12911698D01*
X11529706Y-12911698D02*
X11520182Y-12921222D01*
X11520182Y-12921222D02*
X11510658Y-12940269D01*
X11701134Y-12825984D02*
X11701134Y-12864079D01*
X11777325Y-12825984D02*
X11777325Y-12864079D01*
X12072563Y-13102174D02*
X12063039Y-13092650D01*
X12063039Y-13092650D02*
X12043991Y-13064079D01*
X12043991Y-13064079D02*
X12034468Y-13045031D01*
X12034468Y-13045031D02*
X12024944Y-13016460D01*
X12024944Y-13016460D02*
X12015420Y-12968841D01*
X12015420Y-12968841D02*
X12015420Y-12930746D01*
X12015420Y-12930746D02*
X12024944Y-12883127D01*
X12024944Y-12883127D02*
X12034468Y-12854555D01*
X12034468Y-12854555D02*
X12043991Y-12835508D01*
X12043991Y-12835508D02*
X12063039Y-12806936D01*
X12063039Y-12806936D02*
X12072563Y-12797412D01*
X12186848Y-12825984D02*
X12205896Y-12825984D01*
X12205896Y-12825984D02*
X12224944Y-12835508D01*
X12224944Y-12835508D02*
X12234468Y-12845031D01*
X12234468Y-12845031D02*
X12243991Y-12864079D01*
X12243991Y-12864079D02*
X12253515Y-12902174D01*
X12253515Y-12902174D02*
X12253515Y-12949793D01*
X12253515Y-12949793D02*
X12243991Y-12987888D01*
X12243991Y-12987888D02*
X12234468Y-13006936D01*
X12234468Y-13006936D02*
X12224944Y-13016460D01*
X12224944Y-13016460D02*
X12205896Y-13025984D01*
X12205896Y-13025984D02*
X12186848Y-13025984D01*
X12186848Y-13025984D02*
X12167801Y-13016460D01*
X12167801Y-13016460D02*
X12158277Y-13006936D01*
X12158277Y-13006936D02*
X12148753Y-12987888D01*
X12148753Y-12987888D02*
X12139229Y-12949793D01*
X12139229Y-12949793D02*
X12139229Y-12902174D01*
X12139229Y-12902174D02*
X12148753Y-12864079D01*
X12148753Y-12864079D02*
X12158277Y-12845031D01*
X12158277Y-12845031D02*
X12167801Y-12835508D01*
X12167801Y-12835508D02*
X12186848Y-12825984D01*
X12491610Y-13025984D02*
X12491610Y-12825984D01*
X12577325Y-13025984D02*
X12577325Y-12921222D01*
X12577325Y-12921222D02*
X12567801Y-12902174D01*
X12567801Y-12902174D02*
X12548753Y-12892650D01*
X12548753Y-12892650D02*
X12520182Y-12892650D01*
X12520182Y-12892650D02*
X12501134Y-12902174D01*
X12501134Y-12902174D02*
X12491610Y-12911698D01*
X12701134Y-13025984D02*
X12682087Y-13016460D01*
X12682087Y-13016460D02*
X12672563Y-13006936D01*
X12672563Y-13006936D02*
X12663039Y-12987888D01*
X12663039Y-12987888D02*
X12663039Y-12930746D01*
X12663039Y-12930746D02*
X12672563Y-12911698D01*
X12672563Y-12911698D02*
X12682087Y-12902174D01*
X12682087Y-12902174D02*
X12701134Y-12892650D01*
X12701134Y-12892650D02*
X12729706Y-12892650D01*
X12729706Y-12892650D02*
X12748753Y-12902174D01*
X12748753Y-12902174D02*
X12758277Y-12911698D01*
X12758277Y-12911698D02*
X12767801Y-12930746D01*
X12767801Y-12930746D02*
X12767801Y-12987888D01*
X12767801Y-12987888D02*
X12758277Y-13006936D01*
X12758277Y-13006936D02*
X12748753Y-13016460D01*
X12748753Y-13016460D02*
X12729706Y-13025984D01*
X12729706Y-13025984D02*
X12701134Y-13025984D01*
X12882087Y-13025984D02*
X12863039Y-13016460D01*
X12863039Y-13016460D02*
X12853515Y-12997412D01*
X12853515Y-12997412D02*
X12853515Y-12825984D01*
X13034468Y-13016460D02*
X13015420Y-13025984D01*
X13015420Y-13025984D02*
X12977325Y-13025984D01*
X12977325Y-13025984D02*
X12958277Y-13016460D01*
X12958277Y-13016460D02*
X12948753Y-12997412D01*
X12948753Y-12997412D02*
X12948753Y-12921222D01*
X12948753Y-12921222D02*
X12958277Y-12902174D01*
X12958277Y-12902174D02*
X12977325Y-12892650D01*
X12977325Y-12892650D02*
X13015420Y-12892650D01*
X13015420Y-12892650D02*
X13034468Y-12902174D01*
X13034468Y-12902174D02*
X13043991Y-12921222D01*
X13043991Y-12921222D02*
X13043991Y-12940269D01*
X13043991Y-12940269D02*
X12948753Y-12959317D01*
X13120182Y-13016460D02*
X13139230Y-13025984D01*
X13139230Y-13025984D02*
X13177325Y-13025984D01*
X13177325Y-13025984D02*
X13196372Y-13016460D01*
X13196372Y-13016460D02*
X13205896Y-12997412D01*
X13205896Y-12997412D02*
X13205896Y-12987888D01*
X13205896Y-12987888D02*
X13196372Y-12968841D01*
X13196372Y-12968841D02*
X13177325Y-12959317D01*
X13177325Y-12959317D02*
X13148753Y-12959317D01*
X13148753Y-12959317D02*
X13129706Y-12949793D01*
X13129706Y-12949793D02*
X13120182Y-12930746D01*
X13120182Y-12930746D02*
X13120182Y-12921222D01*
X13120182Y-12921222D02*
X13129706Y-12902174D01*
X13129706Y-12902174D02*
X13148753Y-12892650D01*
X13148753Y-12892650D02*
X13177325Y-12892650D01*
X13177325Y-12892650D02*
X13196372Y-12902174D01*
X13443992Y-12949793D02*
X13596373Y-12949793D01*
X13520182Y-13025984D02*
X13520182Y-12873603D01*
X13929706Y-12892650D02*
X13929706Y-13025984D01*
X13882087Y-12816460D02*
X13834468Y-12959317D01*
X13834468Y-12959317D02*
X13958277Y-12959317D01*
X14177325Y-13016460D02*
X14196373Y-13025984D01*
X14196373Y-13025984D02*
X14234468Y-13025984D01*
X14234468Y-13025984D02*
X14253515Y-13016460D01*
X14253515Y-13016460D02*
X14263039Y-12997412D01*
X14263039Y-12997412D02*
X14263039Y-12987888D01*
X14263039Y-12987888D02*
X14253515Y-12968841D01*
X14253515Y-12968841D02*
X14234468Y-12959317D01*
X14234468Y-12959317D02*
X14205896Y-12959317D01*
X14205896Y-12959317D02*
X14186849Y-12949793D01*
X14186849Y-12949793D02*
X14177325Y-12930746D01*
X14177325Y-12930746D02*
X14177325Y-12921222D01*
X14177325Y-12921222D02*
X14186849Y-12902174D01*
X14186849Y-12902174D02*
X14205896Y-12892650D01*
X14205896Y-12892650D02*
X14234468Y-12892650D01*
X14234468Y-12892650D02*
X14253515Y-12902174D01*
X14377325Y-13025984D02*
X14358277Y-13016460D01*
X14358277Y-13016460D02*
X14348754Y-12997412D01*
X14348754Y-12997412D02*
X14348754Y-12825984D01*
X14482087Y-13025984D02*
X14463039Y-13016460D01*
X14463039Y-13016460D02*
X14453515Y-13006936D01*
X14453515Y-13006936D02*
X14443992Y-12987888D01*
X14443992Y-12987888D02*
X14443992Y-12930746D01*
X14443992Y-12930746D02*
X14453515Y-12911698D01*
X14453515Y-12911698D02*
X14463039Y-12902174D01*
X14463039Y-12902174D02*
X14482087Y-12892650D01*
X14482087Y-12892650D02*
X14510658Y-12892650D01*
X14510658Y-12892650D02*
X14529706Y-12902174D01*
X14529706Y-12902174D02*
X14539230Y-12911698D01*
X14539230Y-12911698D02*
X14548754Y-12930746D01*
X14548754Y-12930746D02*
X14548754Y-12987888D01*
X14548754Y-12987888D02*
X14539230Y-13006936D01*
X14539230Y-13006936D02*
X14529706Y-13016460D01*
X14529706Y-13016460D02*
X14510658Y-13025984D01*
X14510658Y-13025984D02*
X14482087Y-13025984D01*
X14605896Y-12892650D02*
X14682087Y-12892650D01*
X14634468Y-12825984D02*
X14634468Y-12997412D01*
X14634468Y-12997412D02*
X14643992Y-13016460D01*
X14643992Y-13016460D02*
X14663039Y-13025984D01*
X14663039Y-13025984D02*
X14682087Y-13025984D01*
X14739230Y-13016460D02*
X14758277Y-13025984D01*
X14758277Y-13025984D02*
X14796373Y-13025984D01*
X14796373Y-13025984D02*
X14815420Y-13016460D01*
X14815420Y-13016460D02*
X14824944Y-12997412D01*
X14824944Y-12997412D02*
X14824944Y-12987888D01*
X14824944Y-12987888D02*
X14815420Y-12968841D01*
X14815420Y-12968841D02*
X14796373Y-12959317D01*
X14796373Y-12959317D02*
X14767801Y-12959317D01*
X14767801Y-12959317D02*
X14748754Y-12949793D01*
X14748754Y-12949793D02*
X14739230Y-12930746D01*
X14739230Y-12930746D02*
X14739230Y-12921222D01*
X14739230Y-12921222D02*
X14748754Y-12902174D01*
X14748754Y-12902174D02*
X14767801Y-12892650D01*
X14767801Y-12892650D02*
X14796373Y-12892650D01*
X14796373Y-12892650D02*
X14815420Y-12902174D01*
X14891611Y-13102174D02*
X14901135Y-13092650D01*
X14901135Y-13092650D02*
X14920182Y-13064079D01*
X14920182Y-13064079D02*
X14929706Y-13045031D01*
X14929706Y-13045031D02*
X14939230Y-13016460D01*
X14939230Y-13016460D02*
X14948754Y-12968841D01*
X14948754Y-12968841D02*
X14948754Y-12930746D01*
X14948754Y-12930746D02*
X14939230Y-12883127D01*
X14939230Y-12883127D02*
X14929706Y-12854555D01*
X14929706Y-12854555D02*
X14920182Y-12835508D01*
X14920182Y-12835508D02*
X14901135Y-12806936D01*
X14901135Y-12806936D02*
X14891611Y-12797412D01*
D12*
X8447500Y-13248500D02*
X8497500Y-13198500D01*
X8447500Y-13148500D01*
X8397500Y-13198500D01*
X8447500Y-13248500D01*
D11*
X8863039Y-13289984D02*
X8748753Y-13289984D01*
X8805896Y-13289984D02*
X8805896Y-13089984D01*
X8805896Y-13089984D02*
X8786848Y-13118555D01*
X8786848Y-13118555D02*
X8767801Y-13137603D01*
X8767801Y-13137603D02*
X8748753Y-13147127D01*
X8948753Y-13270936D02*
X8958277Y-13280460D01*
X8958277Y-13280460D02*
X8948753Y-13289984D01*
X8948753Y-13289984D02*
X8939229Y-13280460D01*
X8939229Y-13280460D02*
X8948753Y-13270936D01*
X8948753Y-13270936D02*
X8948753Y-13289984D01*
X9082086Y-13089984D02*
X9101134Y-13089984D01*
X9101134Y-13089984D02*
X9120182Y-13099508D01*
X9120182Y-13099508D02*
X9129705Y-13109031D01*
X9129705Y-13109031D02*
X9139229Y-13128079D01*
X9139229Y-13128079D02*
X9148753Y-13166174D01*
X9148753Y-13166174D02*
X9148753Y-13213793D01*
X9148753Y-13213793D02*
X9139229Y-13251888D01*
X9139229Y-13251888D02*
X9129705Y-13270936D01*
X9129705Y-13270936D02*
X9120182Y-13280460D01*
X9120182Y-13280460D02*
X9101134Y-13289984D01*
X9101134Y-13289984D02*
X9082086Y-13289984D01*
X9082086Y-13289984D02*
X9063039Y-13280460D01*
X9063039Y-13280460D02*
X9053515Y-13270936D01*
X9053515Y-13270936D02*
X9043991Y-13251888D01*
X9043991Y-13251888D02*
X9034467Y-13213793D01*
X9034467Y-13213793D02*
X9034467Y-13166174D01*
X9034467Y-13166174D02*
X9043991Y-13128079D01*
X9043991Y-13128079D02*
X9053515Y-13109031D01*
X9053515Y-13109031D02*
X9063039Y-13099508D01*
X9063039Y-13099508D02*
X9082086Y-13089984D01*
X9272563Y-13089984D02*
X9291610Y-13089984D01*
X9291610Y-13089984D02*
X9310658Y-13099508D01*
X9310658Y-13099508D02*
X9320182Y-13109031D01*
X9320182Y-13109031D02*
X9329705Y-13128079D01*
X9329705Y-13128079D02*
X9339229Y-13166174D01*
X9339229Y-13166174D02*
X9339229Y-13213793D01*
X9339229Y-13213793D02*
X9329705Y-13251888D01*
X9329705Y-13251888D02*
X9320182Y-13270936D01*
X9320182Y-13270936D02*
X9310658Y-13280460D01*
X9310658Y-13280460D02*
X9291610Y-13289984D01*
X9291610Y-13289984D02*
X9272563Y-13289984D01*
X9272563Y-13289984D02*
X9253515Y-13280460D01*
X9253515Y-13280460D02*
X9243991Y-13270936D01*
X9243991Y-13270936D02*
X9234467Y-13251888D01*
X9234467Y-13251888D02*
X9224944Y-13213793D01*
X9224944Y-13213793D02*
X9224944Y-13166174D01*
X9224944Y-13166174D02*
X9234467Y-13128079D01*
X9234467Y-13128079D02*
X9243991Y-13109031D01*
X9243991Y-13109031D02*
X9253515Y-13099508D01*
X9253515Y-13099508D02*
X9272563Y-13089984D01*
X9463039Y-13089984D02*
X9482086Y-13089984D01*
X9482086Y-13089984D02*
X9501134Y-13099508D01*
X9501134Y-13099508D02*
X9510658Y-13109031D01*
X9510658Y-13109031D02*
X9520182Y-13128079D01*
X9520182Y-13128079D02*
X9529705Y-13166174D01*
X9529705Y-13166174D02*
X9529705Y-13213793D01*
X9529705Y-13213793D02*
X9520182Y-13251888D01*
X9520182Y-13251888D02*
X9510658Y-13270936D01*
X9510658Y-13270936D02*
X9501134Y-13280460D01*
X9501134Y-13280460D02*
X9482086Y-13289984D01*
X9482086Y-13289984D02*
X9463039Y-13289984D01*
X9463039Y-13289984D02*
X9443991Y-13280460D01*
X9443991Y-13280460D02*
X9434467Y-13270936D01*
X9434467Y-13270936D02*
X9424944Y-13251888D01*
X9424944Y-13251888D02*
X9415420Y-13213793D01*
X9415420Y-13213793D02*
X9415420Y-13166174D01*
X9415420Y-13166174D02*
X9424944Y-13128079D01*
X9424944Y-13128079D02*
X9434467Y-13109031D01*
X9434467Y-13109031D02*
X9443991Y-13099508D01*
X9443991Y-13099508D02*
X9463039Y-13089984D01*
X9615420Y-13289984D02*
X9615420Y-13156650D01*
X9615420Y-13175698D02*
X9624944Y-13166174D01*
X9624944Y-13166174D02*
X9643991Y-13156650D01*
X9643991Y-13156650D02*
X9672563Y-13156650D01*
X9672563Y-13156650D02*
X9691610Y-13166174D01*
X9691610Y-13166174D02*
X9701134Y-13185222D01*
X9701134Y-13185222D02*
X9701134Y-13289984D01*
X9701134Y-13185222D02*
X9710658Y-13166174D01*
X9710658Y-13166174D02*
X9729705Y-13156650D01*
X9729705Y-13156650D02*
X9758277Y-13156650D01*
X9758277Y-13156650D02*
X9777325Y-13166174D01*
X9777325Y-13166174D02*
X9786848Y-13185222D01*
X9786848Y-13185222D02*
X9786848Y-13289984D01*
X9882086Y-13289984D02*
X9882086Y-13156650D01*
X9882086Y-13175698D02*
X9891610Y-13166174D01*
X9891610Y-13166174D02*
X9910658Y-13156650D01*
X9910658Y-13156650D02*
X9939229Y-13156650D01*
X9939229Y-13156650D02*
X9958277Y-13166174D01*
X9958277Y-13166174D02*
X9967801Y-13185222D01*
X9967801Y-13185222D02*
X9967801Y-13289984D01*
X9967801Y-13185222D02*
X9977325Y-13166174D01*
X9977325Y-13166174D02*
X9996372Y-13156650D01*
X9996372Y-13156650D02*
X10024944Y-13156650D01*
X10024944Y-13156650D02*
X10043991Y-13166174D01*
X10043991Y-13166174D02*
X10053515Y-13185222D01*
X10053515Y-13185222D02*
X10053515Y-13289984D01*
X10443991Y-13080460D02*
X10272563Y-13337603D01*
X10701134Y-13089984D02*
X10720182Y-13089984D01*
X10720182Y-13089984D02*
X10739229Y-13099508D01*
X10739229Y-13099508D02*
X10748753Y-13109031D01*
X10748753Y-13109031D02*
X10758277Y-13128079D01*
X10758277Y-13128079D02*
X10767801Y-13166174D01*
X10767801Y-13166174D02*
X10767801Y-13213793D01*
X10767801Y-13213793D02*
X10758277Y-13251888D01*
X10758277Y-13251888D02*
X10748753Y-13270936D01*
X10748753Y-13270936D02*
X10739229Y-13280460D01*
X10739229Y-13280460D02*
X10720182Y-13289984D01*
X10720182Y-13289984D02*
X10701134Y-13289984D01*
X10701134Y-13289984D02*
X10682087Y-13280460D01*
X10682087Y-13280460D02*
X10672563Y-13270936D01*
X10672563Y-13270936D02*
X10663039Y-13251888D01*
X10663039Y-13251888D02*
X10653515Y-13213793D01*
X10653515Y-13213793D02*
X10653515Y-13166174D01*
X10653515Y-13166174D02*
X10663039Y-13128079D01*
X10663039Y-13128079D02*
X10672563Y-13109031D01*
X10672563Y-13109031D02*
X10682087Y-13099508D01*
X10682087Y-13099508D02*
X10701134Y-13089984D01*
X10853515Y-13270936D02*
X10863039Y-13280460D01*
X10863039Y-13280460D02*
X10853515Y-13289984D01*
X10853515Y-13289984D02*
X10843991Y-13280460D01*
X10843991Y-13280460D02*
X10853515Y-13270936D01*
X10853515Y-13270936D02*
X10853515Y-13289984D01*
X10986848Y-13089984D02*
X11005896Y-13089984D01*
X11005896Y-13089984D02*
X11024944Y-13099508D01*
X11024944Y-13099508D02*
X11034468Y-13109031D01*
X11034468Y-13109031D02*
X11043991Y-13128079D01*
X11043991Y-13128079D02*
X11053515Y-13166174D01*
X11053515Y-13166174D02*
X11053515Y-13213793D01*
X11053515Y-13213793D02*
X11043991Y-13251888D01*
X11043991Y-13251888D02*
X11034468Y-13270936D01*
X11034468Y-13270936D02*
X11024944Y-13280460D01*
X11024944Y-13280460D02*
X11005896Y-13289984D01*
X11005896Y-13289984D02*
X10986848Y-13289984D01*
X10986848Y-13289984D02*
X10967801Y-13280460D01*
X10967801Y-13280460D02*
X10958277Y-13270936D01*
X10958277Y-13270936D02*
X10948753Y-13251888D01*
X10948753Y-13251888D02*
X10939229Y-13213793D01*
X10939229Y-13213793D02*
X10939229Y-13166174D01*
X10939229Y-13166174D02*
X10948753Y-13128079D01*
X10948753Y-13128079D02*
X10958277Y-13109031D01*
X10958277Y-13109031D02*
X10967801Y-13099508D01*
X10967801Y-13099508D02*
X10986848Y-13089984D01*
X11120182Y-13089984D02*
X11243991Y-13089984D01*
X11243991Y-13089984D02*
X11177325Y-13166174D01*
X11177325Y-13166174D02*
X11205896Y-13166174D01*
X11205896Y-13166174D02*
X11224944Y-13175698D01*
X11224944Y-13175698D02*
X11234467Y-13185222D01*
X11234467Y-13185222D02*
X11243991Y-13204269D01*
X11243991Y-13204269D02*
X11243991Y-13251888D01*
X11243991Y-13251888D02*
X11234467Y-13270936D01*
X11234467Y-13270936D02*
X11224944Y-13280460D01*
X11224944Y-13280460D02*
X11205896Y-13289984D01*
X11205896Y-13289984D02*
X11148753Y-13289984D01*
X11148753Y-13289984D02*
X11129706Y-13280460D01*
X11129706Y-13280460D02*
X11120182Y-13270936D01*
X11339229Y-13289984D02*
X11377325Y-13289984D01*
X11377325Y-13289984D02*
X11396372Y-13280460D01*
X11396372Y-13280460D02*
X11405896Y-13270936D01*
X11405896Y-13270936D02*
X11424944Y-13242365D01*
X11424944Y-13242365D02*
X11434467Y-13204269D01*
X11434467Y-13204269D02*
X11434467Y-13128079D01*
X11434467Y-13128079D02*
X11424944Y-13109031D01*
X11424944Y-13109031D02*
X11415420Y-13099508D01*
X11415420Y-13099508D02*
X11396372Y-13089984D01*
X11396372Y-13089984D02*
X11358277Y-13089984D01*
X11358277Y-13089984D02*
X11339229Y-13099508D01*
X11339229Y-13099508D02*
X11329706Y-13109031D01*
X11329706Y-13109031D02*
X11320182Y-13128079D01*
X11320182Y-13128079D02*
X11320182Y-13175698D01*
X11320182Y-13175698D02*
X11329706Y-13194746D01*
X11329706Y-13194746D02*
X11339229Y-13204269D01*
X11339229Y-13204269D02*
X11358277Y-13213793D01*
X11358277Y-13213793D02*
X11396372Y-13213793D01*
X11396372Y-13213793D02*
X11415420Y-13204269D01*
X11415420Y-13204269D02*
X11424944Y-13194746D01*
X11424944Y-13194746D02*
X11434467Y-13175698D01*
X11605896Y-13156650D02*
X11605896Y-13289984D01*
X11558277Y-13080460D02*
X11510658Y-13223317D01*
X11510658Y-13223317D02*
X11634467Y-13223317D01*
X11701134Y-13089984D02*
X11701134Y-13128079D01*
X11777325Y-13089984D02*
X11777325Y-13128079D01*
X12072563Y-13366174D02*
X12063039Y-13356650D01*
X12063039Y-13356650D02*
X12043991Y-13328079D01*
X12043991Y-13328079D02*
X12034468Y-13309031D01*
X12034468Y-13309031D02*
X12024944Y-13280460D01*
X12024944Y-13280460D02*
X12015420Y-13232841D01*
X12015420Y-13232841D02*
X12015420Y-13194746D01*
X12015420Y-13194746D02*
X12024944Y-13147127D01*
X12024944Y-13147127D02*
X12034468Y-13118555D01*
X12034468Y-13118555D02*
X12043991Y-13099508D01*
X12043991Y-13099508D02*
X12063039Y-13070936D01*
X12063039Y-13070936D02*
X12072563Y-13061412D01*
X12139229Y-13109031D02*
X12148753Y-13099508D01*
X12148753Y-13099508D02*
X12167801Y-13089984D01*
X12167801Y-13089984D02*
X12215420Y-13089984D01*
X12215420Y-13089984D02*
X12234468Y-13099508D01*
X12234468Y-13099508D02*
X12243991Y-13109031D01*
X12243991Y-13109031D02*
X12253515Y-13128079D01*
X12253515Y-13128079D02*
X12253515Y-13147127D01*
X12253515Y-13147127D02*
X12243991Y-13175698D01*
X12243991Y-13175698D02*
X12129706Y-13289984D01*
X12129706Y-13289984D02*
X12253515Y-13289984D01*
X12491610Y-13289984D02*
X12491610Y-13089984D01*
X12577325Y-13289984D02*
X12577325Y-13185222D01*
X12577325Y-13185222D02*
X12567801Y-13166174D01*
X12567801Y-13166174D02*
X12548753Y-13156650D01*
X12548753Y-13156650D02*
X12520182Y-13156650D01*
X12520182Y-13156650D02*
X12501134Y-13166174D01*
X12501134Y-13166174D02*
X12491610Y-13175698D01*
X12701134Y-13289984D02*
X12682087Y-13280460D01*
X12682087Y-13280460D02*
X12672563Y-13270936D01*
X12672563Y-13270936D02*
X12663039Y-13251888D01*
X12663039Y-13251888D02*
X12663039Y-13194746D01*
X12663039Y-13194746D02*
X12672563Y-13175698D01*
X12672563Y-13175698D02*
X12682087Y-13166174D01*
X12682087Y-13166174D02*
X12701134Y-13156650D01*
X12701134Y-13156650D02*
X12729706Y-13156650D01*
X12729706Y-13156650D02*
X12748753Y-13166174D01*
X12748753Y-13166174D02*
X12758277Y-13175698D01*
X12758277Y-13175698D02*
X12767801Y-13194746D01*
X12767801Y-13194746D02*
X12767801Y-13251888D01*
X12767801Y-13251888D02*
X12758277Y-13270936D01*
X12758277Y-13270936D02*
X12748753Y-13280460D01*
X12748753Y-13280460D02*
X12729706Y-13289984D01*
X12729706Y-13289984D02*
X12701134Y-13289984D01*
X12882087Y-13289984D02*
X12863039Y-13280460D01*
X12863039Y-13280460D02*
X12853515Y-13261412D01*
X12853515Y-13261412D02*
X12853515Y-13089984D01*
X13034468Y-13280460D02*
X13015420Y-13289984D01*
X13015420Y-13289984D02*
X12977325Y-13289984D01*
X12977325Y-13289984D02*
X12958277Y-13280460D01*
X12958277Y-13280460D02*
X12948753Y-13261412D01*
X12948753Y-13261412D02*
X12948753Y-13185222D01*
X12948753Y-13185222D02*
X12958277Y-13166174D01*
X12958277Y-13166174D02*
X12977325Y-13156650D01*
X12977325Y-13156650D02*
X13015420Y-13156650D01*
X13015420Y-13156650D02*
X13034468Y-13166174D01*
X13034468Y-13166174D02*
X13043991Y-13185222D01*
X13043991Y-13185222D02*
X13043991Y-13204269D01*
X13043991Y-13204269D02*
X12948753Y-13223317D01*
X13120182Y-13280460D02*
X13139230Y-13289984D01*
X13139230Y-13289984D02*
X13177325Y-13289984D01*
X13177325Y-13289984D02*
X13196372Y-13280460D01*
X13196372Y-13280460D02*
X13205896Y-13261412D01*
X13205896Y-13261412D02*
X13205896Y-13251888D01*
X13205896Y-13251888D02*
X13196372Y-13232841D01*
X13196372Y-13232841D02*
X13177325Y-13223317D01*
X13177325Y-13223317D02*
X13148753Y-13223317D01*
X13148753Y-13223317D02*
X13129706Y-13213793D01*
X13129706Y-13213793D02*
X13120182Y-13194746D01*
X13120182Y-13194746D02*
X13120182Y-13185222D01*
X13120182Y-13185222D02*
X13129706Y-13166174D01*
X13129706Y-13166174D02*
X13148753Y-13156650D01*
X13148753Y-13156650D02*
X13177325Y-13156650D01*
X13177325Y-13156650D02*
X13196372Y-13166174D01*
X13272563Y-13366174D02*
X13282087Y-13356650D01*
X13282087Y-13356650D02*
X13301134Y-13328079D01*
X13301134Y-13328079D02*
X13310658Y-13309031D01*
X13310658Y-13309031D02*
X13320182Y-13280460D01*
X13320182Y-13280460D02*
X13329706Y-13232841D01*
X13329706Y-13232841D02*
X13329706Y-13194746D01*
X13329706Y-13194746D02*
X13320182Y-13147127D01*
X13320182Y-13147127D02*
X13310658Y-13118555D01*
X13310658Y-13118555D02*
X13301134Y-13099508D01*
X13301134Y-13099508D02*
X13282087Y-13070936D01*
X13282087Y-13070936D02*
X13272563Y-13061412D01*
D12*
X8397500Y-13412500D02*
X8497500Y-13512500D01*
X8497500Y-13412500D02*
X8397500Y-13512500D01*
X8497500Y-13462500D02*
G75*
G02*
X8397500Y-13462500I-50000J0D01*
G01*
X8397500Y-13462500D02*
G75*
G02*
X8497500Y-13462500I50000J0D01*
G01*
D11*
X8863039Y-13553984D02*
X8748753Y-13553984D01*
X8805896Y-13553984D02*
X8805896Y-13353984D01*
X8805896Y-13353984D02*
X8786848Y-13382555D01*
X8786848Y-13382555D02*
X8767801Y-13401603D01*
X8767801Y-13401603D02*
X8748753Y-13411127D01*
X8948753Y-13534936D02*
X8958277Y-13544460D01*
X8958277Y-13544460D02*
X8948753Y-13553984D01*
X8948753Y-13553984D02*
X8939229Y-13544460D01*
X8939229Y-13544460D02*
X8948753Y-13534936D01*
X8948753Y-13534936D02*
X8948753Y-13553984D01*
X9082086Y-13353984D02*
X9101134Y-13353984D01*
X9101134Y-13353984D02*
X9120182Y-13363508D01*
X9120182Y-13363508D02*
X9129705Y-13373031D01*
X9129705Y-13373031D02*
X9139229Y-13392079D01*
X9139229Y-13392079D02*
X9148753Y-13430174D01*
X9148753Y-13430174D02*
X9148753Y-13477793D01*
X9148753Y-13477793D02*
X9139229Y-13515888D01*
X9139229Y-13515888D02*
X9129705Y-13534936D01*
X9129705Y-13534936D02*
X9120182Y-13544460D01*
X9120182Y-13544460D02*
X9101134Y-13553984D01*
X9101134Y-13553984D02*
X9082086Y-13553984D01*
X9082086Y-13553984D02*
X9063039Y-13544460D01*
X9063039Y-13544460D02*
X9053515Y-13534936D01*
X9053515Y-13534936D02*
X9043991Y-13515888D01*
X9043991Y-13515888D02*
X9034467Y-13477793D01*
X9034467Y-13477793D02*
X9034467Y-13430174D01*
X9034467Y-13430174D02*
X9043991Y-13392079D01*
X9043991Y-13392079D02*
X9053515Y-13373031D01*
X9053515Y-13373031D02*
X9063039Y-13363508D01*
X9063039Y-13363508D02*
X9082086Y-13353984D01*
X9272563Y-13353984D02*
X9291610Y-13353984D01*
X9291610Y-13353984D02*
X9310658Y-13363508D01*
X9310658Y-13363508D02*
X9320182Y-13373031D01*
X9320182Y-13373031D02*
X9329705Y-13392079D01*
X9329705Y-13392079D02*
X9339229Y-13430174D01*
X9339229Y-13430174D02*
X9339229Y-13477793D01*
X9339229Y-13477793D02*
X9329705Y-13515888D01*
X9329705Y-13515888D02*
X9320182Y-13534936D01*
X9320182Y-13534936D02*
X9310658Y-13544460D01*
X9310658Y-13544460D02*
X9291610Y-13553984D01*
X9291610Y-13553984D02*
X9272563Y-13553984D01*
X9272563Y-13553984D02*
X9253515Y-13544460D01*
X9253515Y-13544460D02*
X9243991Y-13534936D01*
X9243991Y-13534936D02*
X9234467Y-13515888D01*
X9234467Y-13515888D02*
X9224944Y-13477793D01*
X9224944Y-13477793D02*
X9224944Y-13430174D01*
X9224944Y-13430174D02*
X9234467Y-13392079D01*
X9234467Y-13392079D02*
X9243991Y-13373031D01*
X9243991Y-13373031D02*
X9253515Y-13363508D01*
X9253515Y-13363508D02*
X9272563Y-13353984D01*
X9463039Y-13353984D02*
X9482086Y-13353984D01*
X9482086Y-13353984D02*
X9501134Y-13363508D01*
X9501134Y-13363508D02*
X9510658Y-13373031D01*
X9510658Y-13373031D02*
X9520182Y-13392079D01*
X9520182Y-13392079D02*
X9529705Y-13430174D01*
X9529705Y-13430174D02*
X9529705Y-13477793D01*
X9529705Y-13477793D02*
X9520182Y-13515888D01*
X9520182Y-13515888D02*
X9510658Y-13534936D01*
X9510658Y-13534936D02*
X9501134Y-13544460D01*
X9501134Y-13544460D02*
X9482086Y-13553984D01*
X9482086Y-13553984D02*
X9463039Y-13553984D01*
X9463039Y-13553984D02*
X9443991Y-13544460D01*
X9443991Y-13544460D02*
X9434467Y-13534936D01*
X9434467Y-13534936D02*
X9424944Y-13515888D01*
X9424944Y-13515888D02*
X9415420Y-13477793D01*
X9415420Y-13477793D02*
X9415420Y-13430174D01*
X9415420Y-13430174D02*
X9424944Y-13392079D01*
X9424944Y-13392079D02*
X9434467Y-13373031D01*
X9434467Y-13373031D02*
X9443991Y-13363508D01*
X9443991Y-13363508D02*
X9463039Y-13353984D01*
X9615420Y-13553984D02*
X9615420Y-13420650D01*
X9615420Y-13439698D02*
X9624944Y-13430174D01*
X9624944Y-13430174D02*
X9643991Y-13420650D01*
X9643991Y-13420650D02*
X9672563Y-13420650D01*
X9672563Y-13420650D02*
X9691610Y-13430174D01*
X9691610Y-13430174D02*
X9701134Y-13449222D01*
X9701134Y-13449222D02*
X9701134Y-13553984D01*
X9701134Y-13449222D02*
X9710658Y-13430174D01*
X9710658Y-13430174D02*
X9729705Y-13420650D01*
X9729705Y-13420650D02*
X9758277Y-13420650D01*
X9758277Y-13420650D02*
X9777325Y-13430174D01*
X9777325Y-13430174D02*
X9786848Y-13449222D01*
X9786848Y-13449222D02*
X9786848Y-13553984D01*
X9882086Y-13553984D02*
X9882086Y-13420650D01*
X9882086Y-13439698D02*
X9891610Y-13430174D01*
X9891610Y-13430174D02*
X9910658Y-13420650D01*
X9910658Y-13420650D02*
X9939229Y-13420650D01*
X9939229Y-13420650D02*
X9958277Y-13430174D01*
X9958277Y-13430174D02*
X9967801Y-13449222D01*
X9967801Y-13449222D02*
X9967801Y-13553984D01*
X9967801Y-13449222D02*
X9977325Y-13430174D01*
X9977325Y-13430174D02*
X9996372Y-13420650D01*
X9996372Y-13420650D02*
X10024944Y-13420650D01*
X10024944Y-13420650D02*
X10043991Y-13430174D01*
X10043991Y-13430174D02*
X10053515Y-13449222D01*
X10053515Y-13449222D02*
X10053515Y-13553984D01*
X10443991Y-13344460D02*
X10272563Y-13601603D01*
X10701134Y-13353984D02*
X10720182Y-13353984D01*
X10720182Y-13353984D02*
X10739229Y-13363508D01*
X10739229Y-13363508D02*
X10748753Y-13373031D01*
X10748753Y-13373031D02*
X10758277Y-13392079D01*
X10758277Y-13392079D02*
X10767801Y-13430174D01*
X10767801Y-13430174D02*
X10767801Y-13477793D01*
X10767801Y-13477793D02*
X10758277Y-13515888D01*
X10758277Y-13515888D02*
X10748753Y-13534936D01*
X10748753Y-13534936D02*
X10739229Y-13544460D01*
X10739229Y-13544460D02*
X10720182Y-13553984D01*
X10720182Y-13553984D02*
X10701134Y-13553984D01*
X10701134Y-13553984D02*
X10682087Y-13544460D01*
X10682087Y-13544460D02*
X10672563Y-13534936D01*
X10672563Y-13534936D02*
X10663039Y-13515888D01*
X10663039Y-13515888D02*
X10653515Y-13477793D01*
X10653515Y-13477793D02*
X10653515Y-13430174D01*
X10653515Y-13430174D02*
X10663039Y-13392079D01*
X10663039Y-13392079D02*
X10672563Y-13373031D01*
X10672563Y-13373031D02*
X10682087Y-13363508D01*
X10682087Y-13363508D02*
X10701134Y-13353984D01*
X10853515Y-13534936D02*
X10863039Y-13544460D01*
X10863039Y-13544460D02*
X10853515Y-13553984D01*
X10853515Y-13553984D02*
X10843991Y-13544460D01*
X10843991Y-13544460D02*
X10853515Y-13534936D01*
X10853515Y-13534936D02*
X10853515Y-13553984D01*
X10986848Y-13353984D02*
X11005896Y-13353984D01*
X11005896Y-13353984D02*
X11024944Y-13363508D01*
X11024944Y-13363508D02*
X11034468Y-13373031D01*
X11034468Y-13373031D02*
X11043991Y-13392079D01*
X11043991Y-13392079D02*
X11053515Y-13430174D01*
X11053515Y-13430174D02*
X11053515Y-13477793D01*
X11053515Y-13477793D02*
X11043991Y-13515888D01*
X11043991Y-13515888D02*
X11034468Y-13534936D01*
X11034468Y-13534936D02*
X11024944Y-13544460D01*
X11024944Y-13544460D02*
X11005896Y-13553984D01*
X11005896Y-13553984D02*
X10986848Y-13553984D01*
X10986848Y-13553984D02*
X10967801Y-13544460D01*
X10967801Y-13544460D02*
X10958277Y-13534936D01*
X10958277Y-13534936D02*
X10948753Y-13515888D01*
X10948753Y-13515888D02*
X10939229Y-13477793D01*
X10939229Y-13477793D02*
X10939229Y-13430174D01*
X10939229Y-13430174D02*
X10948753Y-13392079D01*
X10948753Y-13392079D02*
X10958277Y-13373031D01*
X10958277Y-13373031D02*
X10967801Y-13363508D01*
X10967801Y-13363508D02*
X10986848Y-13353984D01*
X11120182Y-13353984D02*
X11243991Y-13353984D01*
X11243991Y-13353984D02*
X11177325Y-13430174D01*
X11177325Y-13430174D02*
X11205896Y-13430174D01*
X11205896Y-13430174D02*
X11224944Y-13439698D01*
X11224944Y-13439698D02*
X11234467Y-13449222D01*
X11234467Y-13449222D02*
X11243991Y-13468269D01*
X11243991Y-13468269D02*
X11243991Y-13515888D01*
X11243991Y-13515888D02*
X11234467Y-13534936D01*
X11234467Y-13534936D02*
X11224944Y-13544460D01*
X11224944Y-13544460D02*
X11205896Y-13553984D01*
X11205896Y-13553984D02*
X11148753Y-13553984D01*
X11148753Y-13553984D02*
X11129706Y-13544460D01*
X11129706Y-13544460D02*
X11120182Y-13534936D01*
X11339229Y-13553984D02*
X11377325Y-13553984D01*
X11377325Y-13553984D02*
X11396372Y-13544460D01*
X11396372Y-13544460D02*
X11405896Y-13534936D01*
X11405896Y-13534936D02*
X11424944Y-13506365D01*
X11424944Y-13506365D02*
X11434467Y-13468269D01*
X11434467Y-13468269D02*
X11434467Y-13392079D01*
X11434467Y-13392079D02*
X11424944Y-13373031D01*
X11424944Y-13373031D02*
X11415420Y-13363508D01*
X11415420Y-13363508D02*
X11396372Y-13353984D01*
X11396372Y-13353984D02*
X11358277Y-13353984D01*
X11358277Y-13353984D02*
X11339229Y-13363508D01*
X11339229Y-13363508D02*
X11329706Y-13373031D01*
X11329706Y-13373031D02*
X11320182Y-13392079D01*
X11320182Y-13392079D02*
X11320182Y-13439698D01*
X11320182Y-13439698D02*
X11329706Y-13458746D01*
X11329706Y-13458746D02*
X11339229Y-13468269D01*
X11339229Y-13468269D02*
X11358277Y-13477793D01*
X11358277Y-13477793D02*
X11396372Y-13477793D01*
X11396372Y-13477793D02*
X11415420Y-13468269D01*
X11415420Y-13468269D02*
X11424944Y-13458746D01*
X11424944Y-13458746D02*
X11434467Y-13439698D01*
X11605896Y-13420650D02*
X11605896Y-13553984D01*
X11558277Y-13344460D02*
X11510658Y-13487317D01*
X11510658Y-13487317D02*
X11634467Y-13487317D01*
X11701134Y-13353984D02*
X11701134Y-13392079D01*
X11777325Y-13353984D02*
X11777325Y-13392079D01*
X12072563Y-13630174D02*
X12063039Y-13620650D01*
X12063039Y-13620650D02*
X12043991Y-13592079D01*
X12043991Y-13592079D02*
X12034468Y-13573031D01*
X12034468Y-13573031D02*
X12024944Y-13544460D01*
X12024944Y-13544460D02*
X12015420Y-13496841D01*
X12015420Y-13496841D02*
X12015420Y-13458746D01*
X12015420Y-13458746D02*
X12024944Y-13411127D01*
X12024944Y-13411127D02*
X12034468Y-13382555D01*
X12034468Y-13382555D02*
X12043991Y-13363508D01*
X12043991Y-13363508D02*
X12063039Y-13334936D01*
X12063039Y-13334936D02*
X12072563Y-13325412D01*
X12177325Y-13439698D02*
X12158277Y-13430174D01*
X12158277Y-13430174D02*
X12148753Y-13420650D01*
X12148753Y-13420650D02*
X12139229Y-13401603D01*
X12139229Y-13401603D02*
X12139229Y-13392079D01*
X12139229Y-13392079D02*
X12148753Y-13373031D01*
X12148753Y-13373031D02*
X12158277Y-13363508D01*
X12158277Y-13363508D02*
X12177325Y-13353984D01*
X12177325Y-13353984D02*
X12215420Y-13353984D01*
X12215420Y-13353984D02*
X12234468Y-13363508D01*
X12234468Y-13363508D02*
X12243991Y-13373031D01*
X12243991Y-13373031D02*
X12253515Y-13392079D01*
X12253515Y-13392079D02*
X12253515Y-13401603D01*
X12253515Y-13401603D02*
X12243991Y-13420650D01*
X12243991Y-13420650D02*
X12234468Y-13430174D01*
X12234468Y-13430174D02*
X12215420Y-13439698D01*
X12215420Y-13439698D02*
X12177325Y-13439698D01*
X12177325Y-13439698D02*
X12158277Y-13449222D01*
X12158277Y-13449222D02*
X12148753Y-13458746D01*
X12148753Y-13458746D02*
X12139229Y-13477793D01*
X12139229Y-13477793D02*
X12139229Y-13515888D01*
X12139229Y-13515888D02*
X12148753Y-13534936D01*
X12148753Y-13534936D02*
X12158277Y-13544460D01*
X12158277Y-13544460D02*
X12177325Y-13553984D01*
X12177325Y-13553984D02*
X12215420Y-13553984D01*
X12215420Y-13553984D02*
X12234468Y-13544460D01*
X12234468Y-13544460D02*
X12243991Y-13534936D01*
X12243991Y-13534936D02*
X12253515Y-13515888D01*
X12253515Y-13515888D02*
X12253515Y-13477793D01*
X12253515Y-13477793D02*
X12243991Y-13458746D01*
X12243991Y-13458746D02*
X12234468Y-13449222D01*
X12234468Y-13449222D02*
X12215420Y-13439698D01*
X12491610Y-13553984D02*
X12491610Y-13353984D01*
X12577325Y-13553984D02*
X12577325Y-13449222D01*
X12577325Y-13449222D02*
X12567801Y-13430174D01*
X12567801Y-13430174D02*
X12548753Y-13420650D01*
X12548753Y-13420650D02*
X12520182Y-13420650D01*
X12520182Y-13420650D02*
X12501134Y-13430174D01*
X12501134Y-13430174D02*
X12491610Y-13439698D01*
X12701134Y-13553984D02*
X12682087Y-13544460D01*
X12682087Y-13544460D02*
X12672563Y-13534936D01*
X12672563Y-13534936D02*
X12663039Y-13515888D01*
X12663039Y-13515888D02*
X12663039Y-13458746D01*
X12663039Y-13458746D02*
X12672563Y-13439698D01*
X12672563Y-13439698D02*
X12682087Y-13430174D01*
X12682087Y-13430174D02*
X12701134Y-13420650D01*
X12701134Y-13420650D02*
X12729706Y-13420650D01*
X12729706Y-13420650D02*
X12748753Y-13430174D01*
X12748753Y-13430174D02*
X12758277Y-13439698D01*
X12758277Y-13439698D02*
X12767801Y-13458746D01*
X12767801Y-13458746D02*
X12767801Y-13515888D01*
X12767801Y-13515888D02*
X12758277Y-13534936D01*
X12758277Y-13534936D02*
X12748753Y-13544460D01*
X12748753Y-13544460D02*
X12729706Y-13553984D01*
X12729706Y-13553984D02*
X12701134Y-13553984D01*
X12882087Y-13553984D02*
X12863039Y-13544460D01*
X12863039Y-13544460D02*
X12853515Y-13525412D01*
X12853515Y-13525412D02*
X12853515Y-13353984D01*
X13034468Y-13544460D02*
X13015420Y-13553984D01*
X13015420Y-13553984D02*
X12977325Y-13553984D01*
X12977325Y-13553984D02*
X12958277Y-13544460D01*
X12958277Y-13544460D02*
X12948753Y-13525412D01*
X12948753Y-13525412D02*
X12948753Y-13449222D01*
X12948753Y-13449222D02*
X12958277Y-13430174D01*
X12958277Y-13430174D02*
X12977325Y-13420650D01*
X12977325Y-13420650D02*
X13015420Y-13420650D01*
X13015420Y-13420650D02*
X13034468Y-13430174D01*
X13034468Y-13430174D02*
X13043991Y-13449222D01*
X13043991Y-13449222D02*
X13043991Y-13468269D01*
X13043991Y-13468269D02*
X12948753Y-13487317D01*
X13120182Y-13544460D02*
X13139230Y-13553984D01*
X13139230Y-13553984D02*
X13177325Y-13553984D01*
X13177325Y-13553984D02*
X13196372Y-13544460D01*
X13196372Y-13544460D02*
X13205896Y-13525412D01*
X13205896Y-13525412D02*
X13205896Y-13515888D01*
X13205896Y-13515888D02*
X13196372Y-13496841D01*
X13196372Y-13496841D02*
X13177325Y-13487317D01*
X13177325Y-13487317D02*
X13148753Y-13487317D01*
X13148753Y-13487317D02*
X13129706Y-13477793D01*
X13129706Y-13477793D02*
X13120182Y-13458746D01*
X13120182Y-13458746D02*
X13120182Y-13449222D01*
X13120182Y-13449222D02*
X13129706Y-13430174D01*
X13129706Y-13430174D02*
X13148753Y-13420650D01*
X13148753Y-13420650D02*
X13177325Y-13420650D01*
X13177325Y-13420650D02*
X13196372Y-13430174D01*
X13272563Y-13630174D02*
X13282087Y-13620650D01*
X13282087Y-13620650D02*
X13301134Y-13592079D01*
X13301134Y-13592079D02*
X13310658Y-13573031D01*
X13310658Y-13573031D02*
X13320182Y-13544460D01*
X13320182Y-13544460D02*
X13329706Y-13496841D01*
X13329706Y-13496841D02*
X13329706Y-13458746D01*
X13329706Y-13458746D02*
X13320182Y-13411127D01*
X13320182Y-13411127D02*
X13310658Y-13382555D01*
X13310658Y-13382555D02*
X13301134Y-13363508D01*
X13301134Y-13363508D02*
X13282087Y-13334936D01*
X13282087Y-13334936D02*
X13272563Y-13325412D01*
D13*
X8317500Y-13636500D02*
X8497500Y-13816500D01*
X8497500Y-13636500D02*
X8317500Y-13816500D01*
X8407500Y-13636500D02*
X8407500Y-13816500D01*
X8317500Y-13726500D02*
X8497500Y-13726500D01*
D11*
X8863039Y-13817984D02*
X8748753Y-13817984D01*
X8805896Y-13817984D02*
X8805896Y-13617984D01*
X8805896Y-13617984D02*
X8786848Y-13646555D01*
X8786848Y-13646555D02*
X8767801Y-13665603D01*
X8767801Y-13665603D02*
X8748753Y-13675127D01*
X8948753Y-13798936D02*
X8958277Y-13808460D01*
X8958277Y-13808460D02*
X8948753Y-13817984D01*
X8948753Y-13817984D02*
X8939229Y-13808460D01*
X8939229Y-13808460D02*
X8948753Y-13798936D01*
X8948753Y-13798936D02*
X8948753Y-13817984D01*
X9072563Y-13703698D02*
X9053515Y-13694174D01*
X9053515Y-13694174D02*
X9043991Y-13684650D01*
X9043991Y-13684650D02*
X9034467Y-13665603D01*
X9034467Y-13665603D02*
X9034467Y-13656079D01*
X9034467Y-13656079D02*
X9043991Y-13637031D01*
X9043991Y-13637031D02*
X9053515Y-13627508D01*
X9053515Y-13627508D02*
X9072563Y-13617984D01*
X9072563Y-13617984D02*
X9110658Y-13617984D01*
X9110658Y-13617984D02*
X9129705Y-13627508D01*
X9129705Y-13627508D02*
X9139229Y-13637031D01*
X9139229Y-13637031D02*
X9148753Y-13656079D01*
X9148753Y-13656079D02*
X9148753Y-13665603D01*
X9148753Y-13665603D02*
X9139229Y-13684650D01*
X9139229Y-13684650D02*
X9129705Y-13694174D01*
X9129705Y-13694174D02*
X9110658Y-13703698D01*
X9110658Y-13703698D02*
X9072563Y-13703698D01*
X9072563Y-13703698D02*
X9053515Y-13713222D01*
X9053515Y-13713222D02*
X9043991Y-13722746D01*
X9043991Y-13722746D02*
X9034467Y-13741793D01*
X9034467Y-13741793D02*
X9034467Y-13779888D01*
X9034467Y-13779888D02*
X9043991Y-13798936D01*
X9043991Y-13798936D02*
X9053515Y-13808460D01*
X9053515Y-13808460D02*
X9072563Y-13817984D01*
X9072563Y-13817984D02*
X9110658Y-13817984D01*
X9110658Y-13817984D02*
X9129705Y-13808460D01*
X9129705Y-13808460D02*
X9139229Y-13798936D01*
X9139229Y-13798936D02*
X9148753Y-13779888D01*
X9148753Y-13779888D02*
X9148753Y-13741793D01*
X9148753Y-13741793D02*
X9139229Y-13722746D01*
X9139229Y-13722746D02*
X9129705Y-13713222D01*
X9129705Y-13713222D02*
X9110658Y-13703698D01*
X9272563Y-13617984D02*
X9291610Y-13617984D01*
X9291610Y-13617984D02*
X9310658Y-13627508D01*
X9310658Y-13627508D02*
X9320182Y-13637031D01*
X9320182Y-13637031D02*
X9329705Y-13656079D01*
X9329705Y-13656079D02*
X9339229Y-13694174D01*
X9339229Y-13694174D02*
X9339229Y-13741793D01*
X9339229Y-13741793D02*
X9329705Y-13779888D01*
X9329705Y-13779888D02*
X9320182Y-13798936D01*
X9320182Y-13798936D02*
X9310658Y-13808460D01*
X9310658Y-13808460D02*
X9291610Y-13817984D01*
X9291610Y-13817984D02*
X9272563Y-13817984D01*
X9272563Y-13817984D02*
X9253515Y-13808460D01*
X9253515Y-13808460D02*
X9243991Y-13798936D01*
X9243991Y-13798936D02*
X9234467Y-13779888D01*
X9234467Y-13779888D02*
X9224944Y-13741793D01*
X9224944Y-13741793D02*
X9224944Y-13694174D01*
X9224944Y-13694174D02*
X9234467Y-13656079D01*
X9234467Y-13656079D02*
X9243991Y-13637031D01*
X9243991Y-13637031D02*
X9253515Y-13627508D01*
X9253515Y-13627508D02*
X9272563Y-13617984D01*
X9463039Y-13617984D02*
X9482086Y-13617984D01*
X9482086Y-13617984D02*
X9501134Y-13627508D01*
X9501134Y-13627508D02*
X9510658Y-13637031D01*
X9510658Y-13637031D02*
X9520182Y-13656079D01*
X9520182Y-13656079D02*
X9529705Y-13694174D01*
X9529705Y-13694174D02*
X9529705Y-13741793D01*
X9529705Y-13741793D02*
X9520182Y-13779888D01*
X9520182Y-13779888D02*
X9510658Y-13798936D01*
X9510658Y-13798936D02*
X9501134Y-13808460D01*
X9501134Y-13808460D02*
X9482086Y-13817984D01*
X9482086Y-13817984D02*
X9463039Y-13817984D01*
X9463039Y-13817984D02*
X9443991Y-13808460D01*
X9443991Y-13808460D02*
X9434467Y-13798936D01*
X9434467Y-13798936D02*
X9424944Y-13779888D01*
X9424944Y-13779888D02*
X9415420Y-13741793D01*
X9415420Y-13741793D02*
X9415420Y-13694174D01*
X9415420Y-13694174D02*
X9424944Y-13656079D01*
X9424944Y-13656079D02*
X9434467Y-13637031D01*
X9434467Y-13637031D02*
X9443991Y-13627508D01*
X9443991Y-13627508D02*
X9463039Y-13617984D01*
X9615420Y-13817984D02*
X9615420Y-13684650D01*
X9615420Y-13703698D02*
X9624944Y-13694174D01*
X9624944Y-13694174D02*
X9643991Y-13684650D01*
X9643991Y-13684650D02*
X9672563Y-13684650D01*
X9672563Y-13684650D02*
X9691610Y-13694174D01*
X9691610Y-13694174D02*
X9701134Y-13713222D01*
X9701134Y-13713222D02*
X9701134Y-13817984D01*
X9701134Y-13713222D02*
X9710658Y-13694174D01*
X9710658Y-13694174D02*
X9729705Y-13684650D01*
X9729705Y-13684650D02*
X9758277Y-13684650D01*
X9758277Y-13684650D02*
X9777325Y-13694174D01*
X9777325Y-13694174D02*
X9786848Y-13713222D01*
X9786848Y-13713222D02*
X9786848Y-13817984D01*
X9882086Y-13817984D02*
X9882086Y-13684650D01*
X9882086Y-13703698D02*
X9891610Y-13694174D01*
X9891610Y-13694174D02*
X9910658Y-13684650D01*
X9910658Y-13684650D02*
X9939229Y-13684650D01*
X9939229Y-13684650D02*
X9958277Y-13694174D01*
X9958277Y-13694174D02*
X9967801Y-13713222D01*
X9967801Y-13713222D02*
X9967801Y-13817984D01*
X9967801Y-13713222D02*
X9977325Y-13694174D01*
X9977325Y-13694174D02*
X9996372Y-13684650D01*
X9996372Y-13684650D02*
X10024944Y-13684650D01*
X10024944Y-13684650D02*
X10043991Y-13694174D01*
X10043991Y-13694174D02*
X10053515Y-13713222D01*
X10053515Y-13713222D02*
X10053515Y-13817984D01*
X10443991Y-13608460D02*
X10272563Y-13865603D01*
X10701134Y-13617984D02*
X10720182Y-13617984D01*
X10720182Y-13617984D02*
X10739229Y-13627508D01*
X10739229Y-13627508D02*
X10748753Y-13637031D01*
X10748753Y-13637031D02*
X10758277Y-13656079D01*
X10758277Y-13656079D02*
X10767801Y-13694174D01*
X10767801Y-13694174D02*
X10767801Y-13741793D01*
X10767801Y-13741793D02*
X10758277Y-13779888D01*
X10758277Y-13779888D02*
X10748753Y-13798936D01*
X10748753Y-13798936D02*
X10739229Y-13808460D01*
X10739229Y-13808460D02*
X10720182Y-13817984D01*
X10720182Y-13817984D02*
X10701134Y-13817984D01*
X10701134Y-13817984D02*
X10682087Y-13808460D01*
X10682087Y-13808460D02*
X10672563Y-13798936D01*
X10672563Y-13798936D02*
X10663039Y-13779888D01*
X10663039Y-13779888D02*
X10653515Y-13741793D01*
X10653515Y-13741793D02*
X10653515Y-13694174D01*
X10653515Y-13694174D02*
X10663039Y-13656079D01*
X10663039Y-13656079D02*
X10672563Y-13637031D01*
X10672563Y-13637031D02*
X10682087Y-13627508D01*
X10682087Y-13627508D02*
X10701134Y-13617984D01*
X10853515Y-13798936D02*
X10863039Y-13808460D01*
X10863039Y-13808460D02*
X10853515Y-13817984D01*
X10853515Y-13817984D02*
X10843991Y-13808460D01*
X10843991Y-13808460D02*
X10853515Y-13798936D01*
X10853515Y-13798936D02*
X10853515Y-13817984D01*
X10986848Y-13617984D02*
X11005896Y-13617984D01*
X11005896Y-13617984D02*
X11024944Y-13627508D01*
X11024944Y-13627508D02*
X11034468Y-13637031D01*
X11034468Y-13637031D02*
X11043991Y-13656079D01*
X11043991Y-13656079D02*
X11053515Y-13694174D01*
X11053515Y-13694174D02*
X11053515Y-13741793D01*
X11053515Y-13741793D02*
X11043991Y-13779888D01*
X11043991Y-13779888D02*
X11034468Y-13798936D01*
X11034468Y-13798936D02*
X11024944Y-13808460D01*
X11024944Y-13808460D02*
X11005896Y-13817984D01*
X11005896Y-13817984D02*
X10986848Y-13817984D01*
X10986848Y-13817984D02*
X10967801Y-13808460D01*
X10967801Y-13808460D02*
X10958277Y-13798936D01*
X10958277Y-13798936D02*
X10948753Y-13779888D01*
X10948753Y-13779888D02*
X10939229Y-13741793D01*
X10939229Y-13741793D02*
X10939229Y-13694174D01*
X10939229Y-13694174D02*
X10948753Y-13656079D01*
X10948753Y-13656079D02*
X10958277Y-13637031D01*
X10958277Y-13637031D02*
X10967801Y-13627508D01*
X10967801Y-13627508D02*
X10986848Y-13617984D01*
X11120182Y-13617984D02*
X11253515Y-13617984D01*
X11253515Y-13617984D02*
X11167801Y-13817984D01*
X11367801Y-13617984D02*
X11386848Y-13617984D01*
X11386848Y-13617984D02*
X11405896Y-13627508D01*
X11405896Y-13627508D02*
X11415420Y-13637031D01*
X11415420Y-13637031D02*
X11424944Y-13656079D01*
X11424944Y-13656079D02*
X11434467Y-13694174D01*
X11434467Y-13694174D02*
X11434467Y-13741793D01*
X11434467Y-13741793D02*
X11424944Y-13779888D01*
X11424944Y-13779888D02*
X11415420Y-13798936D01*
X11415420Y-13798936D02*
X11405896Y-13808460D01*
X11405896Y-13808460D02*
X11386848Y-13817984D01*
X11386848Y-13817984D02*
X11367801Y-13817984D01*
X11367801Y-13817984D02*
X11348753Y-13808460D01*
X11348753Y-13808460D02*
X11339229Y-13798936D01*
X11339229Y-13798936D02*
X11329706Y-13779888D01*
X11329706Y-13779888D02*
X11320182Y-13741793D01*
X11320182Y-13741793D02*
X11320182Y-13694174D01*
X11320182Y-13694174D02*
X11329706Y-13656079D01*
X11329706Y-13656079D02*
X11339229Y-13637031D01*
X11339229Y-13637031D02*
X11348753Y-13627508D01*
X11348753Y-13627508D02*
X11367801Y-13617984D01*
X11529706Y-13817984D02*
X11567801Y-13817984D01*
X11567801Y-13817984D02*
X11586848Y-13808460D01*
X11586848Y-13808460D02*
X11596372Y-13798936D01*
X11596372Y-13798936D02*
X11615420Y-13770365D01*
X11615420Y-13770365D02*
X11624944Y-13732269D01*
X11624944Y-13732269D02*
X11624944Y-13656079D01*
X11624944Y-13656079D02*
X11615420Y-13637031D01*
X11615420Y-13637031D02*
X11605896Y-13627508D01*
X11605896Y-13627508D02*
X11586848Y-13617984D01*
X11586848Y-13617984D02*
X11548753Y-13617984D01*
X11548753Y-13617984D02*
X11529706Y-13627508D01*
X11529706Y-13627508D02*
X11520182Y-13637031D01*
X11520182Y-13637031D02*
X11510658Y-13656079D01*
X11510658Y-13656079D02*
X11510658Y-13703698D01*
X11510658Y-13703698D02*
X11520182Y-13722746D01*
X11520182Y-13722746D02*
X11529706Y-13732269D01*
X11529706Y-13732269D02*
X11548753Y-13741793D01*
X11548753Y-13741793D02*
X11586848Y-13741793D01*
X11586848Y-13741793D02*
X11605896Y-13732269D01*
X11605896Y-13732269D02*
X11615420Y-13722746D01*
X11615420Y-13722746D02*
X11624944Y-13703698D01*
X11701134Y-13617984D02*
X11701134Y-13656079D01*
X11777325Y-13617984D02*
X11777325Y-13656079D01*
X12072563Y-13894174D02*
X12063039Y-13884650D01*
X12063039Y-13884650D02*
X12043991Y-13856079D01*
X12043991Y-13856079D02*
X12034468Y-13837031D01*
X12034468Y-13837031D02*
X12024944Y-13808460D01*
X12024944Y-13808460D02*
X12015420Y-13760841D01*
X12015420Y-13760841D02*
X12015420Y-13722746D01*
X12015420Y-13722746D02*
X12024944Y-13675127D01*
X12024944Y-13675127D02*
X12034468Y-13646555D01*
X12034468Y-13646555D02*
X12043991Y-13627508D01*
X12043991Y-13627508D02*
X12063039Y-13598936D01*
X12063039Y-13598936D02*
X12072563Y-13589412D01*
X12253515Y-13817984D02*
X12139229Y-13817984D01*
X12196372Y-13817984D02*
X12196372Y-13617984D01*
X12196372Y-13617984D02*
X12177325Y-13646555D01*
X12177325Y-13646555D02*
X12158277Y-13665603D01*
X12158277Y-13665603D02*
X12139229Y-13675127D01*
X12491610Y-13817984D02*
X12491610Y-13617984D01*
X12577325Y-13817984D02*
X12577325Y-13713222D01*
X12577325Y-13713222D02*
X12567801Y-13694174D01*
X12567801Y-13694174D02*
X12548753Y-13684650D01*
X12548753Y-13684650D02*
X12520182Y-13684650D01*
X12520182Y-13684650D02*
X12501134Y-13694174D01*
X12501134Y-13694174D02*
X12491610Y-13703698D01*
X12701134Y-13817984D02*
X12682087Y-13808460D01*
X12682087Y-13808460D02*
X12672563Y-13798936D01*
X12672563Y-13798936D02*
X12663039Y-13779888D01*
X12663039Y-13779888D02*
X12663039Y-13722746D01*
X12663039Y-13722746D02*
X12672563Y-13703698D01*
X12672563Y-13703698D02*
X12682087Y-13694174D01*
X12682087Y-13694174D02*
X12701134Y-13684650D01*
X12701134Y-13684650D02*
X12729706Y-13684650D01*
X12729706Y-13684650D02*
X12748753Y-13694174D01*
X12748753Y-13694174D02*
X12758277Y-13703698D01*
X12758277Y-13703698D02*
X12767801Y-13722746D01*
X12767801Y-13722746D02*
X12767801Y-13779888D01*
X12767801Y-13779888D02*
X12758277Y-13798936D01*
X12758277Y-13798936D02*
X12748753Y-13808460D01*
X12748753Y-13808460D02*
X12729706Y-13817984D01*
X12729706Y-13817984D02*
X12701134Y-13817984D01*
X12882087Y-13817984D02*
X12863039Y-13808460D01*
X12863039Y-13808460D02*
X12853515Y-13789412D01*
X12853515Y-13789412D02*
X12853515Y-13617984D01*
X13034468Y-13808460D02*
X13015420Y-13817984D01*
X13015420Y-13817984D02*
X12977325Y-13817984D01*
X12977325Y-13817984D02*
X12958277Y-13808460D01*
X12958277Y-13808460D02*
X12948753Y-13789412D01*
X12948753Y-13789412D02*
X12948753Y-13713222D01*
X12948753Y-13713222D02*
X12958277Y-13694174D01*
X12958277Y-13694174D02*
X12977325Y-13684650D01*
X12977325Y-13684650D02*
X13015420Y-13684650D01*
X13015420Y-13684650D02*
X13034468Y-13694174D01*
X13034468Y-13694174D02*
X13043991Y-13713222D01*
X13043991Y-13713222D02*
X13043991Y-13732269D01*
X13043991Y-13732269D02*
X12948753Y-13751317D01*
X13110658Y-13894174D02*
X13120182Y-13884650D01*
X13120182Y-13884650D02*
X13139230Y-13856079D01*
X13139230Y-13856079D02*
X13148753Y-13837031D01*
X13148753Y-13837031D02*
X13158277Y-13808460D01*
X13158277Y-13808460D02*
X13167801Y-13760841D01*
X13167801Y-13760841D02*
X13167801Y-13722746D01*
X13167801Y-13722746D02*
X13158277Y-13675127D01*
X13158277Y-13675127D02*
X13148753Y-13646555D01*
X13148753Y-13646555D02*
X13139230Y-13627508D01*
X13139230Y-13627508D02*
X13120182Y-13598936D01*
X13120182Y-13598936D02*
X13110658Y-13589412D01*
M02*
