G04 #@! TF.GenerationSoftware,KiCad,Pcbnew,9.0.4*
G04 #@! TF.CreationDate,2025-09-08T01:23:02+09:00*
G04 #@! TF.ProjectId,561SmartCard-USB,35363153-6d61-4727-9443-6172642d5553,rev?*
G04 #@! TF.SameCoordinates,Original*
G04 #@! TF.FileFunction,Legend,Bot*
G04 #@! TF.FilePolarity,Positive*
%FSLAX46Y46*%
G04 Gerber Fmt 4.6, Leading zero omitted, Abs format (unit mm)*
G04 Created by KiCad (PCBNEW 9.0.4) date 2025-09-08 01:23:02*
%MOMM*%
%LPD*%
G01*
G04 APERTURE LIST*
%ADD10C,0.100000*%
%ADD11C,0.150000*%
%ADD12C,0.120000*%
G04 APERTURE END LIST*
D10*
X97250000Y-88250000D02*
X96750000Y-88750000D01*
X98750000Y-81875000D02*
X98750000Y-82250000D01*
X97250000Y-87250000D02*
X97250000Y-88250000D01*
X98750000Y-81875000D02*
X99000000Y-81625000D01*
D11*
X88704819Y-78833333D02*
X88228628Y-78500000D01*
X88704819Y-78261905D02*
X87704819Y-78261905D01*
X87704819Y-78261905D02*
X87704819Y-78642857D01*
X87704819Y-78642857D02*
X87752438Y-78738095D01*
X87752438Y-78738095D02*
X87800057Y-78785714D01*
X87800057Y-78785714D02*
X87895295Y-78833333D01*
X87895295Y-78833333D02*
X88038152Y-78833333D01*
X88038152Y-78833333D02*
X88133390Y-78785714D01*
X88133390Y-78785714D02*
X88181009Y-78738095D01*
X88181009Y-78738095D02*
X88228628Y-78642857D01*
X88228628Y-78642857D02*
X88228628Y-78261905D01*
X88704819Y-79785714D02*
X88704819Y-79214286D01*
X88704819Y-79500000D02*
X87704819Y-79500000D01*
X87704819Y-79500000D02*
X87847676Y-79404762D01*
X87847676Y-79404762D02*
X87942914Y-79309524D01*
X87942914Y-79309524D02*
X87990533Y-79214286D01*
X95284819Y-86833333D02*
X94808628Y-86500000D01*
X95284819Y-86261905D02*
X94284819Y-86261905D01*
X94284819Y-86261905D02*
X94284819Y-86642857D01*
X94284819Y-86642857D02*
X94332438Y-86738095D01*
X94332438Y-86738095D02*
X94380057Y-86785714D01*
X94380057Y-86785714D02*
X94475295Y-86833333D01*
X94475295Y-86833333D02*
X94618152Y-86833333D01*
X94618152Y-86833333D02*
X94713390Y-86785714D01*
X94713390Y-86785714D02*
X94761009Y-86738095D01*
X94761009Y-86738095D02*
X94808628Y-86642857D01*
X94808628Y-86642857D02*
X94808628Y-86261905D01*
X94284819Y-87738095D02*
X94284819Y-87261905D01*
X94284819Y-87261905D02*
X94761009Y-87214286D01*
X94761009Y-87214286D02*
X94713390Y-87261905D01*
X94713390Y-87261905D02*
X94665771Y-87357143D01*
X94665771Y-87357143D02*
X94665771Y-87595238D01*
X94665771Y-87595238D02*
X94713390Y-87690476D01*
X94713390Y-87690476D02*
X94761009Y-87738095D01*
X94761009Y-87738095D02*
X94856247Y-87785714D01*
X94856247Y-87785714D02*
X95094342Y-87785714D01*
X95094342Y-87785714D02*
X95189580Y-87738095D01*
X95189580Y-87738095D02*
X95237200Y-87690476D01*
X95237200Y-87690476D02*
X95284819Y-87595238D01*
X95284819Y-87595238D02*
X95284819Y-87357143D01*
X95284819Y-87357143D02*
X95237200Y-87261905D01*
X95237200Y-87261905D02*
X95189580Y-87214286D01*
X93416666Y-96859580D02*
X93464285Y-96907200D01*
X93464285Y-96907200D02*
X93607142Y-96954819D01*
X93607142Y-96954819D02*
X93702380Y-96954819D01*
X93702380Y-96954819D02*
X93845237Y-96907200D01*
X93845237Y-96907200D02*
X93940475Y-96811961D01*
X93940475Y-96811961D02*
X93988094Y-96716723D01*
X93988094Y-96716723D02*
X94035713Y-96526247D01*
X94035713Y-96526247D02*
X94035713Y-96383390D01*
X94035713Y-96383390D02*
X93988094Y-96192914D01*
X93988094Y-96192914D02*
X93940475Y-96097676D01*
X93940475Y-96097676D02*
X93845237Y-96002438D01*
X93845237Y-96002438D02*
X93702380Y-95954819D01*
X93702380Y-95954819D02*
X93607142Y-95954819D01*
X93607142Y-95954819D02*
X93464285Y-96002438D01*
X93464285Y-96002438D02*
X93416666Y-96050057D01*
X92845237Y-96383390D02*
X92940475Y-96335771D01*
X92940475Y-96335771D02*
X92988094Y-96288152D01*
X92988094Y-96288152D02*
X93035713Y-96192914D01*
X93035713Y-96192914D02*
X93035713Y-96145295D01*
X93035713Y-96145295D02*
X92988094Y-96050057D01*
X92988094Y-96050057D02*
X92940475Y-96002438D01*
X92940475Y-96002438D02*
X92845237Y-95954819D01*
X92845237Y-95954819D02*
X92654761Y-95954819D01*
X92654761Y-95954819D02*
X92559523Y-96002438D01*
X92559523Y-96002438D02*
X92511904Y-96050057D01*
X92511904Y-96050057D02*
X92464285Y-96145295D01*
X92464285Y-96145295D02*
X92464285Y-96192914D01*
X92464285Y-96192914D02*
X92511904Y-96288152D01*
X92511904Y-96288152D02*
X92559523Y-96335771D01*
X92559523Y-96335771D02*
X92654761Y-96383390D01*
X92654761Y-96383390D02*
X92845237Y-96383390D01*
X92845237Y-96383390D02*
X92940475Y-96431009D01*
X92940475Y-96431009D02*
X92988094Y-96478628D01*
X92988094Y-96478628D02*
X93035713Y-96573866D01*
X93035713Y-96573866D02*
X93035713Y-96764342D01*
X93035713Y-96764342D02*
X92988094Y-96859580D01*
X92988094Y-96859580D02*
X92940475Y-96907200D01*
X92940475Y-96907200D02*
X92845237Y-96954819D01*
X92845237Y-96954819D02*
X92654761Y-96954819D01*
X92654761Y-96954819D02*
X92559523Y-96907200D01*
X92559523Y-96907200D02*
X92511904Y-96859580D01*
X92511904Y-96859580D02*
X92464285Y-96764342D01*
X92464285Y-96764342D02*
X92464285Y-96573866D01*
X92464285Y-96573866D02*
X92511904Y-96478628D01*
X92511904Y-96478628D02*
X92559523Y-96431009D01*
X92559523Y-96431009D02*
X92654761Y-96383390D01*
X110511904Y-92204819D02*
X109940476Y-92204819D01*
X110226190Y-93204819D02*
X110226190Y-92204819D01*
X109607142Y-93204819D02*
X109607142Y-92204819D01*
X109607142Y-92204819D02*
X109226190Y-92204819D01*
X109226190Y-92204819D02*
X109130952Y-92252438D01*
X109130952Y-92252438D02*
X109083333Y-92300057D01*
X109083333Y-92300057D02*
X109035714Y-92395295D01*
X109035714Y-92395295D02*
X109035714Y-92538152D01*
X109035714Y-92538152D02*
X109083333Y-92633390D01*
X109083333Y-92633390D02*
X109130952Y-92681009D01*
X109130952Y-92681009D02*
X109226190Y-92728628D01*
X109226190Y-92728628D02*
X109607142Y-92728628D01*
X108702380Y-92204819D02*
X108083333Y-92204819D01*
X108083333Y-92204819D02*
X108416666Y-92585771D01*
X108416666Y-92585771D02*
X108273809Y-92585771D01*
X108273809Y-92585771D02*
X108178571Y-92633390D01*
X108178571Y-92633390D02*
X108130952Y-92681009D01*
X108130952Y-92681009D02*
X108083333Y-92776247D01*
X108083333Y-92776247D02*
X108083333Y-93014342D01*
X108083333Y-93014342D02*
X108130952Y-93109580D01*
X108130952Y-93109580D02*
X108178571Y-93157200D01*
X108178571Y-93157200D02*
X108273809Y-93204819D01*
X108273809Y-93204819D02*
X108559523Y-93204819D01*
X108559523Y-93204819D02*
X108654761Y-93157200D01*
X108654761Y-93157200D02*
X108702380Y-93109580D01*
X105954819Y-96833333D02*
X105478628Y-96500000D01*
X105954819Y-96261905D02*
X104954819Y-96261905D01*
X104954819Y-96261905D02*
X104954819Y-96642857D01*
X104954819Y-96642857D02*
X105002438Y-96738095D01*
X105002438Y-96738095D02*
X105050057Y-96785714D01*
X105050057Y-96785714D02*
X105145295Y-96833333D01*
X105145295Y-96833333D02*
X105288152Y-96833333D01*
X105288152Y-96833333D02*
X105383390Y-96785714D01*
X105383390Y-96785714D02*
X105431009Y-96738095D01*
X105431009Y-96738095D02*
X105478628Y-96642857D01*
X105478628Y-96642857D02*
X105478628Y-96261905D01*
X105288152Y-97690476D02*
X105954819Y-97690476D01*
X104907200Y-97452381D02*
X105621485Y-97214286D01*
X105621485Y-97214286D02*
X105621485Y-97833333D01*
X102416666Y-96359580D02*
X102464285Y-96407200D01*
X102464285Y-96407200D02*
X102607142Y-96454819D01*
X102607142Y-96454819D02*
X102702380Y-96454819D01*
X102702380Y-96454819D02*
X102845237Y-96407200D01*
X102845237Y-96407200D02*
X102940475Y-96311961D01*
X102940475Y-96311961D02*
X102988094Y-96216723D01*
X102988094Y-96216723D02*
X103035713Y-96026247D01*
X103035713Y-96026247D02*
X103035713Y-95883390D01*
X103035713Y-95883390D02*
X102988094Y-95692914D01*
X102988094Y-95692914D02*
X102940475Y-95597676D01*
X102940475Y-95597676D02*
X102845237Y-95502438D01*
X102845237Y-95502438D02*
X102702380Y-95454819D01*
X102702380Y-95454819D02*
X102607142Y-95454819D01*
X102607142Y-95454819D02*
X102464285Y-95502438D01*
X102464285Y-95502438D02*
X102416666Y-95550057D01*
X102083332Y-95454819D02*
X101464285Y-95454819D01*
X101464285Y-95454819D02*
X101797618Y-95835771D01*
X101797618Y-95835771D02*
X101654761Y-95835771D01*
X101654761Y-95835771D02*
X101559523Y-95883390D01*
X101559523Y-95883390D02*
X101511904Y-95931009D01*
X101511904Y-95931009D02*
X101464285Y-96026247D01*
X101464285Y-96026247D02*
X101464285Y-96264342D01*
X101464285Y-96264342D02*
X101511904Y-96359580D01*
X101511904Y-96359580D02*
X101559523Y-96407200D01*
X101559523Y-96407200D02*
X101654761Y-96454819D01*
X101654761Y-96454819D02*
X101940475Y-96454819D01*
X101940475Y-96454819D02*
X102035713Y-96407200D01*
X102035713Y-96407200D02*
X102083332Y-96359580D01*
X102954819Y-83083333D02*
X102478628Y-82750000D01*
X102954819Y-82511905D02*
X101954819Y-82511905D01*
X101954819Y-82511905D02*
X101954819Y-82892857D01*
X101954819Y-82892857D02*
X102002438Y-82988095D01*
X102002438Y-82988095D02*
X102050057Y-83035714D01*
X102050057Y-83035714D02*
X102145295Y-83083333D01*
X102145295Y-83083333D02*
X102288152Y-83083333D01*
X102288152Y-83083333D02*
X102383390Y-83035714D01*
X102383390Y-83035714D02*
X102431009Y-82988095D01*
X102431009Y-82988095D02*
X102478628Y-82892857D01*
X102478628Y-82892857D02*
X102478628Y-82511905D01*
X101954819Y-83416667D02*
X101954819Y-84035714D01*
X101954819Y-84035714D02*
X102335771Y-83702381D01*
X102335771Y-83702381D02*
X102335771Y-83845238D01*
X102335771Y-83845238D02*
X102383390Y-83940476D01*
X102383390Y-83940476D02*
X102431009Y-83988095D01*
X102431009Y-83988095D02*
X102526247Y-84035714D01*
X102526247Y-84035714D02*
X102764342Y-84035714D01*
X102764342Y-84035714D02*
X102859580Y-83988095D01*
X102859580Y-83988095D02*
X102907200Y-83940476D01*
X102907200Y-83940476D02*
X102954819Y-83845238D01*
X102954819Y-83845238D02*
X102954819Y-83559524D01*
X102954819Y-83559524D02*
X102907200Y-83464286D01*
X102907200Y-83464286D02*
X102859580Y-83416667D01*
X97954819Y-82738095D02*
X98764342Y-82738095D01*
X98764342Y-82738095D02*
X98859580Y-82785714D01*
X98859580Y-82785714D02*
X98907200Y-82833333D01*
X98907200Y-82833333D02*
X98954819Y-82928571D01*
X98954819Y-82928571D02*
X98954819Y-83119047D01*
X98954819Y-83119047D02*
X98907200Y-83214285D01*
X98907200Y-83214285D02*
X98859580Y-83261904D01*
X98859580Y-83261904D02*
X98764342Y-83309523D01*
X98764342Y-83309523D02*
X97954819Y-83309523D01*
X98954819Y-84309523D02*
X98954819Y-83738095D01*
X98954819Y-84023809D02*
X97954819Y-84023809D01*
X97954819Y-84023809D02*
X98097676Y-83928571D01*
X98097676Y-83928571D02*
X98192914Y-83833333D01*
X98192914Y-83833333D02*
X98240533Y-83738095D01*
X98859580Y-112333333D02*
X98907200Y-112285714D01*
X98907200Y-112285714D02*
X98954819Y-112142857D01*
X98954819Y-112142857D02*
X98954819Y-112047619D01*
X98954819Y-112047619D02*
X98907200Y-111904762D01*
X98907200Y-111904762D02*
X98811961Y-111809524D01*
X98811961Y-111809524D02*
X98716723Y-111761905D01*
X98716723Y-111761905D02*
X98526247Y-111714286D01*
X98526247Y-111714286D02*
X98383390Y-111714286D01*
X98383390Y-111714286D02*
X98192914Y-111761905D01*
X98192914Y-111761905D02*
X98097676Y-111809524D01*
X98097676Y-111809524D02*
X98002438Y-111904762D01*
X98002438Y-111904762D02*
X97954819Y-112047619D01*
X97954819Y-112047619D02*
X97954819Y-112142857D01*
X97954819Y-112142857D02*
X98002438Y-112285714D01*
X98002438Y-112285714D02*
X98050057Y-112333333D01*
X97954819Y-112666667D02*
X97954819Y-113333333D01*
X97954819Y-113333333D02*
X98954819Y-112904762D01*
X97204819Y-80083333D02*
X96728628Y-79750000D01*
X97204819Y-79511905D02*
X96204819Y-79511905D01*
X96204819Y-79511905D02*
X96204819Y-79892857D01*
X96204819Y-79892857D02*
X96252438Y-79988095D01*
X96252438Y-79988095D02*
X96300057Y-80035714D01*
X96300057Y-80035714D02*
X96395295Y-80083333D01*
X96395295Y-80083333D02*
X96538152Y-80083333D01*
X96538152Y-80083333D02*
X96633390Y-80035714D01*
X96633390Y-80035714D02*
X96681009Y-79988095D01*
X96681009Y-79988095D02*
X96728628Y-79892857D01*
X96728628Y-79892857D02*
X96728628Y-79511905D01*
X96300057Y-80464286D02*
X96252438Y-80511905D01*
X96252438Y-80511905D02*
X96204819Y-80607143D01*
X96204819Y-80607143D02*
X96204819Y-80845238D01*
X96204819Y-80845238D02*
X96252438Y-80940476D01*
X96252438Y-80940476D02*
X96300057Y-80988095D01*
X96300057Y-80988095D02*
X96395295Y-81035714D01*
X96395295Y-81035714D02*
X96490533Y-81035714D01*
X96490533Y-81035714D02*
X96633390Y-80988095D01*
X96633390Y-80988095D02*
X97204819Y-80416667D01*
X97204819Y-80416667D02*
X97204819Y-81035714D01*
X92859580Y-75583333D02*
X92907200Y-75535714D01*
X92907200Y-75535714D02*
X92954819Y-75392857D01*
X92954819Y-75392857D02*
X92954819Y-75297619D01*
X92954819Y-75297619D02*
X92907200Y-75154762D01*
X92907200Y-75154762D02*
X92811961Y-75059524D01*
X92811961Y-75059524D02*
X92716723Y-75011905D01*
X92716723Y-75011905D02*
X92526247Y-74964286D01*
X92526247Y-74964286D02*
X92383390Y-74964286D01*
X92383390Y-74964286D02*
X92192914Y-75011905D01*
X92192914Y-75011905D02*
X92097676Y-75059524D01*
X92097676Y-75059524D02*
X92002438Y-75154762D01*
X92002438Y-75154762D02*
X91954819Y-75297619D01*
X91954819Y-75297619D02*
X91954819Y-75392857D01*
X91954819Y-75392857D02*
X92002438Y-75535714D01*
X92002438Y-75535714D02*
X92050057Y-75583333D01*
X92954819Y-76535714D02*
X92954819Y-75964286D01*
X92954819Y-76250000D02*
X91954819Y-76250000D01*
X91954819Y-76250000D02*
X92097676Y-76154762D01*
X92097676Y-76154762D02*
X92192914Y-76059524D01*
X92192914Y-76059524D02*
X92240533Y-75964286D01*
X104859580Y-91333333D02*
X104907200Y-91285714D01*
X104907200Y-91285714D02*
X104954819Y-91142857D01*
X104954819Y-91142857D02*
X104954819Y-91047619D01*
X104954819Y-91047619D02*
X104907200Y-90904762D01*
X104907200Y-90904762D02*
X104811961Y-90809524D01*
X104811961Y-90809524D02*
X104716723Y-90761905D01*
X104716723Y-90761905D02*
X104526247Y-90714286D01*
X104526247Y-90714286D02*
X104383390Y-90714286D01*
X104383390Y-90714286D02*
X104192914Y-90761905D01*
X104192914Y-90761905D02*
X104097676Y-90809524D01*
X104097676Y-90809524D02*
X104002438Y-90904762D01*
X104002438Y-90904762D02*
X103954819Y-91047619D01*
X103954819Y-91047619D02*
X103954819Y-91142857D01*
X103954819Y-91142857D02*
X104002438Y-91285714D01*
X104002438Y-91285714D02*
X104050057Y-91333333D01*
X103954819Y-92238095D02*
X103954819Y-91761905D01*
X103954819Y-91761905D02*
X104431009Y-91714286D01*
X104431009Y-91714286D02*
X104383390Y-91761905D01*
X104383390Y-91761905D02*
X104335771Y-91857143D01*
X104335771Y-91857143D02*
X104335771Y-92095238D01*
X104335771Y-92095238D02*
X104383390Y-92190476D01*
X104383390Y-92190476D02*
X104431009Y-92238095D01*
X104431009Y-92238095D02*
X104526247Y-92285714D01*
X104526247Y-92285714D02*
X104764342Y-92285714D01*
X104764342Y-92285714D02*
X104859580Y-92238095D01*
X104859580Y-92238095D02*
X104907200Y-92190476D01*
X104907200Y-92190476D02*
X104954819Y-92095238D01*
X104954819Y-92095238D02*
X104954819Y-91857143D01*
X104954819Y-91857143D02*
X104907200Y-91761905D01*
X104907200Y-91761905D02*
X104859580Y-91714286D01*
X94561904Y-90704819D02*
X93990476Y-90704819D01*
X94276190Y-91704819D02*
X94276190Y-90704819D01*
X93657142Y-91704819D02*
X93657142Y-90704819D01*
X93657142Y-90704819D02*
X93276190Y-90704819D01*
X93276190Y-90704819D02*
X93180952Y-90752438D01*
X93180952Y-90752438D02*
X93133333Y-90800057D01*
X93133333Y-90800057D02*
X93085714Y-90895295D01*
X93085714Y-90895295D02*
X93085714Y-91038152D01*
X93085714Y-91038152D02*
X93133333Y-91133390D01*
X93133333Y-91133390D02*
X93180952Y-91181009D01*
X93180952Y-91181009D02*
X93276190Y-91228628D01*
X93276190Y-91228628D02*
X93657142Y-91228628D01*
X92704761Y-90800057D02*
X92657142Y-90752438D01*
X92657142Y-90752438D02*
X92561904Y-90704819D01*
X92561904Y-90704819D02*
X92323809Y-90704819D01*
X92323809Y-90704819D02*
X92228571Y-90752438D01*
X92228571Y-90752438D02*
X92180952Y-90800057D01*
X92180952Y-90800057D02*
X92133333Y-90895295D01*
X92133333Y-90895295D02*
X92133333Y-90990533D01*
X92133333Y-90990533D02*
X92180952Y-91133390D01*
X92180952Y-91133390D02*
X92752380Y-91704819D01*
X92752380Y-91704819D02*
X92133333Y-91704819D01*
X100666666Y-85859580D02*
X100714285Y-85907200D01*
X100714285Y-85907200D02*
X100857142Y-85954819D01*
X100857142Y-85954819D02*
X100952380Y-85954819D01*
X100952380Y-85954819D02*
X101095237Y-85907200D01*
X101095237Y-85907200D02*
X101190475Y-85811961D01*
X101190475Y-85811961D02*
X101238094Y-85716723D01*
X101238094Y-85716723D02*
X101285713Y-85526247D01*
X101285713Y-85526247D02*
X101285713Y-85383390D01*
X101285713Y-85383390D02*
X101238094Y-85192914D01*
X101238094Y-85192914D02*
X101190475Y-85097676D01*
X101190475Y-85097676D02*
X101095237Y-85002438D01*
X101095237Y-85002438D02*
X100952380Y-84954819D01*
X100952380Y-84954819D02*
X100857142Y-84954819D01*
X100857142Y-84954819D02*
X100714285Y-85002438D01*
X100714285Y-85002438D02*
X100666666Y-85050057D01*
X99809523Y-85288152D02*
X99809523Y-85954819D01*
X100047618Y-84907200D02*
X100285713Y-85621485D01*
X100285713Y-85621485D02*
X99666666Y-85621485D01*
X110511904Y-90704819D02*
X109940476Y-90704819D01*
X110226190Y-91704819D02*
X110226190Y-90704819D01*
X109607142Y-91704819D02*
X109607142Y-90704819D01*
X109607142Y-90704819D02*
X109226190Y-90704819D01*
X109226190Y-90704819D02*
X109130952Y-90752438D01*
X109130952Y-90752438D02*
X109083333Y-90800057D01*
X109083333Y-90800057D02*
X109035714Y-90895295D01*
X109035714Y-90895295D02*
X109035714Y-91038152D01*
X109035714Y-91038152D02*
X109083333Y-91133390D01*
X109083333Y-91133390D02*
X109130952Y-91181009D01*
X109130952Y-91181009D02*
X109226190Y-91228628D01*
X109226190Y-91228628D02*
X109607142Y-91228628D01*
X108178571Y-91038152D02*
X108178571Y-91704819D01*
X108416666Y-90657200D02*
X108654761Y-91371485D01*
X108654761Y-91371485D02*
X108035714Y-91371485D01*
X106261904Y-85954819D02*
X105690476Y-85954819D01*
X105976190Y-86954819D02*
X105976190Y-85954819D01*
X105357142Y-86954819D02*
X105357142Y-85954819D01*
X105357142Y-85954819D02*
X104976190Y-85954819D01*
X104976190Y-85954819D02*
X104880952Y-86002438D01*
X104880952Y-86002438D02*
X104833333Y-86050057D01*
X104833333Y-86050057D02*
X104785714Y-86145295D01*
X104785714Y-86145295D02*
X104785714Y-86288152D01*
X104785714Y-86288152D02*
X104833333Y-86383390D01*
X104833333Y-86383390D02*
X104880952Y-86431009D01*
X104880952Y-86431009D02*
X104976190Y-86478628D01*
X104976190Y-86478628D02*
X105357142Y-86478628D01*
X103833333Y-86954819D02*
X104404761Y-86954819D01*
X104119047Y-86954819D02*
X104119047Y-85954819D01*
X104119047Y-85954819D02*
X104214285Y-86097676D01*
X104214285Y-86097676D02*
X104309523Y-86192914D01*
X104309523Y-86192914D02*
X104404761Y-86240533D01*
X107833333Y-78431009D02*
X108166666Y-78431009D01*
X108166666Y-78954819D02*
X108166666Y-77954819D01*
X108166666Y-77954819D02*
X107690476Y-77954819D01*
X106976190Y-78431009D02*
X106833333Y-78478628D01*
X106833333Y-78478628D02*
X106785714Y-78526247D01*
X106785714Y-78526247D02*
X106738095Y-78621485D01*
X106738095Y-78621485D02*
X106738095Y-78764342D01*
X106738095Y-78764342D02*
X106785714Y-78859580D01*
X106785714Y-78859580D02*
X106833333Y-78907200D01*
X106833333Y-78907200D02*
X106928571Y-78954819D01*
X106928571Y-78954819D02*
X107309523Y-78954819D01*
X107309523Y-78954819D02*
X107309523Y-77954819D01*
X107309523Y-77954819D02*
X106976190Y-77954819D01*
X106976190Y-77954819D02*
X106880952Y-78002438D01*
X106880952Y-78002438D02*
X106833333Y-78050057D01*
X106833333Y-78050057D02*
X106785714Y-78145295D01*
X106785714Y-78145295D02*
X106785714Y-78240533D01*
X106785714Y-78240533D02*
X106833333Y-78335771D01*
X106833333Y-78335771D02*
X106880952Y-78383390D01*
X106880952Y-78383390D02*
X106976190Y-78431009D01*
X106976190Y-78431009D02*
X107309523Y-78431009D01*
X105785714Y-78954819D02*
X106357142Y-78954819D01*
X106071428Y-78954819D02*
X106071428Y-77954819D01*
X106071428Y-77954819D02*
X106166666Y-78097676D01*
X106166666Y-78097676D02*
X106261904Y-78192914D01*
X106261904Y-78192914D02*
X106357142Y-78240533D01*
X93454819Y-74316666D02*
X94169104Y-74316666D01*
X94169104Y-74316666D02*
X94311961Y-74269047D01*
X94311961Y-74269047D02*
X94407200Y-74173809D01*
X94407200Y-74173809D02*
X94454819Y-74030952D01*
X94454819Y-74030952D02*
X94454819Y-73935714D01*
X94454819Y-75316666D02*
X94454819Y-74745238D01*
X94454819Y-75030952D02*
X93454819Y-75030952D01*
X93454819Y-75030952D02*
X93597676Y-74935714D01*
X93597676Y-74935714D02*
X93692914Y-74840476D01*
X93692914Y-74840476D02*
X93740533Y-74745238D01*
X99761904Y-93454819D02*
X99761904Y-94264342D01*
X99761904Y-94264342D02*
X99714285Y-94359580D01*
X99714285Y-94359580D02*
X99666666Y-94407200D01*
X99666666Y-94407200D02*
X99571428Y-94454819D01*
X99571428Y-94454819D02*
X99380952Y-94454819D01*
X99380952Y-94454819D02*
X99285714Y-94407200D01*
X99285714Y-94407200D02*
X99238095Y-94359580D01*
X99238095Y-94359580D02*
X99190476Y-94264342D01*
X99190476Y-94264342D02*
X99190476Y-93454819D01*
X98761904Y-93550057D02*
X98714285Y-93502438D01*
X98714285Y-93502438D02*
X98619047Y-93454819D01*
X98619047Y-93454819D02*
X98380952Y-93454819D01*
X98380952Y-93454819D02*
X98285714Y-93502438D01*
X98285714Y-93502438D02*
X98238095Y-93550057D01*
X98238095Y-93550057D02*
X98190476Y-93645295D01*
X98190476Y-93645295D02*
X98190476Y-93740533D01*
X98190476Y-93740533D02*
X98238095Y-93883390D01*
X98238095Y-93883390D02*
X98809523Y-94454819D01*
X98809523Y-94454819D02*
X98190476Y-94454819D01*
X95454819Y-93083333D02*
X94978628Y-92750000D01*
X95454819Y-92511905D02*
X94454819Y-92511905D01*
X94454819Y-92511905D02*
X94454819Y-92892857D01*
X94454819Y-92892857D02*
X94502438Y-92988095D01*
X94502438Y-92988095D02*
X94550057Y-93035714D01*
X94550057Y-93035714D02*
X94645295Y-93083333D01*
X94645295Y-93083333D02*
X94788152Y-93083333D01*
X94788152Y-93083333D02*
X94883390Y-93035714D01*
X94883390Y-93035714D02*
X94931009Y-92988095D01*
X94931009Y-92988095D02*
X94978628Y-92892857D01*
X94978628Y-92892857D02*
X94978628Y-92511905D01*
X94454819Y-93416667D02*
X94454819Y-94083333D01*
X94454819Y-94083333D02*
X95454819Y-93654762D01*
X108666666Y-82359580D02*
X108714285Y-82407200D01*
X108714285Y-82407200D02*
X108857142Y-82454819D01*
X108857142Y-82454819D02*
X108952380Y-82454819D01*
X108952380Y-82454819D02*
X109095237Y-82407200D01*
X109095237Y-82407200D02*
X109190475Y-82311961D01*
X109190475Y-82311961D02*
X109238094Y-82216723D01*
X109238094Y-82216723D02*
X109285713Y-82026247D01*
X109285713Y-82026247D02*
X109285713Y-81883390D01*
X109285713Y-81883390D02*
X109238094Y-81692914D01*
X109238094Y-81692914D02*
X109190475Y-81597676D01*
X109190475Y-81597676D02*
X109095237Y-81502438D01*
X109095237Y-81502438D02*
X108952380Y-81454819D01*
X108952380Y-81454819D02*
X108857142Y-81454819D01*
X108857142Y-81454819D02*
X108714285Y-81502438D01*
X108714285Y-81502438D02*
X108666666Y-81550057D01*
X108285713Y-81550057D02*
X108238094Y-81502438D01*
X108238094Y-81502438D02*
X108142856Y-81454819D01*
X108142856Y-81454819D02*
X107904761Y-81454819D01*
X107904761Y-81454819D02*
X107809523Y-81502438D01*
X107809523Y-81502438D02*
X107761904Y-81550057D01*
X107761904Y-81550057D02*
X107714285Y-81645295D01*
X107714285Y-81645295D02*
X107714285Y-81740533D01*
X107714285Y-81740533D02*
X107761904Y-81883390D01*
X107761904Y-81883390D02*
X108333332Y-82454819D01*
X108333332Y-82454819D02*
X107714285Y-82454819D01*
X97859580Y-85833333D02*
X97907200Y-85785714D01*
X97907200Y-85785714D02*
X97954819Y-85642857D01*
X97954819Y-85642857D02*
X97954819Y-85547619D01*
X97954819Y-85547619D02*
X97907200Y-85404762D01*
X97907200Y-85404762D02*
X97811961Y-85309524D01*
X97811961Y-85309524D02*
X97716723Y-85261905D01*
X97716723Y-85261905D02*
X97526247Y-85214286D01*
X97526247Y-85214286D02*
X97383390Y-85214286D01*
X97383390Y-85214286D02*
X97192914Y-85261905D01*
X97192914Y-85261905D02*
X97097676Y-85309524D01*
X97097676Y-85309524D02*
X97002438Y-85404762D01*
X97002438Y-85404762D02*
X96954819Y-85547619D01*
X96954819Y-85547619D02*
X96954819Y-85642857D01*
X96954819Y-85642857D02*
X97002438Y-85785714D01*
X97002438Y-85785714D02*
X97050057Y-85833333D01*
X96954819Y-86690476D02*
X96954819Y-86500000D01*
X96954819Y-86500000D02*
X97002438Y-86404762D01*
X97002438Y-86404762D02*
X97050057Y-86357143D01*
X97050057Y-86357143D02*
X97192914Y-86261905D01*
X97192914Y-86261905D02*
X97383390Y-86214286D01*
X97383390Y-86214286D02*
X97764342Y-86214286D01*
X97764342Y-86214286D02*
X97859580Y-86261905D01*
X97859580Y-86261905D02*
X97907200Y-86309524D01*
X97907200Y-86309524D02*
X97954819Y-86404762D01*
X97954819Y-86404762D02*
X97954819Y-86595238D01*
X97954819Y-86595238D02*
X97907200Y-86690476D01*
X97907200Y-86690476D02*
X97859580Y-86738095D01*
X97859580Y-86738095D02*
X97764342Y-86785714D01*
X97764342Y-86785714D02*
X97526247Y-86785714D01*
X97526247Y-86785714D02*
X97431009Y-86738095D01*
X97431009Y-86738095D02*
X97383390Y-86690476D01*
X97383390Y-86690476D02*
X97335771Y-86595238D01*
X97335771Y-86595238D02*
X97335771Y-86404762D01*
X97335771Y-86404762D02*
X97383390Y-86309524D01*
X97383390Y-86309524D02*
X97431009Y-86261905D01*
X97431009Y-86261905D02*
X97526247Y-86214286D01*
D12*
X89265000Y-78727064D02*
X89265000Y-78272936D01*
X90735000Y-78727064D02*
X90735000Y-78272936D01*
X95620000Y-86846359D02*
X95620000Y-87153641D01*
X96380000Y-86846359D02*
X96380000Y-87153641D01*
X93142164Y-97390000D02*
X93357836Y-97390000D01*
X93142164Y-98110000D02*
X93357836Y-98110000D01*
X107700000Y-92750000D02*
G75*
G02*
X106300000Y-92750000I-700000J0D01*
G01*
X106300000Y-92750000D02*
G75*
G02*
X107700000Y-92750000I700000J0D01*
G01*
X105120000Y-94846359D02*
X105120000Y-95153641D01*
X105880000Y-94846359D02*
X105880000Y-95153641D01*
X102357836Y-94140000D02*
X102142164Y-94140000D01*
X102357836Y-94860000D02*
X102142164Y-94860000D01*
X102120000Y-81153641D02*
X102120000Y-80846359D01*
X102880000Y-81153641D02*
X102880000Y-80846359D01*
X99510000Y-82150000D02*
X99510000Y-81100000D01*
X101490000Y-82150000D02*
X101490000Y-80850000D01*
X99510000Y-80730000D02*
X99230000Y-80730000D01*
X99510000Y-80450000D01*
X99510000Y-80730000D01*
G36*
X99510000Y-80730000D02*
G01*
X99230000Y-80730000D01*
X99510000Y-80450000D01*
X99510000Y-80730000D01*
G37*
X96890000Y-113372164D02*
X96890000Y-113587836D01*
X97610000Y-113372164D02*
X97610000Y-113587836D01*
X97620000Y-81153641D02*
X97620000Y-80846359D01*
X98380000Y-81153641D02*
X98380000Y-80846359D01*
X91765000Y-78761252D02*
X91765000Y-78238748D01*
X93235000Y-78761252D02*
X93235000Y-78238748D01*
X104140000Y-93782836D02*
X104140000Y-93567164D01*
X104860000Y-93782836D02*
X104860000Y-93567164D01*
X94700000Y-89500000D02*
G75*
G02*
X93300000Y-89500000I-700000J0D01*
G01*
X93300000Y-89500000D02*
G75*
G02*
X94700000Y-89500000I700000J0D01*
G01*
X102607836Y-85140000D02*
X102392164Y-85140000D01*
X102607836Y-85860000D02*
X102392164Y-85860000D01*
X107700000Y-90500000D02*
G75*
G02*
X106300000Y-90500000I-700000J0D01*
G01*
X106300000Y-90500000D02*
G75*
G02*
X107700000Y-90500000I700000J0D01*
G01*
X105950000Y-88250000D02*
G75*
G02*
X104550000Y-88250000I-700000J0D01*
G01*
X104550000Y-88250000D02*
G75*
G02*
X105950000Y-88250000I700000J0D01*
G01*
X105337221Y-79490000D02*
X105662779Y-79490000D01*
X105337221Y-80510000D02*
X105662779Y-80510000D01*
X95330000Y-73800000D02*
X95330000Y-75500000D01*
X104670000Y-73800000D02*
X104670000Y-75500000D01*
X97890000Y-87390000D02*
X98865000Y-87390000D01*
X97890000Y-88365000D02*
X97890000Y-87390000D01*
X97890000Y-91635000D02*
X97890000Y-92610000D01*
X97890000Y-92610000D02*
X98865000Y-92610000D01*
X102135000Y-92610000D02*
X102870000Y-92610000D01*
X103110000Y-87390000D02*
X102135000Y-87390000D01*
X103110000Y-88365000D02*
X103110000Y-87390000D01*
X103110000Y-91635000D02*
X103110000Y-92310000D01*
X103440000Y-92850000D02*
X103110000Y-92610000D01*
X103440000Y-92370000D01*
X103440000Y-92850000D01*
G36*
X103440000Y-92850000D02*
G01*
X103110000Y-92610000D01*
X103440000Y-92370000D01*
X103440000Y-92850000D01*
G37*
X95870000Y-93403641D02*
X95870000Y-93096359D01*
X96630000Y-93403641D02*
X96630000Y-93096359D01*
X105238748Y-81265000D02*
X105761252Y-81265000D01*
X105238748Y-82735000D02*
X105761252Y-82735000D01*
X95640000Y-88892164D02*
X95640000Y-89107836D01*
X96360000Y-88892164D02*
X96360000Y-89107836D01*
M02*
