M48
; DRILL file {KiCad 9.0.4} date 2025-09-08T01:23:05+0900
; FORMAT={-:-/ absolute / metric / decimal}
; #@! TF.CreationDate,2025-09-08T01:23:05+09:00
; #@! TF.GenerationSoftware,Kicad,Pcbnew,9.0.4
; #@! TF.FileFunction,Plated,1,4,PTH
FMAT,2
METRIC
; #@! TA.AperFunction,Plated,PTH,ViaDrill
T1C0.300
; #@! TA.AperFunction,Plated,PTH,ComponentDrill
T2C0.500
; #@! TA.AperFunction,Plated,PTH,ViaDrill
T3C0.600
; #@! TA.AperFunction,Plated,PTH,ComponentDrill
T4C0.600
; #@! TA.AperFunction,Plated,PTH,ViaDrill
T5C1.000
; #@! TA.AperFunction,Plated,PTH,ComponentDrill
T6C1.000
; #@! TA.AperFunction,Plated,PTH,ComponentDrill
T7C1.800
%
G90
G05
T1
X85.5Y-79.5
X85.5Y-85.0
X85.5Y-90.0
X85.5Y-95.0
X85.5Y-100.0
X85.5Y-105.0
X85.5Y-109.5
X88.0Y-75.5
X88.0Y-77.5
X90.0Y-91.0
X90.0Y-95.0
X90.0Y-100.0
X90.25Y-75.0
X90.5Y-70.5
X90.5Y-114.5
X91.0Y-105.0
X91.0Y-109.25
X92.1Y-97.75
X93.0Y-114.5
X95.0Y-80.5
X95.0Y-85.0
X95.0Y-104.5
X95.25Y-88.5
X96.0Y-85.8
X96.8Y-78.4
X97.0Y-95.0
X97.25Y-81.5
X97.25Y-112.3
X97.6Y-78.4
X97.75Y-103.5
X98.25Y-114.0
X99.25Y-114.0
X99.5Y-79.5
X100.0Y-70.5
X100.0Y-74.5
X100.0Y-95.0
X100.0Y-100.0
X100.0Y-103.0
X100.0Y-114.0
X100.5Y-80.1
X100.5Y-82.9
X100.75Y-114.0
X102.2Y-82.2
X102.4Y-78.4
X102.75Y-93.8
X103.2Y-78.4
X103.65Y-85.5
X103.8Y-94.15
X104.5Y-100.0
X104.5Y-103.0
X105.0Y-85.0
X105.0Y-114.5
X105.75Y-90.5
X107.5Y-79.5
X109.5Y-70.5
X109.5Y-77.5
X109.5Y-114.55
X110.0Y-79.5
X110.0Y-94.5
X110.0Y-100.0
X110.0Y-105.0
X110.0Y-110.0
X111.75Y-94.5
X112.0Y-96.5
X113.0Y-90.0
X113.0Y-91.5
X114.5Y-79.5
X114.5Y-82.5
X114.5Y-95.0
X114.5Y-100.0
X114.5Y-105.0
X114.5Y-109.5
T3
X103.5Y-82.0
T5
X90.0Y-81.0
X92.5Y-81.0
T6
X93.65Y-100.44
X93.65Y-102.98
X93.65Y-105.52
X93.65Y-108.06
X106.35Y-100.44
X106.35Y-102.98
X106.35Y-105.52
X106.35Y-108.06
T7
X100.5Y-90.0
T2
G00X95.9Y-108.15
M15
G01X95.9Y-106.85
M16
G05
G00X95.9Y-112.4
M15
G01X95.9Y-110.7
M16
G05
G00X104.1Y-108.15
M15
G01X104.1Y-106.85
M16
G05
G00X104.1Y-112.4
M15
G01X104.1Y-110.7
M16
G05
T4
G00X95.68Y-72.225
M15
G01X95.68Y-73.025
M16
G05
G00X95.68Y-76.255
M15
G01X95.68Y-77.355
M16
G05
G00X104.32Y-72.225
M15
G01X104.32Y-73.025
M16
G05
G00X104.32Y-76.255
M15
G01X104.32Y-77.355
M16
G05
M30
